<?xml version="1.0" standalone="no"?>
<!DOCTYPE svg PUBLIC "-//W3C//DTD SVG 1.1//EN" "http://www.w3.org/Graphics/SVG/1.1/DTD/svg11.dtd" >
<svg xmlns="http://www.w3.org/2000/svg" xmlns:xlink="http://www.w3.org/1999/xlink" version="1.1">
<metadata>
Created by FontForge 20201107 at Mon Mar  2 01:17:13 2020
 By 
Copyright (c) 2020 by Mans Greback. All rights reserved.
</metadata>
<defs>
<font id="KurriIslandPERSONAL-Medium" horiz-adv-x="634" >
  <font-face 
    font-family="Kurri Island Med"
    font-weight="500"
    font-stretch="normal"
    units-per-em="1000"
    panose-1="0 0 0 0 0 0 0 0 0 0"
    ascent="800"
    descent="-200"
    x-height="604"
    cap-height="768"
    bbox="-116 -310 998 1044"
    underline-thickness="50"
    underline-position="-100"
    unicode-range="U+000D-FB02"
  />
<missing-glyph horiz-adv-x="500" 
 />
    <glyph glyph-name="f_f" unicode="ff" horiz-adv-x="696" 
d="M689 421l-161 -12v-74q0 -98 3 -213t8 -235q-38 -5 -78 -8t-79 -8q-3 87 -6 178q-1 39 -2.5 82.5t-2.5 88.5l-2 90t-1 87l-119 -10q-3 -73 -3 -164q0 -76 1.5 -158.5t5.5 -167.5q-38 -5 -78 -8t-79 -8q-1 57 -2 120q-1 54 -1.5 122t-1.5 140v113l-71 -5q-5 35 -9.5 74.5
t-8.5 77.5l90 6q-1 20 0 36.5t2 27.5q2 52 16 91t36.5 66t51.5 42.5t62 21.5q8 1 15 1.5t15 0.5q40 0 76 -13l-11 -144q-16 6 -30 6q-23 0 -40 -17.5t-23 -55.5q-2 -8 -3.5 -20.5t-3.5 -29.5l114 8q0 14 0.5 25.5t1.5 19.5q3 60 25 102t55.5 68.5t75 39t83.5 12.5
q8 0 16 -0.5t16 -1.5l-11 -144q-43 0 -65.5 -22t-28.5 -64q-3 -9 -3 -23l140 11z" />
    <glyph glyph-name="fi" unicode="fi" horiz-adv-x="599" 
d="M589 707q0 -19 -7 -35.5t-19.5 -29t-29 -19.5t-35.5 -7t-35.5 7t-28.5 19.5t-19 29t-7 35.5q0 18 7 34t19 28.5t28.5 19.5t35.5 7t35.5 -7t29 -19.5t19.5 -28.5t7 -34zM561 574l6 -577q-42 -1 -84.5 -2t-84.5 -2v410l-146 -13v-47q0 -98 3 -212.5t8 -233.5q-38 -5 -78 -8
t-79 -8q-3 81 -6 166q-1 36 -2.5 76.5t-2.5 83t-2 86t-1 84.5l-72 -6q-5 36 -9.5 75.5t-8.5 76.5l90 7q0 20 0.5 33.5t1.5 29.5q2 48 16 88.5t40 70.5t64 47t88 17q16 -2 32 -4.5t32 -8.5q-2 -35 -5 -71t-6 -73q-18 5 -30 5q-31 0 -49 -27t-20 -92z" />
    <glyph glyph-name="fl" unicode="fl" horiz-adv-x="610" 
d="M585 807l-13 -812q-38 -2 -80.5 -5.5t-81.5 -5.5q4 201 6.5 405.5t7.5 405.5zM370 411q-28 -3 -55.5 -7t-56.5 -6q0 -20 -1 -42t-1 -45q0 -93 3.5 -199t8.5 -215q-38 -5 -78 -8t-79 -8q-3 81 -6 166q-2 73 -4 161t-4 171l-72 -8q-5 36 -9.5 75t-8.5 77l90 10
q0 74 15 127.5t41.5 88t63 51t80.5 16.5q19 0 38 -3t36 -10l-12 -144q-18 6 -32 6q-23 0 -39 -16.5t-21 -56.5q-4 -14 -5 -39q23 3 47 5.5t46 5.5z" />
    <glyph glyph-name="t_t" unicode="tt" horiz-adv-x="645" 
d="M251 209q1 -32 16.5 -52t62.5 -28l-43 -148q-54 6 -92.5 25.5t-62.5 48t-35 65t-11 77.5v241l-72 -6l-14 151q26 3 50 5t50 4l19 99q29 3 62.5 5t64.5 4q0 -25 0.5 -48.5t0.5 -48.5l123 10l11 98l136 9q0 -24 0.5 -47.5t0.5 -47.5l108 9l15 -152l-122 -11l3 -264
q0 -39 22.5 -57.5t67.5 -26.5l-55 -153q-55 6 -93 27t-62 52t-34.5 69t-10.5 79v262l-109 -9z" />
    <glyph glyph-name=".notdef" horiz-adv-x="500" 
 />
    <glyph glyph-name="uni0000" horiz-adv-x="0" 
 />
    <glyph glyph-name="uni0000" horiz-adv-x="0" 
 />
    <glyph glyph-name="uni000D" unicode="&#xd;" horiz-adv-x="250" 
 />
    <glyph glyph-name="space" unicode=" " horiz-adv-x="281" 
 />
    <glyph glyph-name="exclam" unicode="!" horiz-adv-x="287" 
d="M126 216h8q32 0 55 -10t37 -27t20.5 -38.5t5.5 -44.5q-1 -22 -8.5 -43.5t-21.5 -38t-33.5 -27t-43.5 -10.5q-51 0 -86 32.5t-40 83.5q-2 22 3.5 43.5t19 39t34.5 28.5t50 12zM231 848l-22 -549l-151 -11q-5 136 -9.5 274t-9.5 274z" />
    <glyph glyph-name="quotedbl" unicode="&#x22;" horiz-adv-x="465" 
d="M444 777l-44 -309q-32 -1 -66.5 -2t-67.5 -2l-4 333zM204 790q-5 -79 -9.5 -160.5t-9.5 -161.5q-31 -1 -66.5 -2t-67.5 -2l-28 319z" />
    <glyph glyph-name="numbersign" unicode="#" horiz-adv-x="582" 
d="M25 524l72 2q1 21 0 42.5t0 42.5l148 7v-89l63 2q0 20 -0.5 39.5t-0.5 39.5l149 8v-83l83 2l7 -152h-90v-88l93 3l7 -152q-25 0 -50 -1t-50 -1v-88q-32 -2 -68 -5t-69 -6l-2 100q-15 0 -29.5 -0.5t-28.5 -0.5h-14v-88q-32 -2 -68 -5t-69 -6l-2 99h-61l-9 141l66 2l-1 95
h-67zM312 383q-17 0 -33.5 0.5t-33.5 0.5v-92l68 2z" />
    <glyph glyph-name="dollar" unicode="$" horiz-adv-x="522" 
d="M207 -18q0 14 0.5 25.5t0.5 25.5q-57 5 -107 31t-77 72l79 107q42 -55 109 -68l4 146q-28 11 -56 24.5t-50 34.5t-34.5 51t-11.5 72q2 41 15.5 72t35 53.5t50 36.5t60.5 20q0 17 0.5 32.5t0.5 30.5q26 -2 56 -4t58 -5q0 -14 -0.5 -27t-0.5 -27q37 -7 73 -24t64 -46
q-20 -29 -37.5 -55.5t-37.5 -56.5q-15 14 -34.5 22t-33.5 13l-4 -106q31 -11 61.5 -25.5t54.5 -37t38 -55t12 -79.5q-2 -45 -17 -79t-39 -59t-55.5 -40.5t-66.5 -21.5q-2 -17 -1.5 -30.5t-0.5 -28.5zM185 503q2 -38 45 -47l4 103q-21 -8 -34.5 -20.5t-14.5 -35.5zM370 245
q-1 15 -16 27.5t-35 21.5l-3 -115q24 9 40 25.5t14 40.5z" />
    <glyph glyph-name="percent" unicode="%" horiz-adv-x="660" 
d="M149 -29q-30 15 -63 29.5t-65 29.5l283 406q-28 -28 -58.5 -40.5t-59.5 -12.5t-54 10.5t-43.5 29.5t-30.5 44t-14 53q-2 26 3.5 53.5t20.5 56.5q26 52 64 81t97 29q26 -2 50 -13t43 -29t31.5 -42.5t15.5 -53.5q5 -49 -22 -103l160 230l106 -75l-250 -368q26 32 56.5 46
t61.5 14q4 0 7 -0.5t6 -0.5q26 -2 50 -13t43 -28.5t31 -42t15 -53.5q5 -52 -25 -109q-31 -59 -72.5 -84.5t-83.5 -25.5q-29 0 -54.5 10.5t-44.5 29t-30.5 43.5t-14.5 54q-2 26 3.5 53.5t20.5 57.5q2 4 3.5 7.5t3.5 6.5zM207 609q-9 -2 -18 -10t-16 -18.5t-10 -22t0 -21.5
q4 -15 12 -21.5t19 -6.5q18 0 35.5 15.5t20.5 39.5q5 20 -6.5 33t-28.5 13q-5 0 -8 -1zM472 214q-10 -2 -19 -9.5t-15.5 -17.5t-9.5 -21.5t0 -21.5q4 -15 12.5 -22t19.5 -7q17 0 34 15t20 40q4 20 -7 32.5t-27 12.5q-5 0 -8 -1z" />
    <glyph glyph-name="ampersand" unicode="&#x26;" horiz-adv-x="649" 
d="M319 120q12 1 25 4t24 8q-2 5 -2 17.5v21.5l2 130q-27 6 -54 6h-16.5t-16.5 -2q-28 -6 -48.5 -18.5t-33 -28.5t-16.5 -34.5t1 -36.5q6 -20 21.5 -33t34.5 -20.5t40 -10.5t39 -3zM520 182q0 -35 17 -53t59 -26l-42 -129q-38 5 -70.5 16.5t-51.5 27.5q-14 -15 -31 -23.5
t-36 -13t-38.5 -5.5t-38.5 -1q-47 0 -90.5 13t-78 37.5t-58.5 60t-33 81.5q-3 10 -3 21v22q2 59 33.5 107.5t83.5 73.5q-25 11 -45 31t-33.5 45.5t-18.5 55t1 59.5q9 43 30 76.5t51.5 56t69.5 35t84 13.5q67 0 130.5 -19t121.5 -52l-74 -114q-44 26 -84.5 37.5t-73.5 11.5
q-38 0 -63 -14q-37 -12 -43.5 -39t9.5 -55t49 -49t75 -21q10 0 15 1l36 5q6 22 11 35.5t11 33.5q27 2 58 3.5t59 3.5l2 -58l91 10q3 -32 7 -71t7 -74l-105 -12v-144z" />
    <glyph glyph-name="quotesingle" unicode="'" horiz-adv-x="245" 
d="M220 801l-44 -333q-35 -1 -68 -2t-68 -2l-4 344z" />
    <glyph glyph-name="parenleft" unicode="(" horiz-adv-x="384" 
d="M362 737q-45 -42 -76.5 -95.5t-51.5 -112.5t-28.5 -122t-7.5 -125q1 -60 12 -120.5t31.5 -116t50 -104t66.5 -83.5l-131 -71q-43 36 -76.5 82t-57.5 100t-38.5 114t-20.5 122q-7 85 3 171t36 165t68.5 148t100.5 119z" />
    <glyph glyph-name="parenright" unicode=")" horiz-adv-x="384" 
d="M-4 -142q45 42 76.5 95.5t51.5 113t28.5 122.5t7.5 124q-1 60 -12 120.5t-31.5 116.5t-49.5 104t-67 83l131 71q87 -72 134.5 -182t58.5 -236q7 -84 -3 -170t-36 -165.5t-68 -148t-101 -119.5z" />
    <glyph glyph-name="asterisk" unicode="*" horiz-adv-x="510" 
d="M318 512l169 18q-14 -44 -28.5 -91.5t-29.5 -94.5l-123 108l96 -145q-44 -12 -84 -21.5t-86 -22.5l7 169l-57 -152q-36 29 -69 58t-71 60l151 76q-42 -2 -85 -4.5t-85 -4.5q11 41 22.5 83.5t23.5 85.5l133 -99l-109 146l185 56l-6 -180l57 161l139 -122z" />
    <glyph glyph-name="plus" unicode="+" horiz-adv-x="452" 
d="M157 424l-5 133q33 1 69 2t71 2l3 -131l129 6q1 -35 1 -70t1 -72l-128 -3l4 -125q-32 -2 -65.5 -3.5t-67.5 -3.5l-5 130l-133 -4q-2 32 -2.5 66t-2.5 67z" />
    <glyph glyph-name="comma" unicode="," horiz-adv-x="245" 
d="M220 223l-45 -334l-150 -3l-4 344z" />
    <glyph glyph-name="hyphen" unicode="-" horiz-adv-x="347" 
d="M321 400q-1 -38 -2 -80.5t-2 -81.5q-73 -3 -144 -4.5t-145 -3.5q-2 38 -1.5 77.5t-0.5 78.5z" />
    <glyph glyph-name="period" unicode="." horiz-adv-x="292" 
d="M143 -16q-22 0 -41 9t-34 23.5t-25 33.5t-15 39q-4 26 4.5 50t25.5 43t40 31t47 15q5 1 14 1q42 0 71.5 -29t34.5 -73q3 -25 -4.5 -48.5t-22 -43t-34.5 -32.5t-43 -17q-5 -1 -9 -1.5t-9 -0.5z" />
    <glyph glyph-name="slash" unicode="/" horiz-adv-x="704" 
d="M676 810l-496 -1005l-144 63l496 1013z" />
    <glyph glyph-name="zero" unicode="0" horiz-adv-x="572" 
d="M280 154q4 -1 11 -1q24 0 42.5 14t32 37t22.5 53.5t12 64.5q3 39 -1 77.5t-16.5 71t-32.5 55t-49 29.5q-10 2 -16 2q-21 0 -39 -13.5t-32.5 -36t-24.5 -52t-15 -62.5q-6 -40 -3 -80.5t15.5 -74t35.5 -56.5t58 -28zM289 708q69 0 120 -31.5t83.5 -83t47.5 -116.5t13 -133
q-1 -65 -18.5 -126.5t-49.5 -109.5t-79 -77.5t-107 -29.5h-10q-69 2 -120.5 33.5t-84.5 82t-48.5 114.5t-14.5 130q1 65 19 127.5t51.5 111t83.5 78.5t114 30z" />
    <glyph glyph-name="one" unicode="1" horiz-adv-x="360" 
d="M288 717q-4 -178 -6.5 -358t-7.5 -358q-38 -1 -79 -2t-81 -2l10 499l-70 -45q-22 23 -45.5 47t-46.5 48q43 39 85.5 79t86.5 80z" />
    <glyph glyph-name="two" unicode="2" horiz-adv-x="502" 
d="M14 123q77 50 138.5 104.5t100.5 108.5t51.5 104t-7.5 90q-14 21 -33.5 30t-42.5 9q-20 0 -41 -5t-40.5 -13t-36.5 -16.5t-30 -16.5q-16 32 -32.5 67t-33.5 69q104 61 205 61q52 0 97.5 -14.5t79.5 -43t54 -71t20 -97.5q3 -88 -49 -176t-152 -170l204 5q-2 -37 -5 -76
t-6 -77q-103 -2 -208 -2.5t-209 -2.5z" />
    <glyph glyph-name="three" unicode="3" horiz-adv-x="498" 
d="M447 549q6 -32 -2 -61.5t-25.5 -52.5t-40.5 -38.5t-47 -19.5q47 -14 81 -47t47 -78q6 -29 4 -63q-3 -45 -22.5 -81t-49.5 -61.5t-68.5 -40.5t-80.5 -16q-63 0 -111.5 19.5t-80.5 42t-47 40t-11 14.5l88 114q39 -47 73 -63.5t58 -19.5q32 0 60.5 9t38.5 44q5 20 0 38.5
t-19.5 32.5t-37 23t-52.5 9q-25 0 -52 -7l-22 132q39 6 71 15t54 22t32 29.5t7 36.5q-2 23 -18 35.5t-43 12.5q-34 0 -71 -16.5t-64 -35.5l-67 134q55 32 109.5 48t118.5 16q73 -5 124.5 -46.5t65.5 -119.5z" />
    <glyph glyph-name="four" unicode="4" horiz-adv-x="532" 
d="M284 304l3 131l-92 -136zM288 708q38 2 77.5 4t78.5 4l-7 -402l59 4q2 -35 5 -73t6 -74l-72 -7l-4 -170q-37 -1 -77 -2t-78 -2l4 163l-211 -15q-11 30 -22 64t-22 65z" />
    <glyph glyph-name="five" unicode="5" horiz-adv-x="518" 
d="M435 560l-220 6l-7 -91q11 1 22 1.5t22 0.5q48 0 90 -15t73.5 -43t51 -67.5t23.5 -88.5q5 -60 -12.5 -109.5t-50 -84.5t-75.5 -55t-91 -21q-5 0 -9 -0.5t-9 -0.5q-56 0 -101 21t-76 46.5t-47 46.5l-16 21q0 -1 1 -2l90 115q41 -52 76 -72t59 -22q4 -1 12 -1q30 0 56 19.5
t36 51.5q6 19 2.5 40.5t-16 39.5t-34 30t-51.5 12q-18 0 -33 -4t-40 -14q-24 13 -52 28t-53 29l24 339q91 -3 183.5 -4.5t183.5 -3.5z" />
    <glyph glyph-name="six" unicode="6" horiz-adv-x="512" 
d="M178 306q-19 -77 -1 -118.5t69 -49.5q23 0 41 8.5t30.5 23.5t19 34.5t6.5 41.5q0 40 -25.5 60.5t-59.5 20.5h-8.5t-8.5 -1q-9 -2 -25.5 -4t-37.5 -16zM244 -6q-49 0 -87.5 16.5t-66 45.5t-43 69t-19.5 87q-4 63 14.5 133.5t58 139.5t98 132t134.5 112q26 -24 53.5 -50
t54.5 -51q-64 -41 -111.5 -86t-81.5 -93q23 8 43 8q36 0 70.5 -13.5t62.5 -40t45 -64.5t17 -88q0 -63 -21 -111.5t-55.5 -80.5t-78 -48.5t-87.5 -16.5z" />
    <glyph glyph-name="seven" unicode="7" horiz-adv-x="475" 
d="M426 716l34 -119q-54 -152 -107.5 -303t-107.5 -303q-38 12 -76.5 25.5t-77.5 26.5q48 127 98 257t99 258q-68 -2 -134 -3t-135 -3l-7 156z" />
    <glyph glyph-name="eight" unicode="8" horiz-adv-x="547" 
d="M269 144q55 0 78.5 21.5t20.5 47.5q-4 26 -29.5 50.5t-68.5 32.5q-42 -9 -67 -33t-30 -50q-6 -27 16.5 -48t79.5 -21zM269 573q-45 0 -63.5 -18.5t-17.5 -43.5q0 -13 5.5 -26t16 -25t25 -21t32.5 -13q38 8 61 31t27 49q3 25 -17.5 46t-68.5 21zM408 391q41 -22 66.5 -51
t37.5 -61.5t12.5 -67.5t-10.5 -69q-11 -30 -31 -55.5t-50 -44.5t-69 -30t-88 -11q-65 0 -113 19t-78.5 50.5t-45 71t-11.5 81.5q4 48 29.5 84.5t72.5 67.5q-25 10 -43.5 30t-29.5 44.5t-13.5 52.5t4.5 53q8 32 27 60t48 50t67.5 34.5t84.5 12.5q50 0 89.5 -13t68 -35
t45.5 -51t22 -60q8 -50 -15.5 -94t-76.5 -68z" />
    <glyph glyph-name="nine" unicode="9" horiz-adv-x="517" 
d="M171 467q2 -38 30.5 -59t63.5 -21q18 0 36.5 6.5t31.5 19.5q10 35 8.5 64.5t-12 51.5t-29 34.5t-43.5 12.5h-7q-15 -1 -30 -7t-26.5 -18.5t-18 -33t-4.5 -50.5zM488 467q0 -29 -8 -76t-35.5 -108.5t-81 -135t-144.5 -156.5q-32 21 -66.5 42.5t-66.5 42.5
q60 49 102.5 93.5t63.5 76.5q23 22 30 34q-16 -8 -29.5 -10t-24.5 -2q-35 0 -69.5 11t-63 33.5t-47 57.5t-21.5 84q-4 65 15 114t53 82.5t79 51t93 18.5q56 0 97 -20t69 -54.5t41.5 -80.5t13.5 -98z" />
    <glyph glyph-name="colon" unicode=":" horiz-adv-x="292" 
d="M161 365q-5 -1 -9 -1.5t-9 -0.5q-21 0 -40.5 8.5t-34.5 23t-25.5 33.5t-14.5 40q-4 26 4.5 50.5t25.5 43.5t40 31.5t47 15.5q3 0 6 0.5t6 0.5q21 0 39.5 -8t32.5 -22t23.5 -33t12.5 -41q3 -25 -4.5 -48.5t-22 -43t-34.5 -32.5t-43 -17zM161 -14q-5 -1 -9 -1.5t-9 -0.5
q-21 0 -40.5 8.5t-34.5 23t-25.5 33.5t-14.5 40q-4 26 4.5 50t25.5 43t40 31t47 15q5 1 14 1q42 0 71.5 -29t34.5 -73q3 -25 -4.5 -48.5t-22 -43t-34.5 -32.5t-43 -17z" />
    <glyph glyph-name="semicolon" unicode=";" horiz-adv-x="292" 
d="M244 223l-45 -334l-145 -3l-4 344zM161 365q-5 -1 -9 -1.5t-9 -0.5q-21 0 -40.5 8.5t-34.5 23t-25.5 33.5t-14.5 40q-4 26 4.5 50.5t25.5 43.5t40 31.5t47 15.5q3 0 6 0.5t6 0.5q21 0 39.5 -8t32.5 -22t23.5 -33t12.5 -41q3 -25 -4.5 -48.5t-22 -43t-34.5 -32.5t-43 -17z
" />
    <glyph glyph-name="less" unicode="&#x3c;" horiz-adv-x="407" 
d="M286 111l-264 254l255 278q25 -23 51.5 -48.5t52.5 -49.5l-168 -174q45 -41 86.5 -78.5t85.5 -78.5z" />
    <glyph glyph-name="equal" unicode="=" horiz-adv-x="452" 
d="M424 328l2 -130l-395 -8l-5 119zM424 527l2 -141l-395 -8l-5 131z" />
    <glyph glyph-name="greater" unicode="&#x3e;" horiz-adv-x="407" 
d="M120 643l265 -255q-63 -69 -128 -139t-129 -139l-102 99l168 173q-45 42 -86.5 79.5t-86.5 77.5z" />
    <glyph glyph-name="question" unicode="?" horiz-adv-x="436" 
d="M177 -16h-8q-30 0 -51 9.5t-34.5 25.5t-19 36t-4.5 41t8.5 40.5t20.5 35t31.5 25t40.5 9.5q48 0 79 -31t36 -77q2 -21 -3 -41t-17.5 -35.5t-32 -26t-46.5 -11.5zM93 278q14 50 39 89t50.5 71.5t45 61.5t20.5 58q4 38 -20 63.5t-68 25.5q-36 0 -69.5 -13.5t-64.5 -30.5
l-48 145q51 29 104 43t101 14q47 0 88 -15t72.5 -43t49.5 -69t18 -95q0 -53 -20 -98t-48 -84t-56 -73.5t-45 -67.5z" />
    <glyph glyph-name="at" unicode="@" horiz-adv-x="986" 
d="M567 301q-26 -5 -54.5 -15t-52 -26.5t-38.5 -39t-15 -51.5q0 -28 15 -44t36 -16q18 0 34 8t30 20t25 27.5t18 30.5zM963 352q3 -48 -3 -105.5t-27 -109.5t-58.5 -91.5t-97.5 -51.5q-13 -3 -25 -4t-25 -1q-37 2 -69 23.5t-50 60.5q-32 -43 -78 -63.5t-94 -20.5
q-35 0 -68 11t-58.5 32.5t-41 54t-15.5 74.5q0 103 82 168.5t231 92.5q-14 32 -33 46.5t-42 14.5q-32 0 -69.5 -21.5t-79.5 -55.5l-55 94q66 55 125.5 80t110.5 25q21 0 44 -5q67 -17 106.5 -69.5t39.5 -146.5q0 -41 -3 -77.5t-3 -66.5q0 -56 15.5 -83t36.5 -27
q26 0 49.5 39.5t26.5 117.5q2 66 -14 131.5t-54 118t-99.5 86.5t-148.5 38h-16q-85 0 -152 -39t-112 -101t-66.5 -138t-14.5 -151q11 -123 81 -204.5t203 -101.5q10 -3 20 -4t21 -1q32 0 63 9t58 17l41 -111q-41 -12 -80.5 -16.5t-81.5 -4.5q-127 2 -217.5 46t-146.5 115
t-79 160.5t-16 181.5q8 88 42.5 171.5t94.5 149t144.5 105.5t192.5 41q119 2 204.5 -34t141.5 -96t84.5 -139t34.5 -164z" />
    <glyph glyph-name="A" unicode="A" horiz-adv-x="638" 
d="M232 236l186 14l-75 325zM252 776q45 -3 85.5 -6t82.5 -5l227 -765q-41 -8 -80.5 -16.5t-80.5 -18.5l-33 137l-270 -14l-39 -123l-142 20z" />
    <glyph glyph-name="B" unicode="B" horiz-adv-x="610" 
d="M196 124q18 -2 29.5 -1.5t22.5 -0.5h5q39 0 69 10t50 25.5t31 34.5t12 38q3 35 -23.5 68.5t-76.5 50.5l-123 -27zM392 588q-1 27 -19 44.5t-66 17.5q-23 0 -53.5 -4t-68.5 -15l4 -165q59 7 98 18.5t62 27.5t33 35t10 41zM450 417q66 -30 98.5 -82t32.5 -106
q-1 -45 -25 -90t-70.5 -80.5t-115.5 -57.5t-162 -22l-157 4l-22 771q11 0 43.5 3.5t73 8t82.5 8t72 3.5q54 0 99 -9t77.5 -30t50.5 -56t18 -86q0 -58 -25 -102t-70 -77z" />
    <glyph glyph-name="C" unicode="C" horiz-adv-x="556" 
d="M479 578q-26 29 -54.5 42t-59.5 13h-9t-9 -1q-34 -2 -65.5 -22t-55 -56t-37 -88.5t-12.5 -119.5q2 -56 13.5 -97.5t31 -69.5t45.5 -42t55 -16q89 0 145 68l75 -117q-41 -51 -100 -78.5t-124 -27.5q-54 0 -106 22.5t-92.5 68t-65.5 115.5t-25 164q0 114 26 198t69 139.5
t99 83.5t116 31q5 1 10.5 1h10.5q54 0 106.5 -20t97.5 -56z" />
    <glyph glyph-name="D" unicode="D" 
d="M199 124q5 0 9.5 -0.5t9.5 -0.5q59 0 102 20t71.5 57t42 88.5t13.5 114.5q0 45 -9 87.5t-30 75.5t-55 53.5t-84 20.5q-22 0 -44 -3t-45 -7zM272 778q86 -6 148.5 -39.5t103.5 -87.5t60.5 -125.5t20.5 -154.5q1 -92 -29.5 -166t-83.5 -125.5t-125 -79.5t-153 -28l-165 10
l-20 772q4 0 28.5 3.5t58 8.5t71 9t67.5 4q5 0 9 -0.5t9 -0.5z" />
    <glyph glyph-name="E" unicode="E" horiz-adv-x="539" 
d="M428 475q2 -35 4 -71t4 -71q-64 -5 -126.5 -10t-125.5 -9l-5 -189l318 19q4 -40 7.5 -77.5t5.5 -75.5q-120 -7 -240 -12t-241 -10l17 812l451 -13q-2 -35 -3 -67.5t-2 -67.5l-298 11l-7 -182z" />
    <glyph glyph-name="F" unicode="F" horiz-adv-x="487" 
d="M428 390l-8 -145l-231 10q-2 -69 -3 -136.5t-3 -135.5q-38 1 -76.5 2t-77.5 3q5 195 9 389.5t9 390.5l454 -12q-2 -35 -5 -69t-6 -69l-292 9l-6 -226z" />
    <glyph glyph-name="G" unicode="G" horiz-adv-x="608" 
d="M506 590q-58 46 -122 46q-41 0 -79.5 -18.5t-68.5 -55.5t-48.5 -92t-18.5 -127q0 -58 15 -102t39 -73t55.5 -43.5t64.5 -14.5q40 0 76 25l15 158l-120 10l18 129l246 -12q-6 -88 -12 -174t-12 -174q-42 -52 -99 -79t-120 -27q-78 0 -135.5 31t-96 82.5t-57 118.5
t-18.5 138q0 121 30 206.5t78.5 139.5t111 78.5t128.5 24.5q54 0 105.5 -15.5t96.5 -46.5z" />
    <glyph glyph-name="H" unicode="H" horiz-adv-x="610" 
d="M581 -12l-151 -4l-12 310l-224 -11l10 -292l-160 -19q-4 200 -8 393.5t-8 393.5l156 11l8 -335l223 16l-14 317h159z" />
    <glyph glyph-name="I" unicode="I" horiz-adv-x="351" 
d="M263 -14q-41 -1 -79.5 -1t-79.5 -1l-30 784h168z" />
    <glyph glyph-name="J" unicode="J" horiz-adv-x="547" 
d="M467 778q8 -40 17 -89t16.5 -103t12.5 -110t5 -111q0 -42 -4.5 -87.5t-15.5 -90t-29.5 -84t-47 -70t-68 -48t-92.5 -17.5q-44 0 -86.5 14t-78.5 37.5t-63 54.5t-39 65q28 26 53 51l51 51q27 -51 64 -79.5t74 -32.5h9q29 0 53 15.5t41.5 44.5t27 69.5t9.5 91.5
q0 54 -12 121.5t-31 153.5l-244 -17q-2 39 -3.5 76.5t-3.5 76.5z" />
    <glyph glyph-name="K" unicode="K" horiz-adv-x="642" 
d="M187 766q0 -86 1 -176.5t3 -175.5l295 374l125 -84l-247 -311l285 -336l-123 -107l-335 399l8 -361q-41 -2 -79.5 -4.5t-80.5 -4.5q-2 195 -5.5 388t-5.5 390z" />
    <glyph glyph-name="L" unicode="L" horiz-adv-x="519" 
d="M34 767q42 0 80.5 0.5t78.5 1.5l-6 -634l322 9q-2 -39 -3.5 -77.5t-3.5 -76.5l-473 -3z" />
    <glyph glyph-name="M" unicode="M" horiz-adv-x="800" 
d="M607 487q-32 -101 -68 -208t-68 -210q-37 1 -73.5 2.5t-74.5 2.5l-130 413l-4 -502q-40 2 -79.5 3.5t-80.5 3.5q4 189 9 375t9 377l208 10l146 -503l145 493q52 2 104.5 4.5t103.5 5.5q4 -188 9 -374t9 -375q-41 -3 -80 -5t-81 -7z" />
    <glyph glyph-name="N" unicode="N" horiz-adv-x="613" 
d="M585 -12l-70 -2l-70 -2l-260 468q3 -116 6 -230.5t6 -232.5l-161 -17l-6 758l148 58l254 -493l-15 466q38 2 77.5 3.5t79.5 3.5z" />
    <glyph glyph-name="O" unicode="O" horiz-adv-x="699" 
d="M337 141q5 -1 9 -1h9q35 0 62 19t46 50t30 71.5t14 83.5q2 44 -5 88t-24.5 80t-44.5 61.5t-65 32.5q-5 1 -9.5 1.5t-9.5 0.5q-34 0 -62 -19.5t-48.5 -51t-33 -72.5t-17.5 -85q-4 -44 2.5 -88t24.5 -80t48 -60.5t74 -30.5zM353 780q81 0 141 -35t99.5 -92.5t58 -130.5
t17.5 -150q-1 -75 -21.5 -146.5t-59.5 -127.5t-96 -90.5t-131 -34.5q-84 0 -146.5 35.5t-104 93t-62 130.5t-19.5 148q2 76 23 148t61.5 128t100.5 90t139 34z" />
    <glyph glyph-name="P" unicode="P" horiz-adv-x="594" 
d="M194 369q8 0 15.5 -0.5t15.5 -0.5q36 0 71.5 6t64.5 22t49 44.5t25 73.5q4 30 -4.5 54t-27 41t-45 27.5t-59.5 13.5q-7 1 -14 1.5t-15 0.5q-19 0 -39.5 -2.5t-41.5 -6.5zM30 757q63 19 123.5 28t116.5 9q70 0 128.5 -16.5t101 -49.5t66.5 -84.5t24 -122.5
q0 -75 -25.5 -130t-70 -91t-104.5 -53t-129 -17q-16 0 -32 1t-33 3l4 -246q-41 -2 -79 -4t-80 -4z" />
    <glyph glyph-name="Q" unicode="Q" horiz-adv-x="699" 
d="M337 141q4 -1 8 -1h8q38 0 68.5 23t50.5 61t29.5 86t6.5 97q-1 34 -10.5 73t-28.5 72t-48 54.5t-71 21.5q-37 0 -68.5 -23.5t-53.5 -61.5t-33.5 -86.5t-10.5 -99.5q2 -39 11.5 -76t28.5 -66t47 -49t66 -25zM633 -7q-28 -29 -55 -57.5t-55 -58.5l-110 100q-15 -2 -30 -2.5
t-31 -0.5q-84 2 -147 40t-103.5 97.5t-58.5 134.5t-14 151q4 74 26 143t62.5 122.5t99.5 86t136 32.5q74 0 130.5 -28.5t95.5 -76.5t60.5 -110t26.5 -130q5 -52 -1 -104.5t-22 -100t-41.5 -88t-60.5 -69.5z" />
    <glyph glyph-name="R" unicode="R" horiz-adv-x="638" 
d="M193 420q33 -3 62 -3q88 0 130.5 27t49.5 84q4 30 -4.5 53t-26.5 39t-44 24.5t-59 9.5q-29 0 -56.5 -2.5t-55.5 -8.5q1 -57 1.5 -112.5t2.5 -110.5zM29 756q69 20 133.5 30.5t123.5 10.5q64 0 119 -14.5t96 -46t64.5 -81t23.5 -120.5q0 -85 -35 -139.5t-96 -82.5
l192 -257q-30 -25 -61 -51.5t-63 -53.5q-60 83 -119.5 164t-119.5 166q-23 0 -45.5 1t-47.5 3q2 -75 3 -149.5t2 -148.5q-41 -2 -79 -4t-79 -4z" />
    <glyph glyph-name="S" unicode="S" 
d="M228 562q-1 -17 8 -30.5t26 -24t40 -20t49 -19.5h-1q42 -14 87.5 -31.5t83.5 -46t61.5 -70.5t21.5 -104q-4 -63 -29 -109t-64 -76.5t-88.5 -46t-102.5 -17.5q-39 0 -80 5.5t-79.5 19.5t-72 37t-57.5 57q20 27 41.5 56t42.5 58q32 -38 80 -59.5t105 -21.5q5 0 9 0.5t9 0.5
q32 2 57 11t41 24t23 34t2 40q-6 30 -36.5 49t-71.5 35t-87 33.5t-84 44t-62 67t-21 101.5q2 57 24.5 99.5t58.5 70.5t81.5 42t93.5 14q63 0 124.5 -20t109.5 -63l-88 -131q-26 30 -61 45.5t-69 19.5q-15 3 -29 3q-38 0 -66 -19.5t-30 -57.5z" />
    <glyph glyph-name="T" unicode="T" horiz-adv-x="484" 
d="M510 609l-188 5q-3 -157 -6.5 -315t-6.5 -316q-39 1 -77 2t-78 3l13 632l-190 -5l8 160q137 -5 269.5 -9.5t266.5 -8.5z" />
    <glyph glyph-name="U" unicode="U" horiz-adv-x="637" 
d="M608 750q-2 -114 -6 -233t-6 -234q-1 -64 -23 -119.5t-61 -96t-92.5 -64t-119.5 -23.5q-74 1 -127.5 27t-87 70.5t-47 105t-8.5 131.5q5 76 8 152t5 137.5t3 101.5t1 43q38 2 75.5 3.5t75.5 3.5q-2 -112 -4 -222.5t-4 -222.5q-4 -85 20.5 -126.5t89.5 -45.5h11
q56 0 88.5 39.5t35.5 127.5q2 114 5 225.5t6 225.5z" />
    <glyph glyph-name="V" unicode="V" horiz-adv-x="594" 
d="M427 -12l-245 11q-53 194 -99.5 383.5t-100.5 381.5q37 5 73 9t73 8l173 -628q19 72 38 151t38 160t38 160.5t37 152.5q39 -8 79 -14.5t79 -13.5z" />
    <glyph glyph-name="W" unicode="W" horiz-adv-x="825" 
d="M847 752l-157 -748q-51 -3 -106 -4t-104 -3l-73 368q-21 -97 -35 -184.5t-32 -176.5l-214 -7q-18 94 -35 186t-33 183.5t-33 183.5t-35 186q38 8 70 14.5t69 14.5l107 -586l104 503l149 10l93 -509l130 585z" />
    <glyph glyph-name="X" unicode="X" horiz-adv-x="604" 
d="M599 704l-206 -302l235 -337q-33 -25 -63.5 -49t-62.5 -49l-197 303l-205 -304l-126 99l237 343l-212 287l127 91l176 -251l173 251z" />
    <glyph glyph-name="Y" unicode="Y" horiz-adv-x="563" 
d="M590 689q-57 -95 -112 -196.5t-112 -195.5l-5 -314q-41 1 -79 2t-77 3l7 307l-233 398l133 80l173 -320q44 75 87 156t88 155z" />
    <glyph glyph-name="Z" unicode="Z" horiz-adv-x="592" 
d="M579 124v-136l-529 6q-9 34 -18 65.5t-17 63.5l367 482h-347v144l495 -5l41 -115l-194 -252t-192 -253h394z" />
    <glyph glyph-name="bracketleft" unicode="[" horiz-adv-x="413" 
d="M424 813q-2 -38 -3.5 -75.5t-3.5 -77.5l-181 -5l-9 -711l156 6q2 -38 2.5 -75.5t2.5 -77.5q-79 -4 -157.5 -6t-157.5 -2q4 250 6.5 502t7.5 502l151 14z" />
    <glyph glyph-name="backslash" unicode="\" horiz-adv-x="704" 
d="M180 881l496 -1013l-144 -63l-496 1005z" />
    <glyph glyph-name="bracketright" unicode="]" horiz-adv-x="413" 
d="M-33 -211q2 39 3.5 76t3.5 78l182 4l8 711l-155 -6q-2 39 -2.5 76t-2.5 78q66 2 128 5t127 3h29t31 -1q-5 -249 -7.5 -501t-6.5 -502l-151 -14z" />
    <glyph glyph-name="asciicircum" unicode="^" horiz-adv-x="443" 
d="M342 495l-121 88l-121 -88l-78 108l199 180q48 -43 99 -89t100 -91z" />
    <glyph glyph-name="underscore" unicode="_" horiz-adv-x="464" 
d="M441 40q-1 -38 -2 -80.5t-2 -81.5q-101 -3 -204.5 -4.5t-204.5 -3.5q-2 39 -1.5 77t-0.5 80z" />
    <glyph glyph-name="grave" unicode="`" horiz-adv-x="355" 
d="M332 703q-20 -25 -39.5 -54t-39.5 -56q-57 41 -116 84.5t-116 84.5q26 29 54 62t55 64z" />
    <glyph glyph-name="a" unicode="a" horiz-adv-x="557" 
d="M339 197v60t3 39q-28 -5 -57 -14.5t-53 -25t-39 -37t-15 -50.5q0 -28 15.5 -43t37.5 -15q18 0 34.5 8t30.5 20t25 27.5t18 30.5zM60 518q66 55 124.5 80t109.5 25q50 0 86 -20.5t59.5 -54.5t35 -76.5t11.5 -87.5q0 -42 -2.5 -78t-2.5 -68q0 -47 12.5 -79t57.5 -55
q-21 -27 -45 -56t-45 -57q-36 12 -59.5 29.5t-38.5 43.5q-71 -76 -152 -81h-12q-35 0 -66.5 12.5t-55 35.5t-37.5 56t-14 74q0 103 80.5 167.5t235.5 91.5q-7 35 -24.5 50.5t-46.5 15.5q-21 0 -43 -6.5t-43 -16.5t-39.5 -23t-33.5 -27z" />
    <glyph glyph-name="b" unicode="b" horiz-adv-x="548" 
d="M282 120q19 0 34 21t25.5 52t16.5 68t6 68q0 75 -12.5 114t-51.5 39q-29 0 -58 -35.5t-55 -96.5l3 -215q51 -15 92 -15zM176 816l6 -275q23 35 57 55.5t66 23.5q4 0 8 0.5t8 0.5q36 0 72 -15t64.5 -49t46.5 -88t18 -131q0 -177 -60 -268t-162 -91q-37 0 -66 2.5t-56.5 8
t-58 14t-70.5 19.5q-6 189 -11.5 380t-11.5 380z" />
    <glyph glyph-name="c" unicode="c" horiz-adv-x="518" 
d="M385 398q-14 40 -39 67t-70 27q-27 0 -48.5 -14.5t-35.5 -41t-20.5 -63.5t-4.5 -82q2 -77 33.5 -124.5t81.5 -47.5q21 0 38.5 9t30.5 22t22 28t14 28l122 -78q-12 -24 -32 -50t-48 -48t-65.5 -36.5t-84.5 -14.5q-73 -1 -125 33.5t-84 90t-43.5 123.5t-2.5 135
q7 52 26.5 99t51.5 82.5t76 56.5t100 21q50 0 87.5 -12.5t65 -33.5t46 -49t29.5 -60z" />
    <glyph glyph-name="d" unicode="d" horiz-adv-x="604" 
d="M546 815q-4 -95 -8 -188q-1 -40 -2.5 -83t-2 -85.5t-1 -82.5t-0.5 -74q0 -22 -0.5 -49.5t5 -53t20 -45.5t44.5 -27l-56 -134q-15 1 -33 5t-36.5 13t-36 24t-32.5 37q-29 -46 -66 -69.5t-89 -23.5q-51 0 -91 21.5t-68 58t-44.5 84.5t-21.5 100q-6 67 5.5 134.5t40 121.5
t74 88t108.5 33q19 0 38.5 -4.5t37.5 -13t32 -21t21 -29.5q2 47 2.5 92t1.5 81q1 41 2 79v-8zM279 124q29 0 48 19t31 46t17 57t6 52q3 78 -22.5 125.5t-70.5 47.5q-24 0 -42.5 -13.5t-32 -37t-20.5 -53.5t-9 -62q-2 -34 3 -66.5t17 -58t31 -41t44 -15.5z" />
    <glyph glyph-name="e" unicode="e" horiz-adv-x="554" 
d="M378 368q0 20 -5 39t-15.5 34t-26.5 24.5t-39 9.5q-36 0 -65 -25t-37 -73zM274 118q15 0 28.5 2t28 8.5t31 19t36.5 32.5l102 -91q-37 -50 -92 -81.5t-133 -31.5q-65 0 -112.5 28t-78.5 74.5t-45 105.5t-12 121q2 60 20.5 117t52.5 101.5t83.5 71.5t115.5 27
q77 0 127.5 -35.5t76 -91.5t26.5 -124.5t-20 -134.5q-85 1 -167 0.5t-167 1.5q4 -52 30.5 -86t68.5 -34z" />
    <glyph glyph-name="f" unicode="f" horiz-adv-x="390" 
d="M389 411l-136 -15q0 -20 -1 -41.5t-1 -45.5q0 -91 3.5 -197t8.5 -215q-38 -5 -78 -8t-79 -8q-3 81 -6 166q-2 73 -4 161t-4 171q-18 -2 -36.5 -4t-35.5 -4q-5 36 -9.5 75t-8.5 77l90 10q0 17 0.5 31.5t1.5 28.5q3 59 20.5 101.5t44.5 69.5t62 40t72 13q19 0 37 -4t36 -10
l-11 -144q-10 3 -19 5t-18 2q-14 0 -26 -5.5t-20.5 -19t-12.5 -35.5t-3 -55l118 13z" />
    <glyph glyph-name="g" unicode="g" horiz-adv-x="579" 
d="M394 362q-4 23 -12 43.5t-21 36t-31.5 24.5t-44.5 9q-25 -2 -42.5 -16.5t-28 -36.5t-16 -49.5t-6.5 -57.5q-4 -100 24.5 -148t82.5 -48q24 0 42.5 14t31.5 34.5t20.5 44.5t8.5 44q-2 26 -4 52.5t-4 53.5zM526 602q3 -27 7.5 -73.5t8.5 -103.5t7 -119.5t3 -121.5t-3 -108
t-12 -83q-25 -95 -95 -146.5t-166 -51.5q-50 0 -98.5 14t-91.5 37l56 132q62 -38 124 -38q28 0 53 9t43.5 27t29.5 45t11 64q-29 -41 -71 -62.5t-88 -21.5q-40 0 -78 18t-67.5 56t-47 97.5t-16.5 143.5q0 56 13 109.5t39.5 95.5t66.5 69.5t94 31.5q5 1 8.5 1h8.5
q45 0 83 -20.5t56 -55.5l11 53z" />
    <glyph glyph-name="h" unicode="h" horiz-adv-x="547" 
d="M201 807l-17 -280q23 40 60.5 64t88.5 25q95 -1 142.5 -81t45.5 -258q-2 -57 -6.5 -127.5t-13.5 -152.5l-160 -7q10 116 17 212.5t1 163.5q-5 50 -20.5 76t-44.5 27q-21 0 -37.5 -14t-29 -35t-21 -45.5t-13.5 -47.5q-2 -85 -2.5 -167.5t-2.5 -165.5q-38 -2 -80.5 -2.5
t-81.5 -2.5q4 198 6.5 402.5t7.5 403.5z" />
    <glyph glyph-name="i" unicode="i" horiz-adv-x="233" 
d="M207 689q0 -19 -7 -35.5t-19.5 -29t-29 -19.5t-35.5 -7t-35.5 7t-28.5 19.5t-19 29t-7 35.5q0 18 7 34t19 28.5t28.5 19.5t35.5 7t35.5 -7t29 -19.5t19.5 -28.5t7 -34zM195 545l6 -548q-42 -1 -84.5 -2t-84.5 -2v571z" />
    <glyph glyph-name="j" unicode="j" horiz-adv-x="238" 
d="M198 563v-552q0 -41 -12.5 -78t-37.5 -67t-62 -51t-86 -30q-11 34 -21.5 72t-21.5 73q45 9 62 29.5t17 62.5l4 537zM212 689q0 -19 -7 -35.5t-19.5 -29t-29 -19.5t-35.5 -7t-35.5 7t-28.5 19.5t-19 29t-7 35.5q0 18 7 34t19 28.5t28.5 19.5t35.5 7t35.5 -7t29 -19.5
t19.5 -28.5t7 -34z" />
    <glyph glyph-name="k" unicode="k" horiz-adv-x="546" 
d="M186 807l5 -423l209 242l119 -101q-50 -55 -97 -111t-98 -112l252 -218l-120 -116l-262 247l4 -221l-161 -10q-4 201 -6 405.5t-5 405.5z" />
    <glyph glyph-name="l" unicode="l" horiz-adv-x="227" 
d="M201 807l-13 -812q-38 -2 -80.5 -5.5t-81.5 -5.5q4 201 6.5 405.5t7.5 405.5z" />
    <glyph glyph-name="m" unicode="m" horiz-adv-x="774" 
d="M34 -4q-3 149 -4.5 301t-3.5 302q39 1 70.5 2t71.5 2l5 -69q22 39 53 60.5t73 21.5q40 0 75.5 -20.5t51.5 -58.5q24 37 60.5 58t77.5 21q55 0 89 -23t53.5 -59t27.5 -81t11 -90q4 -68 0 -158.5t-17 -208.5q-36 1 -75.5 2t-77.5 2q4 80 7 155t3 132q-2 88 -12.5 136.5
t-38.5 48.5q-25 0 -41.5 -22t-26.5 -54q5 -85 -1 -182.5t-14 -217.5q-37 1 -76 2l-78 2q7 108 14.5 196.5t7.5 154.5q0 57 -12 89t-43 32q-18 0 -31.5 -13t-22.5 -34t-14.5 -46.5t-7.5 -51.5l-2 -333z" />
    <glyph glyph-name="n" unicode="n" horiz-adv-x="545" 
d="M36 604q38 -2 71 -3.5t72 -3.5l6 -67q24 38 61 62t84 24h9.5t9.5 -1q85 -11 127 -71.5t42 -177.5q1 -71 -8 -165t-27 -219q-36 5 -75 8t-77 8q14 109 24.5 198t9.5 154q-2 57 -15 89.5t-45 34.5q-37 0 -59.5 -23t-35.5 -56t-18 -69.5t-6 -63.5q-6 -74 -6 -137.5
t-2 -129.5h-152z" />
    <glyph glyph-name="o" unicode="o" horiz-adv-x="576" 
d="M279 124q3 -1 6.5 -1h6.5q23 0 41.5 12t32 32t21.5 46.5t11 54.5q3 34 -1 67.5t-16.5 62t-33 48t-49.5 24.5q-4 1 -12 1q-21 0 -39 -11t-32.5 -30t-24 -44t-13.5 -53q-7 -34 -5 -69.5t14.5 -65t35.5 -50t57 -24.5zM286 620q70 0 120.5 -29t83.5 -75.5t47.5 -105.5
t12.5 -120q-2 -59 -19.5 -115t-50 -99.5t-81.5 -70t-114 -26.5q-68 2 -117.5 31t-81.5 75.5t-46.5 104.5t-12.5 118q2 59 19 115.5t50 100t80.5 70t109.5 26.5z" />
    <glyph glyph-name="p" unicode="p" horiz-adv-x="558" 
d="M197 247q3 -19 9 -40.5t16.5 -39.5t26.5 -30t40 -12q21 0 37.5 14.5t27 38t16.5 54t6 62.5q1 33 -4.5 65t-16.5 57.5t-27.5 40.5t-39.5 15t-38.5 -11.5t-25.5 -28.5t-16 -38t-9 -39zM163 597l22 -45q23 35 58.5 52t77.5 17q55 -2 95.5 -31.5t67 -76t39.5 -105.5t11 -120
q-2 -59 -16.5 -114.5t-41 -98t-65 -68t-89.5 -25.5q-44 0 -75 21.5t-54 56.5q0 -29 -0.5 -64.5t-1 -72.5t-1 -73t-0.5 -64l-162 -8q4 200 6.5 404.5t7.5 404.5z" />
    <glyph glyph-name="q" unicode="q" horiz-adv-x="554" 
d="M265 469q-21 0 -36.5 -12.5t-27 -33.5t-17.5 -48.5t-7 -57.5q0 -34 5.5 -66.5t16.5 -58t28.5 -41.5t40.5 -16q22 0 38 11.5t26.5 29.5t17 38.5t9.5 38.5q-2 20 -1.5 39t-0.5 39q-9 64 -31 101t-61 37zM523 -222l-156 8l-5 273q-18 -37 -48 -57.5t-63 -21.5q-61 0 -104 28
t-70 72.5t-40 98.5t-15 106q-2 60 10.5 118.5t39 105t67 76t95.5 30.5q46 0 78.5 -16.5t52.5 -52.5l3 46q36 1 69.5 2t71.5 2z" />
    <glyph glyph-name="r" unicode="r" horiz-adv-x="349" 
d="M26 592l119 10l16 -64q31 39 69.5 58t80.5 19q23 0 47 -6q2 -38 4 -79.5t4 -80.5q-24 8 -44 8q-29 0 -53 -13t-42 -34t-29.5 -48t-14.5 -56l11 -311h-160z" />
    <glyph glyph-name="s" unicode="s" horiz-adv-x="464" 
d="M366 435q-32 20 -63 30t-57 10q-44 0 -55 -29q-7 -22 10 -36.5t47 -28t66.5 -29t68 -39.5t51.5 -59t18 -88q-1 -49 -20 -84.5t-50.5 -58.5t-72.5 -34t-86 -11q-34 0 -69.5 6.5t-68.5 20t-62.5 33.5t-51.5 47l79 122q23 -29 52 -47.5t59 -27.5q27 -6 52 -6q34 0 57 10.5
t25 30.5q3 20 -13 35t-43 29t-59.5 29t-62.5 35q-39 26 -60 59.5t-24.5 69t8.5 69.5t39.5 61t68.5 43.5t95 16.5q48 0 98 -12.5t91 -37.5z" />
    <glyph glyph-name="t" unicode="t" horiz-adv-x="365" 
d="M257 211q0 -21 2.5 -36t10.5 -26t22.5 -17.5t38.5 -10.5q-11 -34 -21.5 -74.5t-21.5 -75.5q-54 6 -92 27t-62 51.5t-34.5 68.5t-10.5 79v242l-74 -7l-14 151l101 12l19 116q29 3 65 5t66 4q0 -26 0.5 -53.5t0.5 -54.5l94 13l15 -153l-108 -13z" />
    <glyph glyph-name="u" unicode="u" horiz-adv-x="524" 
d="M489 -5q-32 2 -68 2.5t-69 2.5l-8 62q-29 -41 -63 -59.5t-84 -18.5q-42 3 -74 24t-53.5 62.5t-32 104t-10.5 149.5q0 60 4 124t15 148q38 2 81.5 4t82.5 4q-5 -36 -11.5 -84t-11 -98.5t-6 -100t4 -89t19.5 -64.5t39 -28q22 0 38.5 9.5t28 25t18 35t6.5 39.5l11 355h152z
" />
    <glyph glyph-name="v" unicode="v" horiz-adv-x="516" 
d="M147 604l104 -390q17 53 32.5 101t30.5 94.5t30 93.5t32 99q38 -4 77 -6.5t78 -5.5q-48 -146 -99 -297.5t-100 -298.5q-42 -2 -86.5 -5t-87.5 -5q-42 142 -84 286t-85 287z" />
    <glyph glyph-name="w" unicode="w" horiz-adv-x="688" 
d="M698 590l-122 -596l-178 -11l-67 286l-72 -274l-179 -11l-84 573l152 48l39 -364l84 321l140 11l71 -367q11 81 27 184t33 212z" />
    <glyph glyph-name="x" unicode="x" horiz-adv-x="514" 
d="M524 574l-169 -257l175 -261q-34 -20 -74.5 -42t-75.5 -42l-126 191l-132 -198q-36 14 -74.5 26.5t-75.5 26.5l189 285q-40 61 -80.5 122.5t-80.5 121.5q35 15 78.5 31.5t79.5 32.5l102 -155l107 161z" />
    <glyph glyph-name="y" unicode="y" horiz-adv-x="536" 
d="M547 583q-74 -198 -148.5 -402.5t-148.5 -403.5q-35 13 -72.5 26t-72.5 27l71 196l-194 513l156 72q31 -91 59.5 -183.5t57.5 -183.5l139 379z" />
    <glyph glyph-name="z" unicode="z" horiz-adv-x="478" 
d="M435 604q8 -33 17 -69.5t17 -70.5l-265 -326q36 3 68 5t63.5 3.5t63 3.5t66.5 4q5 -37 9 -76.5t9 -77.5q-115 -2 -235 -5t-236 -5q-2 31 -1.5 66t-0.5 67l283 341h-274q-1 34 -2 72.5t-2 74.5z" />
    <glyph glyph-name="braceleft" unicode="{" horiz-adv-x="461" 
d="M440 722q-36 -35 -60.5 -72t-46.5 -89q-6 -17 -9 -37.5t-6 -41.5q-3 -22 -6.5 -45t-11 -44.5t-19.5 -40.5t-32 -33q38 -20 48.5 -53t10.5 -72t-0.5 -79t15.5 -74q22 -47 49.5 -90.5t62.5 -76.5q-32 -20 -67 -43.5t-68 -43.5q-46 40 -86 88t-56 111q-10 41 -12.5 76
t-3 64.5t-1.5 52t-8.5 38.5t-24.5 24t-48 8q-8 0 -16.5 -0.5t-18.5 -1.5q2 34 3.5 69.5t3.5 70.5h15q38 0 60 13t34 34.5t17 50.5t9.5 60.5t10.5 63.5t21 61q21 38 48.5 72t65.5 66z" />
    <glyph glyph-name="bar" unicode="|" horiz-adv-x="227" 
d="M201 807l-13 -1017q-39 -2 -80 -5l-82 -6q4 252 6.5 507t7.5 507z" />
    <glyph glyph-name="braceright" unicode="}" horiz-adv-x="461" 
d="M20 -127q21 20 36.5 37.5t27.5 36.5t22.5 39.5t20.5 46.5q10 28 13.5 61t9.5 66t19.5 63.5t41.5 51.5q-24 13 -36 32t-17 42.5t-5.5 49.5t-0.5 52q0 78 -36.5 148t-90.5 122q32 21 67.5 43.5t68.5 43.5q45 -39 84.5 -88t56.5 -112q10 -41 12.5 -76t3 -64t2 -52t9 -38.5
t24.5 -23.5t48 -8q8 0 16.5 0.5t18.5 1.5q-2 -32 -4 -68t-4 -70q-5 0 -10 0.5t-10 0.5q-34 0 -53 -8t-29 -21.5t-13 -32t-5 -39.5q-7 -112 -50.5 -188.5t-111.5 -134.5z" />
    <glyph glyph-name="asciitilde" unicode="~" horiz-adv-x="512" 
d="M488 321q-25 -69 -64.5 -99t-85.5 -30q-35 0 -70 17t-64 49q-13 14 -27 14q-10 0 -19.5 -6.5t-17 -16.5t-13.5 -21t-9 -20q-23 20 -47.5 44t-47.5 46q15 24 33 46.5t39.5 40.5t47 29t55.5 11q31 -2 59.5 -19t53.5 -41q14 -14 29 -14q17 0 31.5 16.5t22.5 37.5z" />
    <glyph glyph-name="uni00A0" unicode="&#xa0;" horiz-adv-x="281" 
 />
    <glyph glyph-name="exclamdown" unicode="&#xa1;" horiz-adv-x="302" 
d="M146.008 491.014h-8q-31.998 0 -54.9961 9.99902q-22.999 9.99902 -36.998 26.998t-20.499 38.498q-6.49902 21.498 -5.49902 44.4971q1 21.999 8.49902 43.4971q7.5 21.499 21.499 37.998t33.498 26.998q19.499 10.5 43.4971 10.5q50.9971 0 85.9951 -32.498
t39.9971 -83.4951q2 -21.999 -3.5 -43.4971q-5.49902 -21.499 -18.998 -38.998q-13.5 -17.499 -34.498 -28.498q-20.999 -11 -49.9971 -11.999zM41.0137 -140.948l21.999 548.967l150.991 10.999q4.99902 -135.992 9.49902 -273.983t9.49902 -273.983z" />
    <glyph glyph-name="cent" unicode="&#xa2;" horiz-adv-x="493" 
d="M161 338q0 -45 15.5 -73.5t39.5 -39.5l6 262q-27 -20 -44 -55t-17 -94zM212 76q-37 7 -70.5 26t-59 50.5t-41 77t-15.5 104.5q0 68 16 121.5t43 92.5t63.5 63.5t77.5 33.5q1 30 1.5 52.5t1.5 50.5q26 -2 55.5 -4t57.5 -5l-2 -90q32 -5 65 -20t66 -38q-20 -30 -41 -62.5
t-42 -64.5q-32 33 -54 39l-8 -279q14 5 27.5 17t28.5 32l68 -120q-26 -31 -59.5 -50.5t-70.5 -26.5q-1 -27 -1.5 -50.5t-1.5 -49.5l-107 6z" />
    <glyph glyph-name="sterling" unicode="&#xa3;" horiz-adv-x="497" 
d="M72 367q0 43 4.5 84.5t16 78.5t31 68t49.5 52q27 19 54.5 27.5t53.5 8.5q32 0 62 -12.5t55.5 -33t45 -47t29.5 -55.5l-100 -99q-23 47 -42.5 71t-42.5 24q-2 0 -3 -0.5t-3 -0.5q-34 -5 -54 -44.5t-19 -101.5l105 16q2 -32 5 -69t6 -72l-103 -12q2 -11 3.5 -19l3 -16
t3 -17t4.5 -21q58 3 110 6.5t109 6.5l9 -144q-88 -4 -176 -7.5t-176 -8.5q-8 42 -17 94t-15 110l-40 -5q-4 30 -8 64.5t-7 66.5z" />
    <glyph glyph-name="currency" unicode="&#xa4;" horiz-adv-x="510" 
d="M229 335q8 -9 18 -14q2 -1 3 -1t3 -1h3q18 0 31.5 14t12.5 32q0 16 -14 29.5t-31 13.5q-17 -1 -29.5 -13.5t-13.5 -29.5q0 -18 12 -31q5 2 5 1zM320 205q-18 -7 -35 -9t-37 -2q-25 1 -46 8l-63 -67l-107 96l63 69q-10 19 -12.5 40.5t-0.5 43.5q1 11 4 21.5t6 18.5l-70 69
l96 107l83 -78q11 3 24 5t26 2q14 0 25.5 -2t22.5 -5l78 84q26 -25 55.5 -53t56.5 -54l-76 -80q4 -11 7 -22t4 -25q2 -17 0.5 -30t-3.5 -24l72 -65q-25 -26 -53 -55.5t-54 -55.5z" />
    <glyph glyph-name="yen" unicode="&#xa5;" horiz-adv-x="553" 
d="M207 267q0 11 0.5 20.5t0.5 20.5l-186 302q29 18 62.5 37.5t63.5 37.5l129 -228l132 223l121 -72l-177 -298q0 -5 -0.5 -10.5t-0.5 -11.5q18 4 34 6t32 5l11 -141l-80 -10q0 -26 -1 -52.5t-1 -52.5q-35 2 -72 2.5t-74 2.5l3 84q-17 -2 -31.5 -3.5t-29.5 -3.5l-14 131z
" />
    <glyph glyph-name="brokenbar" unicode="&#xa6;" horiz-adv-x="227" 
d="M34 333l6 460l161 14q-2 -115 -2.5 -234t-2.5 -234zM195 278l-7 -488q-39 -2 -80 -5l-82 -6l7 495z" />
    <glyph glyph-name="section" unicode="&#xa7;" horiz-adv-x="515" 
d="M231 392q-19 -13 -20 -27t10 -26.5t31 -23.5t42 -17q19 14 22 25.5t-7 22.5t-30 22t-48 24zM458 111q-2 -42 -19.5 -73.5t-45 -53t-63 -33t-74.5 -13.5q-5 0 -10 -0.5t-10 -0.5q-67 0 -132.5 26t-108.5 72q18 26 37 56t39 58q35 -39 79 -56t82 -17q9 0 21.5 1.5t23.5 5.5
t19.5 11t9.5 17q2 18 -14.5 31t-43 25.5t-58.5 26t-61 32.5t-51 44.5t-28 62.5q-4 38 8.5 72t44.5 60q-22 17 -32 44t-10 55q0 47 17 80t45.5 54t66 31t78.5 10q50 0 97.5 -13t85.5 -36l-64 -121q-22 14 -44 23.5t-42 13.5q-6 1 -13 1.5t-15 0.5q-17 0 -33 -5.5t-21 -23.5
q-6 -18 10 -31t44.5 -25.5t63 -27.5t64.5 -37t49.5 -55t17.5 -81q-2 -36 -15 -62t-33 -43q18 -18 29 -45.5t9 -60.5z" />
    <glyph glyph-name="dieresis" unicode="&#xa8;" horiz-adv-x="490" 
d="M285 649q-20 20 -27 41t-5 40q5 41 36.5 62.5t69.5 21.5q22 -1 41 -13.5t32 -31t18 -40t-1 -40.5q-9 -29 -32.5 -49t-53.5 -23q-2 0 -4.5 -0.5t-4.5 -0.5q-36 0 -69 33zM70 649q-22 23 -29.5 46t-2.5 44q8 32 36.5 53.5t62.5 21.5q17 0 34.5 -7.5t32.5 -20.5t24.5 -31.5
t9.5 -39.5q1 -35 -22.5 -62.5t-56.5 -34.5q-5 -1 -9 -1.5t-9 -0.5q-39 0 -71 33z" />
    <glyph glyph-name="copyright" unicode="&#xa9;" horiz-adv-x="881" 
d="M440 789q107 0 186 -39.5t131 -105t77.5 -149t25.5 -171.5q0 -90 -26.5 -176.5t-78 -154.5t-128 -109.5t-176.5 -41.5q-102 0 -183.5 36.5t-138.5 100t-87.5 149t-30.5 183.5q0 89 27.5 175t81.5 153.5t134.5 108.5t185.5 41zM439 670q-73 0 -128 -31t-92 -81.5t-56 -115
t-19 -131.5q0 -64 19.5 -125.5t57 -110.5t92 -81t125.5 -36q68 1 121.5 33t91 83.5t57 116t19.5 131.5q0 66 -17.5 128.5t-53 111.5t-89.5 78.5t-128 29.5zM635 466q-12 24 -29 49.5t-41 46.5t-55.5 34.5t-70.5 13.5q-58 0 -102 -25t-72.5 -66.5t-43 -93.5t-14.5 -106
q0 -55 14.5 -107.5t43.5 -93.5t73 -66t102 -25q37 0 67.5 15t55 36.5t43 46t31.5 43.5l-103 72q-6 -10 -16 -23.5t-23 -24.5t-28 -19t-30 -8q-24 0 -42.5 14t-31 36.5t-18.5 51.5t-6 59t6 59t18.5 51.5t31 36t42.5 13.5q15 0 30 -7.5t27.5 -19.5t23 -26.5t16.5 -28.5z" />
    <glyph glyph-name="ordfeminine" unicode="&#xaa;" horiz-adv-x="498" 
d="M296.535 395.662v51.0645q0 18.7227 2.63281 33.1914q-24.5742 -4.25586 -50.0273 -12.3408t-46.5176 -21.2764t-34.2295 -31.4902q-13.165 -18.2979 -13.165 -42.9785q0 -23.8301 13.6035 -36.5967q13.6045 -12.7666 32.9131 -12.7666q15.7988 0 30.2803 6.80859
q14.4824 6.80859 26.7695 17.0215t21.9424 23.4053q9.6543 13.1914 15.7979 25.958zM51.6611 668.856q57.9268 46.8096 109.271 68.0859t96.1064 21.2764q43.8848 0 75.4814 -17.4463q31.5967 -17.4473 52.2227 -46.3838q20.625 -28.9365 30.7188 -65.1074
q10.0928 -36.1699 10.0928 -74.4688q0 -35.7451 -2.19336 -66.3838q-2.19434 -30.6387 -2.19434 -57.873q0 -40.001 10.9707 -67.2354q10.9717 -27.2344 50.4668 -46.8086q-18.4307 -22.9785 -39.4951 -47.6602t-39.4961 -48.5117q-31.5967 10.2129 -52.2227 25.1074
q-20.625 14.8936 -33.791 37.0215q-62.3154 -64.6816 -133.408 -68.9375h-10.5322q-30.7188 0 -58.3662 10.6387q-27.6465 10.6387 -48.2725 30.2129q-20.626 19.5752 -32.9131 47.6602q-12.2871 28.0859 -12.2871 62.9805q0 87.6602 70.6533 142.555t206.694 77.873
q-6.14355 29.7871 -21.5029 42.9795q-15.3594 13.1914 -40.8125 13.1914q-18.4307 0 -37.7402 -5.53223q-19.3096 -5.53125 -37.7402 -14.043q-18.4316 -8.50977 -34.6689 -19.5742t-29.4023 -22.9785z" />
    <glyph glyph-name="guillemotleft" unicode="&#xab;" horiz-adv-x="684" 
d="M373 643q11 -10 22.5 -20.5t22.5 -21.5l39 42q25 -23 51.5 -48.5t52.5 -49.5l-168 -174q45 -41 86.5 -78.5t85.5 -78.5l-99 -103l-40 38l-47 -49l-260 261z" />
    <glyph glyph-name="logicalnot" unicode="&#xac;" horiz-adv-x="452" 
d="M424 436q1 -63 0.5 -131t1.5 -131q-33 -1 -69.5 -2t-71.5 -2q0 30 0.5 60.5t0.5 60.5q-66 -2 -127.5 -2.5t-127.5 -2.5q-2 32 -2.5 65.5t-2.5 66.5z" />
    <glyph glyph-name="uni00AD" unicode="&#xad;" horiz-adv-x="347" 
d="M321 400q-1 -38 -2 -80.5t-2 -81.5q-73 -3 -144 -4.5t-145 -3.5q-2 38 -1.5 77.5t-0.5 78.5z" />
    <glyph glyph-name="registered" unicode="&#xae;" horiz-adv-x="881" 
d="M11 311q0 89 27.5 175t81.5 153.5t134.5 108.5t185.5 41q107 0 186 -39.5t131 -105t77.5 -149t25.5 -171.5q0 -90 -26.5 -176.5t-78 -154.5t-128 -109.5t-176.5 -41.5q-102 0 -183.5 36.5t-138.5 100t-87.5 149t-30.5 183.5zM439 670q-54 0 -98 -17.5t-79 -47.5
q83 21 154 21q47 0 87.5 -11t69.5 -34t45.5 -60t16.5 -89q0 -63 -25 -104t-70 -61l125 -171q30 49 46 107.5t16 118.5q0 66 -17.5 128.5t-53 111.5t-89.5 78.5t-128 29.5zM273 21q33 -27 74.5 -43.5t90.5 -19.5q42 1 78.5 13.5t67.5 35.5q-42 60 -84 118t-84 118
q-32 0 -68 3q2 -56 2.5 -111t1.5 -110q-20 -1 -39.5 -2t-39.5 -2zM228 570q-42 -51 -63 -119t-21 -140q0 -71 23.5 -138t68.5 -118zM426 520q-21 0 -41 -1.5t-40 -6.5q0 -84 3 -165q13 -1 24.5 -1.5t22.5 -0.5q63 0 93 20t35 62q6 45 -21.5 68t-75.5 25z" />
    <glyph glyph-name="macron" unicode="&#xaf;" horiz-adv-x="433" 
d="M393 788q-1 -35 -2 -74t-2 -76q-86 -3 -174 -4.5t-175 -3.5q-2 35 -1.5 71t-0.5 74z" />
    <glyph glyph-name="degree" unicode="&#xb0;" horiz-adv-x="328" 
d="M136 530q13 -13 29 -13q11 0 20 6t14 15t4 20.5t-11 23.5q-12 15 -30 15q-11 0 -20.5 -6t-14.5 -16t-3.5 -21.5t12.5 -23.5zM164 415q-27 0 -53 11.5t-46.5 30.5t-33.5 44.5t-14 52.5q-1 32 9.5 58t29 44.5t44 29t54.5 11.5h4q32 0 61 -15t50 -39t31.5 -54.5t4.5 -62.5
q-5 -24 -18 -44.5t-32 -35.5t-42 -23t-49 -8z" />
    <glyph glyph-name="plusminus" unicode="&#xb1;" horiz-adv-x="452" 
d="M426 179q-1 -32 -2 -66.5t-2 -66.5l-396 -17q1 34 0.5 71t1.5 72zM157 496l-5 133q33 1 69 2t71 2l3 -131l129 6q1 -35 1 -70t1 -72l-128 -3l4 -125q-32 -2 -65.5 -3.5t-67.5 -3.5l-5 130l-133 -4q-2 32 -2.5 66t-2.5 67z" />
    <glyph glyph-name="twosuperior" unicode="&#xb2;" horiz-adv-x="434" 
d="M29 306q64 42 115 88t82.5 91t42 85t-6.5 68q-9 22 -24.5 30.5t-35.5 8.5q-32 0 -66 -15.5t-57 -28.5q-13 28 -28 57.5t-29 58.5q48 29 94 41t90 12q42 0 79 -13.5t64 -38t42.5 -60t15.5 -79.5q1 -78 -47 -150t-130 -135l178 3l-8 -131q-86 -2 -174.5 -2.5t-175.5 -2.5
l-7 71z" />
    <glyph glyph-name="threesuperior" unicode="&#xb3;" horiz-adv-x="448" 
d="M134 554q67 9 105.5 30.5t33.5 54.5q-5 37 -49 37h-6.5t-7.5 -1q-20 -2 -45 -12t-55 -30q-14 26 -29 55.5t-29 58.5q47 28 92.5 41t99.5 13q60 -5 102.5 -39.5t59.5 -100.5q8 -47 -8.5 -86.5t-50.5 -55.5q46 -25 64.5 -76.5t4.5 -109.5q-9 -35 -28 -61.5t-45.5 -44
t-58.5 -26t-67 -8.5q-8 0 -16 0.5t-16 2.5q-36 6 -65 22t-49 33q-24 19 -43 42q18 23 36 47t35 49q33 -41 61 -54t49 -15q3 -1 6.5 -1h6.5q23 0 41.5 10.5t25.5 33.5q4 16 -1.5 31t-18.5 27t-33 19t-45 7q-20 0 -37 -4z" />
    <glyph glyph-name="acute" unicode="&#xb4;" horiz-adv-x="355" 
d="M333 762q-56 -40 -115.5 -84t-116.5 -85q-20 26 -39 54.5t-39 55.5l201 184z" />
    <glyph glyph-name="mu" unicode="&#xb5;" horiz-adv-x="524" 
d="M164 -190h-152q6 88 7.5 185t3 197.5t6 202.5t17.5 201q38 2 79 4t80 4q-10 -94 -14 -173.5t-2 -133.5q1 -44 5 -73.5t12.5 -47t21 -25t30.5 -7.5h6q12 1 23.5 7t21 14t16.5 16t11 11q1 39 2 93.5t2.5 112.5t3 112.5t2.5 93.5h152l-9 -609q-32 2 -68 2.5t-69 2.5
q-2 9 -4 22t-4 24q-23 -28 -53 -46.5t-70 -18.5q-17 0 -38.5 9t-35.5 32z" />
    <glyph glyph-name="paragraph" unicode="&#xb6;" horiz-adv-x="606" 
d="M52 569q0 38 13 72t35.5 59.5t53 40t64.5 14.5l380 10v-132l-97 -6l-10 -837q-32 -2 -68 -5t-69 -6l10 839l-71 -5q-4 -209 -6 -411.5t-5 -411.5q-32 -2 -67 -5t-69 -6l7 617q-44 19 -72.5 66t-28.5 107z" />
    <glyph glyph-name="periodcentered" unicode="&#xb7;" horiz-adv-x="292" 
d="M143 260q-22 0 -41 9t-34 23.5t-25 33.5t-15 39q-4 26 4.5 50t25.5 43t40 31t47 15q5 1 14 1q42 0 71.5 -29t34.5 -73q3 -25 -4.5 -48.5t-22 -43t-34.5 -32.5t-43 -17q-5 -1 -9 -1.5t-9 -0.5z" />
    <glyph glyph-name="cedilla" unicode="&#xb8;" horiz-adv-x="423" 
d="M223 30l-14 -56q57 -21 80.5 -61t16.5 -81q-4 -24 -18 -46t-37.5 -38.5t-56 -26.5t-73.5 -10q-23 0 -44.5 3.5t-44.5 9.5l21 104q10 -2 25.5 -3.5t32.5 -1.5q22 0 40 5t20 21q1 7 -3.5 15t-16.5 15.5t-31.5 12.5t-49.5 7q9 36 16 74t16 76z" />
    <glyph glyph-name="onesuperior" unicode="&#xb9;" horiz-adv-x="324" 
d="M298 802q-4 -148 -6 -299.5t-5 -300.5q-32 -1 -67.5 -2t-69.5 -2l7 417l-56 -38q-20 20 -39.5 40t-40.5 42q35 32 73.5 67t73.5 68z" />
    <glyph glyph-name="ordmasculine" unicode="&#xba;" horiz-adv-x="500" 
d="M243 333q3 -1 10 -1q23 0 40.5 16.5t29 42.5t17 58.5t3.5 65.5q-1 27 -6.5 52.5t-16 45.5t-25.5 33.5t-35 17.5q-4 1 -11 1q-18 0 -33 -10.5t-26.5 -29t-20 -43t-12.5 -51.5q-4 -33 -2 -66.5t12.5 -61.5t29 -47t46.5 -23zM252 796q58 0 100 -26.5t69.5 -69.5t40 -98
t10.5 -112q-1 -55 -15 -107t-40 -92.5t-65 -65t-90 -24.5h-11q-59 1 -101.5 28t-70.5 69.5t-40.5 96.5t-11.5 110q1 55 16 107t43.5 93t70 66t95.5 25z" />
    <glyph glyph-name="guillemotright" unicode="&#xbb;" horiz-adv-x="682" 
d="M390 643l265 -255q-63 -69 -128 -139t-129 -139l-102 99l168 179q-45 42 -85 81t-85 79zM120 643l265 -255q-63 -69 -128 -139t-129 -139l-102 99l168 173q-45 42 -86.5 79.5t-86.5 77.5z" />
    <glyph glyph-name="onequarter" unicode="&#xbc;" horiz-adv-x="806" 
d="M595 81q0 22 0.5 44.5t1.5 43.5l-64 -92zM142 282l8 358l-54 -30q-18 16 -36.5 34t-37.5 35l131 131l132 -4q-4 -129 -6 -261t-5 -261zM716 625q-115 -155 -233 -312t-234 -312q-30 13 -62.5 26t-64.5 27q120 159 244 321.5t244 321.5zM586 384l145 4l-7 -300l48 4
q2 -28 4 -57t4 -59l-57 -4l-4 -127q-31 -1 -64 -2t-65 -2l2 123l-171 -12l-37 98z" />
    <glyph glyph-name="onehalf" unicode="&#xbd;" horiz-adv-x="764" 
d="M21 679q32 29 68 62t69 63q32 1 63.5 0.5t63.5 1.5q-4 -122 -6 -247t-4 -248l291 386q25 -17 53 -36t54 -36l-189 -250q17 5 33.5 6.5t33.5 1.5q26 0 52 -3.5t50 -13.5q48 -25 68 -69.5t14 -93.5q-5 -63 -43 -119t-107 -104q23 0 42 0.5t37 0.5h35.5t38.5 1
q-2 -27 -4 -56l-4 -58l-327 -4l-7 62l-14 36q57 33 102.5 69t76 72t43 69.5t2.5 61.5q-5 13 -14.5 19.5t-25.5 11.5q-5 1 -10.5 1.5t-10.5 0.5q-23 0 -51 -7.5t-62 -24.5l-20 41q-54 -72 -102.5 -138.5t-102.5 -137.5q-31 13 -63 26.5t-64 27.5l174 230l-112 -2l8 358
l-54 -30z" />
    <glyph glyph-name="threequarters" unicode="&#xbe;" horiz-adv-x="856" 
d="M645 81l2 89l-65 -93zM765 625l-466 -625l-128 54q120 159 244 321.5t244 321.5zM126 586q64 8 98.5 25.5t31.5 45.5q-3 14 -14.5 23.5t-32.5 9.5q-3 0 -5.5 -0.5t-5.5 -0.5q-18 -2 -42.5 -11.5t-52.5 -26.5q-13 23 -26 49t-27 50q43 23 87.5 35.5t93.5 12.5
q57 -3 98 -34t52 -87q7 -41 -8 -74.5t-45 -47.5q39 -19 56.5 -59.5t7.5 -88.5q-6 -29 -22 -52.5t-39.5 -40t-52 -26t-59.5 -11.5q-48 0 -86.5 14t-64 30.5t-37.5 29.5t-9 10q17 20 35 42.5t37 43.5q31 -35 57 -46.5t46 -13.5q3 0 6.5 -0.5t6.5 -0.5q21 0 37.5 8t22.5 29
q5 13 0 25.5t-17.5 22t-31 15.5t-41.5 6q-16 0 -34 -3zM650 388h130l-7 -300l50 4q2 -26 3.5 -57t3.5 -59l-58 -4q-2 -34 -1.5 -64.5t-0.5 -62.5q-32 -1 -65 -2l-66 -2l3 123l-171 -12l-38 99z" />
    <glyph glyph-name="questiondown" unicode="&#xbf;" horiz-adv-x="506" 
d="M383.011 730.999h8q29.998 0 50.9961 -9.49902q20.999 -9.5 34.498 -25.499t18.999 -35.998q5.5 -19.998 4.5 -40.9971t-8.5 -40.4971q-7.49902 -19.499 -20.498 -34.998q-13 -15.499 -31.498 -24.999q-18.499 -9.49902 -40.498 -9.49902q-47.9971 0 -78.9951 30.998
t-35.998 76.9951q-2 20.999 3 40.998q5 19.998 17.499 35.4971t31.998 25.999q19.499 10.499 46.4971 11.499zM467.006 437.017q-13.999 -49.9971 -38.998 -88.9941q-24.998 -38.998 -50.4971 -71.4961q-25.498 -32.498 -44.9971 -61.4961t-20.498 -57.9961
q-4 -37.998 19.998 -63.4961q23.999 -25.499 67.9961 -25.499q35.998 0 69.4961 13.5q33.498 13.499 64.4961 30.498l47.9971 -144.991q-50.9971 -28.998 -103.994 -42.998q-52.9971 -13.999 -100.994 -13.999q-46.9971 0 -87.9941 14.999t-72.4961 42.998
q-31.498 27.998 -49.4961 68.9951q-17.999 40.998 -17.999 94.9941q0 52.9971 19.998 97.9941q19.999 44.998 47.9971 83.9951q27.999 38.998 55.9971 73.4951q27.998 34.498 44.9971 67.4961z" />
    <glyph glyph-name="Agrave" unicode="&#xc0;" horiz-adv-x="636" 
d="M232 236l186 14l-75 325zM252 776q45 -3 85.5 -6t82.5 -5l227 -765q-41 -8 -80.5 -16.5t-80.5 -18.5l-33 137l-270 -14l-39 -123l-142 20zM469 809q-20 -25 -39.5 -54t-39.5 -56q-57 41 -116 84.5t-116 84.5q26 29 54 62t55 64z" />
    <glyph glyph-name="Aacute" unicode="&#xc1;" horiz-adv-x="636" 
d="M232 236l186 14l-75 325zM252 776q45 -3 85.5 -6t82.5 -5l227 -765q-41 -8 -80.5 -16.5t-80.5 -18.5l-33 137l-270 -14l-39 -123l-142 20zM525 870q-56 -40 -115.5 -84t-116.5 -85q-20 26 -39 54.5t-39 55.5l201 184z" />
    <glyph glyph-name="Acircumflex" unicode="&#xc2;" horiz-adv-x="636" 
d="M232 236l186 14l-75 325zM252 776q45 -3 85.5 -6t82.5 -5l227 -765q-41 -8 -80.5 -16.5t-80.5 -18.5l-33 137l-270 -14l-39 -123l-142 20zM455 727l-121 88l-121 -88l-78 108l199 180q48 -43 99 -89t100 -91z" />
    <glyph glyph-name="Atilde" unicode="&#xc3;" horiz-adv-x="636" 
d="M232 236l186 14l-75 325zM252 776q45 -3 85.5 -6t82.5 -5l227 -765q-41 -8 -80.5 -16.5t-80.5 -18.5l-33 137l-270 -14l-39 -123l-142 20zM570 879q-25 -69 -64.5 -99t-85.5 -30q-35 0 -70 17t-64 49q-13 14 -27 14q-10 0 -19.5 -6.5t-17 -16.5t-13.5 -21t-9 -20
q-23 20 -47.5 44t-47.5 46q15 24 33 46.5t39.5 40.5t47 29t55.5 11q31 -2 59.5 -19t53.5 -41q14 -14 29 -14q17 0 31.5 16.5t22.5 37.5z" />
    <glyph glyph-name="Adieresis" unicode="&#xc4;" horiz-adv-x="636" 
d="M232 236l186 14l-75 325zM252 776q45 -3 85.5 -6t82.5 -5l227 -765q-41 -8 -80.5 -16.5t-80.5 -18.5l-33 137l-270 -14l-39 -123l-142 20zM371 780q-20 20 -27 41t-5 40q5 41 36.5 62.5t69.5 21.5q22 -1 41 -13.5t32 -31t18 -40t-1 -40.5q-9 -29 -32.5 -49t-53.5 -23
q-2 0 -4.5 -0.5t-4.5 -0.5q-36 0 -69 33zM156 780q-22 23 -29.5 46t-2.5 44q8 32 36.5 53.5t62.5 21.5q17 0 34.5 -7.5t32.5 -20.5t24.5 -31.5t9.5 -39.5q1 -35 -22.5 -62.5t-56.5 -34.5q-5 -1 -9 -1.5t-9 -0.5q-39 0 -71 33z" />
    <glyph glyph-name="Aring" unicode="&#xc5;" horiz-adv-x="636" 
d="M232 236l186 14l-75 325zM252 776q45 -3 85.5 -6t82.5 -5l227 -765q-41 -8 -80.5 -16.5t-80.5 -18.5l-33 137l-270 -14l-39 -123l-142 20zM305 796q15 -11 31 -11q12 0 22 7t14.5 18t2 24.5t-13.5 27.5q-16 18 -36 18q-14 0 -25.5 -8t-16.5 -20.5t-0.5 -27t22.5 -28.5z
M232 739q-38 38 -42.5 78.5t13.5 74.5t52.5 55.5t74.5 21.5q28 0 55.5 -12.5t51.5 -41.5q32 -38 34.5 -77.5t-14.5 -71.5t-50 -52.5t-71 -20.5q-26 0 -52.5 10.5t-51.5 35.5z" />
    <glyph glyph-name="AE" unicode="&#xc6;" horiz-adv-x="850" 
d="M-89 -15l440 799l38 -4l430 -12q-2 -35 -3 -67.5t-2 -67.5l-298 11l-7 -182l241 13q2 -35 4 -71t4 -71q-64 -5 -126.5 -10t-125.5 -9l-5 -189l318 19q4 -40 7.5 -77.5t5.5 -75.5q-120 -7 -240 -12t-241 -10l3 131l-239 -12l-68 -123zM200 236l157 11l6 278z" />
    <glyph glyph-name="Ccedilla" unicode="&#xc7;" horiz-adv-x="556" 
d="M479 578q-26 29 -54.5 42t-59.5 13h-9t-9 -1q-34 -2 -65.5 -22t-55 -56t-37 -88.5t-12.5 -119.5q2 -56 13.5 -97.5t31 -69.5t45.5 -42t55 -16q89 0 145 68l75 -117q-41 -51 -100 -78.5t-124 -27.5q-54 0 -106 22.5t-92.5 68t-65.5 115.5t-25 164q0 114 26 198t69 139.5
t99 83.5t116 31q5 1 10.5 1h10.5q54 0 106.5 -20t97.5 -56zM363 13l-14 -56q57 -21 80.5 -61t16.5 -81q-4 -24 -18 -46t-37.5 -38.5t-56 -26.5t-73.5 -10q-23 0 -44.5 3.5t-44.5 9.5l21 104q10 -2 25.5 -3.5t32.5 -1.5q22 0 40 5t20 21q1 7 -3.5 15t-16.5 15.5t-31.5 12.5
t-49.5 7q9 36 16 74t16 76z" />
    <glyph glyph-name="Egrave" unicode="&#xc8;" horiz-adv-x="541" 
d="M428 475q2 -35 4 -71t4 -71q-64 -5 -126.5 -10t-125.5 -9l-5 -189l318 19q4 -40 7.5 -77.5t5.5 -75.5q-120 -7 -240 -12t-241 -10l17 812l451 -13q-2 -35 -3 -67.5t-2 -67.5l-298 11l-7 -182zM424 859q-20 -25 -39.5 -54t-39.5 -56q-57 41 -116 84.5t-116 84.5
q26 29 54 62t55 64z" />
    <glyph glyph-name="Eacute" unicode="&#xc9;" horiz-adv-x="541" 
d="M428 475q2 -35 4 -71t4 -71q-64 -5 -126.5 -10t-125.5 -9l-5 -189l318 19q4 -40 7.5 -77.5t5.5 -75.5q-120 -7 -240 -12t-241 -10l17 812l451 -13q-2 -35 -3 -67.5t-2 -67.5l-298 11l-7 -182zM457 908q-56 -40 -115.5 -84t-116.5 -85q-20 26 -39 54.5t-39 55.5l201 184z
" />
    <glyph glyph-name="Ecircumflex" unicode="&#xca;" horiz-adv-x="541" 
d="M428 475q2 -35 4 -71t4 -71q-64 -5 -126.5 -10t-125.5 -9l-5 -189l318 19q4 -40 7.5 -77.5t5.5 -75.5q-120 -7 -240 -12t-241 -10l17 812l451 -13q-2 -35 -3 -67.5t-2 -67.5l-298 11l-7 -182zM391 739l-121 88l-121 -88l-78 108l199 180q48 -43 99 -89t100 -91z" />
    <glyph glyph-name="Edieresis" unicode="&#xcb;" horiz-adv-x="541" 
d="M428 475q2 -35 4 -71t4 -71q-64 -5 -126.5 -10t-125.5 -9l-5 -189l318 19q4 -40 7.5 -77.5t5.5 -75.5q-120 -7 -240 -12t-241 -10l17 812l451 -13q-2 -35 -3 -67.5t-2 -67.5l-298 11l-7 -182zM319 805q-20 20 -27 41t-5 40q5 41 36.5 62.5t69.5 21.5q22 -1 41 -13.5
t32 -31t18 -40t-1 -40.5q-9 -29 -32.5 -49t-53.5 -23q-2 0 -4.5 -0.5t-4.5 -0.5q-36 0 -69 33zM104 805q-22 23 -29.5 46t-2.5 44q8 32 36.5 53.5t62.5 21.5q17 0 34.5 -7.5t32.5 -20.5t24.5 -31.5t9.5 -39.5q1 -35 -22.5 -62.5t-56.5 -34.5q-5 -1 -9 -1.5t-9 -0.5
q-39 0 -71 33z" />
    <glyph glyph-name="Igrave" unicode="&#xcc;" horiz-adv-x="260" 
d="M222 -14q-41 -1 -79.5 -1t-79.5 -1l-30 784h168zM285 859q-20 -25 -39.5 -54t-39.5 -56q-57 41 -116 84.5t-116 84.5q26 29 54 62t55 64z" />
    <glyph glyph-name="Iacute" unicode="&#xcd;" horiz-adv-x="260" 
d="M222 -14q-41 -1 -79.5 -1t-79.5 -1l-30 784h168zM286 918q-56 -40 -115.5 -84t-116.5 -85q-20 26 -39 54.5t-39 55.5l201 184z" />
    <glyph glyph-name="Icircumflex" unicode="&#xce;" horiz-adv-x="260" 
d="M222 -14q-41 -1 -79.5 -1t-79.5 -1l-30 784h168zM251 739l-121 88l-121 -88l-78 108l199 180q48 -43 99 -89t100 -91z" />
    <glyph glyph-name="Idieresis" unicode="&#xcf;" horiz-adv-x="260" 
d="M222 -14q-41 -1 -79.5 -1t-79.5 -1l-30 784h168zM178 805q-20 20 -27 41t-5 40q5 41 36.5 62.5t69.5 21.5q22 -1 41 -13.5t32 -31t18 -40t-1 -40.5q-9 -29 -32.5 -49t-53.5 -23q-2 0 -4.5 -0.5t-4.5 -0.5q-36 0 -69 33zM-37 805q-22 23 -29.5 46t-2.5 44q8 32 36.5 53.5
t62.5 21.5q17 0 34.5 -7.5t32.5 -20.5t24.5 -31.5t9.5 -39.5q1 -35 -22.5 -62.5t-56.5 -34.5q-5 -1 -9 -1.5t-9 -0.5q-39 0 -71 33z" />
    <glyph glyph-name="Eth" unicode="&#xd0;" 
d="M199 124q5 0 9.5 -0.5t9.5 -0.5q59 0 102 20t71.5 57t42 88.5t13.5 114.5q0 45 -9 87.5t-30 75.5t-55 53.5t-84 20.5q-22 0 -44 -3t-45 -7zM272 778q86 -6 148.5 -39.5t103.5 -87.5t60.5 -125.5t20.5 -154.5q1 -92 -29.5 -166t-83.5 -125.5t-125 -79.5t-153 -28l-165 10
l-20 772q4 0 28.5 3.5t58 8.5t71 9t67.5 4q5 0 9 -0.5t9 -0.5zM352.396 451.613q-0.726562 -33.5938 -1.45312 -71.165q-0.725586 -37.5713 -1.45215 -72.0479q-96.584 -2.65234 -192.079 -3.97852q-95.4941 -1.32617 -192.078 -3.09375q-1.45312 34.4766 -1.08984 68.0703
q0.363281 33.5928 -0.363281 70.7227z" />
    <glyph glyph-name="Ntilde" unicode="&#xd1;" horiz-adv-x="612" 
d="M585 -12l-70 -2l-70 -2l-260 468q3 -116 6 -230.5t6 -232.5l-161 -17l-6 758l148 58l254 -493l-15 466q38 2 77.5 3.5t79.5 3.5zM537 901q-25 -69 -64.5 -99t-85.5 -30q-35 0 -70 17t-64 49q-13 14 -27 14q-10 0 -19.5 -6.5t-17 -16.5t-13.5 -21t-9 -20q-23 20 -47.5 44
t-47.5 46q15 24 33 46.5t39.5 40.5t47 29t55.5 11q31 -2 59.5 -19t53.5 -41q14 -14 29 -14q17 0 31.5 16.5t22.5 37.5z" />
    <glyph glyph-name="Ograve" unicode="&#xd2;" horiz-adv-x="695" 
d="M337 141q5 -1 9 -1h9q35 0 62 19t46 50t30 71.5t14 83.5q2 44 -5 88t-24.5 80t-44.5 61.5t-65 32.5q-5 1 -9.5 1.5t-9.5 0.5q-34 0 -62 -19.5t-48.5 -51t-33 -72.5t-17.5 -85q-4 -44 2.5 -88t24.5 -80t48 -60.5t74 -30.5zM353 780q81 0 141 -35t99.5 -92.5t58 -130.5
t17.5 -150q-1 -75 -21.5 -146.5t-59.5 -127.5t-96 -90.5t-131 -34.5q-84 0 -146.5 35.5t-104 93t-62 130.5t-19.5 148q2 76 23 148t61.5 128t100.5 90t139 34zM501 859q-20 -25 -39.5 -54t-39.5 -56q-57 41 -116 84.5t-116 84.5q26 29 54 62t55 64z" />
    <glyph glyph-name="Oacute" unicode="&#xd3;" horiz-adv-x="695" 
d="M337 141q5 -1 9 -1h9q35 0 62 19t46 50t30 71.5t14 83.5q2 44 -5 88t-24.5 80t-44.5 61.5t-65 32.5q-5 1 -9.5 1.5t-9.5 0.5q-34 0 -62 -19.5t-48.5 -51t-33 -72.5t-17.5 -85q-4 -44 2.5 -88t24.5 -80t48 -60.5t74 -30.5zM353 780q81 0 141 -35t99.5 -92.5t58 -130.5
t17.5 -150q-1 -75 -21.5 -146.5t-59.5 -127.5t-96 -90.5t-131 -34.5q-84 0 -146.5 35.5t-104 93t-62 130.5t-19.5 148q2 76 23 148t61.5 128t100.5 90t139 34zM502 918q-56 -40 -115.5 -84t-116.5 -85q-20 26 -39 54.5t-39 55.5l201 184z" />
    <glyph glyph-name="Ocircumflex" unicode="&#xd4;" horiz-adv-x="695" 
d="M337 141q5 -1 9 -1h9q35 0 62 19t46 50t30 71.5t14 83.5q2 44 -5 88t-24.5 80t-44.5 61.5t-65 32.5q-5 1 -9.5 1.5t-9.5 0.5q-34 0 -62 -19.5t-48.5 -51t-33 -72.5t-17.5 -85q-4 -44 2.5 -88t24.5 -80t48 -60.5t74 -30.5zM353 780q81 0 141 -35t99.5 -92.5t58 -130.5
t17.5 -150q-1 -75 -21.5 -146.5t-59.5 -127.5t-96 -90.5t-131 -34.5q-84 0 -146.5 35.5t-104 93t-62 130.5t-19.5 148q2 76 23 148t61.5 128t100.5 90t139 34zM468 739l-121 88l-121 -88l-78 108l199 180q48 -43 99 -89t100 -91z" />
    <glyph glyph-name="Otilde" unicode="&#xd5;" horiz-adv-x="695" 
d="M337 141q5 -1 9 -1h9q35 0 62 19t46 50t30 71.5t14 83.5q2 44 -5 88t-24.5 80t-44.5 61.5t-65 32.5q-5 1 -9.5 1.5t-9.5 0.5q-34 0 -62 -19.5t-48.5 -51t-33 -72.5t-17.5 -85q-4 -44 2.5 -88t24.5 -80t48 -60.5t74 -30.5zM353 780q81 0 141 -35t99.5 -92.5t58 -130.5
t17.5 -150q-1 -75 -21.5 -146.5t-59.5 -127.5t-96 -90.5t-131 -34.5q-84 0 -146.5 35.5t-104 93t-62 130.5t-19.5 148q2 76 23 148t61.5 128t100.5 90t139 34zM592 890q-25 -69 -64.5 -99t-85.5 -30q-35 0 -70 17t-64 49q-13 14 -27 14q-10 0 -19.5 -6.5t-17 -16.5
t-13.5 -21t-9 -20q-23 20 -47.5 44t-47.5 46q15 24 33 46.5t39.5 40.5t47 29t55.5 11q31 -2 59.5 -19t53.5 -41q14 -14 29 -14q17 0 31.5 16.5t22.5 37.5z" />
    <glyph glyph-name="Odieresis" unicode="&#xd6;" horiz-adv-x="695" 
d="M337 141q5 -1 9 -1h9q35 0 62 19t46 50t30 71.5t14 83.5q2 44 -5 88t-24.5 80t-44.5 61.5t-65 32.5q-5 1 -9.5 1.5t-9.5 0.5q-34 0 -62 -19.5t-48.5 -51t-33 -72.5t-17.5 -85q-4 -44 2.5 -88t24.5 -80t48 -60.5t74 -30.5zM353 780q81 0 141 -35t99.5 -92.5t58 -130.5
t17.5 -150q-1 -75 -21.5 -146.5t-59.5 -127.5t-96 -90.5t-131 -34.5q-84 0 -146.5 35.5t-104 93t-62 130.5t-19.5 148q2 76 23 148t61.5 128t100.5 90t139 34zM395 805q-20 20 -27 41t-5 40q5 41 36.5 62.5t69.5 21.5q22 -1 41 -13.5t32 -31t18 -40t-1 -40.5
q-9 -29 -32.5 -49t-53.5 -23q-2 0 -4.5 -0.5t-4.5 -0.5q-36 0 -69 33zM180 805q-22 23 -29.5 46t-2.5 44q8 32 36.5 53.5t62.5 21.5q17 0 34.5 -7.5t32.5 -20.5t24.5 -31.5t9.5 -39.5q1 -35 -22.5 -62.5t-56.5 -34.5q-5 -1 -9 -1.5t-9 -0.5q-39 0 -71 33z" />
    <glyph glyph-name="multiply" unicode="&#xd7;" horiz-adv-x="463" 
d="M223 460l112 122l103 -98l-113 -118q32 -28 59 -53.5t57 -52.5l-98 -102l-114 108q-27 -28 -50.5 -53t-49.5 -51l-99 89l101 110q-29 29 -55.5 53.5t-54.5 53.5l90 97z" />
    <glyph glyph-name="Oslash" unicode="&#xd8;" horiz-adv-x="695" 
d="M337 141q5 -1 9 -1h9q35 0 62 19t46 50t30 71.5t14 83.5q2 44 -5 88t-24.5 80t-44.5 61.5t-65 32.5q-5 1 -9.5 1.5t-9.5 0.5q-34 0 -62 -19.5t-48.5 -51t-33 -72.5t-17.5 -85q-4 -44 2.5 -88t24.5 -80t48 -60.5t74 -30.5zM353 780q81 0 141 -35t99.5 -92.5t58 -130.5
t17.5 -150q-1 -75 -21.5 -146.5t-59.5 -127.5t-96 -90.5t-131 -34.5q-84 0 -146.5 35.5t-104 93t-62 130.5t-19.5 148q2 76 23 148t61.5 128t100.5 90t139 34zM673.994 786.681l-502.6 -870.604l-145.916 54.5752l502.6 877.533z" />
    <glyph glyph-name="Ugrave" unicode="&#xd9;" 
d="M608 750q-2 -114 -6 -233t-6 -234q-1 -64 -23 -119.5t-61 -96t-92.5 -64t-119.5 -23.5q-74 1 -127.5 27t-87 70.5t-47 105t-8.5 131.5q5 76 8 152t5 137.5t3 101.5t1 43q38 2 75.5 3.5t75.5 3.5q-2 -112 -4 -222.5t-4 -222.5q-4 -85 20.5 -126.5t89.5 -45.5h11
q56 0 88.5 39.5t35.5 127.5q2 114 5 225.5t6 225.5zM453 839q-20 -25 -39.5 -54t-39.5 -56q-57 41 -116 84.5t-116 84.5q26 29 54 62t55 64z" />
    <glyph glyph-name="Uacute" unicode="&#xda;" 
d="M608 750q-2 -114 -6 -233t-6 -234q-1 -64 -23 -119.5t-61 -96t-92.5 -64t-119.5 -23.5q-74 1 -127.5 27t-87 70.5t-47 105t-8.5 131.5q5 76 8 152t5 137.5t3 101.5t1 43q38 2 75.5 3.5t75.5 3.5q-2 -112 -4 -222.5t-4 -222.5q-4 -85 20.5 -126.5t89.5 -45.5h11
q56 0 88.5 39.5t35.5 127.5q2 114 5 225.5t6 225.5zM499 899q-56 -40 -115.5 -84t-116.5 -85q-20 26 -39 54.5t-39 55.5l201 184z" />
    <glyph glyph-name="Ucircumflex" unicode="&#xdb;" 
d="M608 750q-2 -114 -6 -233t-6 -234q-1 -64 -23 -119.5t-61 -96t-92.5 -64t-119.5 -23.5q-74 1 -127.5 27t-87 70.5t-47 105t-8.5 131.5q5 76 8 152t5 137.5t3 101.5t1 43q38 2 75.5 3.5t75.5 3.5q-2 -112 -4 -222.5t-4 -222.5q-4 -85 20.5 -126.5t89.5 -45.5h11
q56 0 88.5 39.5t35.5 127.5q2 114 5 225.5t6 225.5zM437 739l-121 88l-121 -88l-78 108l199 180q48 -43 99 -89t100 -91z" />
    <glyph glyph-name="Udieresis" unicode="&#xdc;" 
d="M608 750q-2 -114 -6 -233t-6 -234q-1 -64 -23 -119.5t-61 -96t-92.5 -64t-119.5 -23.5q-74 1 -127.5 27t-87 70.5t-47 105t-8.5 131.5q5 76 8 152t5 137.5t3 101.5t1 43q38 2 75.5 3.5t75.5 3.5q-2 -112 -4 -222.5t-4 -222.5q-4 -85 20.5 -126.5t89.5 -45.5h11
q56 0 88.5 39.5t35.5 127.5q2 114 5 225.5t6 225.5zM364 787q-20 20 -27 41t-5 40q5 41 36.5 62.5t69.5 21.5q22 -1 41 -13.5t32 -31t18 -40t-1 -40.5q-9 -29 -32.5 -49t-53.5 -23q-2 0 -4.5 -0.5t-4.5 -0.5q-36 0 -69 33zM149 787q-22 23 -29.5 46t-2.5 44q8 32 36.5 53.5
t62.5 21.5q17 0 34.5 -7.5t32.5 -20.5t24.5 -31.5t9.5 -39.5q1 -35 -22.5 -62.5t-56.5 -34.5q-5 -1 -9 -1.5t-9 -0.5q-39 0 -71 33z" />
    <glyph glyph-name="Yacute" unicode="&#xdd;" horiz-adv-x="564" 
d="M590 689q-57 -95 -112 -196.5t-112 -195.5l-5 -314q-41 1 -79 2t-77 3l7 307l-233 398l133 80l173 -320q44 75 87 156t88 155zM499 877q-56 -40 -115.5 -84t-116.5 -85q-20 26 -39 54.5t-39 55.5l201 184z" />
    <glyph glyph-name="Thorn" unicode="&#xde;" horiz-adv-x="594" 
d="M193 239q8 0 15.5 -0.5t15.5 -0.5q36 0 71 6t64.5 22t49.5 44.5t24 73.5q8 60 -31 95t-105 41q-7 1 -14 1.5t-14 0.5q-20 0 -40 -2.5t-41 -6.5zM30 773l148 9l7 -129q8 1 19.5 3t23.5 3.5t23 3t17 1.5q70 0 129 -16.5t101.5 -49.5t66 -84.5t23.5 -122.5q0 -75 -25.5 -130
t-70 -91t-104.5 -53t-129 -17q-16 0 -31.5 1t-32.5 3l5 -116q-41 -2 -79 -4t-80 -4z" />
    <glyph glyph-name="germandbls" unicode="&#xdf;" horiz-adv-x="538" 
d="M239 820q49 0 92 -15t74.5 -43.5t50.5 -69.5t20 -93q0 -45 -13 -86t-41 -73q49 -36 72.5 -97.5t18.5 -128.5q-3 -47 -18.5 -89.5t-44.5 -75t-71 -51.5t-96 -18q-11 0 -19 1.5t-14 3.5l5 140q48 0 74 24t26 73q0 20 -5.5 38.5t-17 33t-28 23.5t-39.5 10q-6 0 -9 -0.5
t-4.5 -1t-3.5 -1t-7 -0.5q-2 35 -2.5 74t-2.5 77l41 8q22 17 32.5 45t10.5 57q0 32 -14 56t-49 24q-28 0 -46.5 -22.5t-23.5 -75.5q-7 -70 -5.5 -151.5t5.5 -167.5t8 -175t2 -174q-38 -5 -77.5 -9t-79.5 -9q-4 108 -7 216q-1 45 -2.5 95t-2.5 100t-1.5 98t-0.5 90
q0 35 0.5 63t1.5 51q2 61 21 103.5t48 69.5t66 39.5t76 13.5z" />
    <glyph glyph-name="agrave" unicode="&#xe0;" horiz-adv-x="557" 
d="M339 197v60t3 39q-28 -5 -57 -14.5t-53 -25t-39 -37t-15 -50.5q0 -28 15.5 -43t37.5 -15q18 0 34.5 8t30.5 20t25 27.5t18 30.5zM60 518q66 55 124.5 80t109.5 25q50 0 86 -20.5t59.5 -54.5t35 -76.5t11.5 -87.5q0 -42 -2.5 -78t-2.5 -68q0 -47 12.5 -79t57.5 -55
q-21 -27 -45 -56t-45 -57q-36 12 -59.5 29.5t-38.5 43.5q-71 -76 -152 -81h-12q-35 0 -66.5 12.5t-55 35.5t-37.5 56t-14 74q0 103 80.5 167.5t235.5 91.5q-7 35 -24.5 50.5t-46.5 15.5q-21 0 -43 -6.5t-43 -16.5t-39.5 -23t-33.5 -27zM433 703q-20 -25 -39.5 -54t-39.5 -56
q-57 41 -116 84.5t-116 84.5q26 29 54 62t55 64z" />
    <glyph glyph-name="aacute" unicode="&#xe1;" horiz-adv-x="557" 
d="M339 197v60t3 39q-28 -5 -57 -14.5t-53 -25t-39 -37t-15 -50.5q0 -28 15.5 -43t37.5 -15q18 0 34.5 8t30.5 20t25 27.5t18 30.5zM60 518q66 55 124.5 80t109.5 25q50 0 86 -20.5t59.5 -54.5t35 -76.5t11.5 -87.5q0 -42 -2.5 -78t-2.5 -68q0 -47 12.5 -79t57.5 -55
q-21 -27 -45 -56t-45 -57q-36 12 -59.5 29.5t-38.5 43.5q-71 -76 -152 -81h-12q-35 0 -66.5 12.5t-55 35.5t-37.5 56t-14 74q0 103 80.5 167.5t235.5 91.5q-7 35 -24.5 50.5t-46.5 15.5q-21 0 -43 -6.5t-43 -16.5t-39.5 -23t-33.5 -27zM434 762q-56 -40 -115.5 -84
t-116.5 -85q-20 26 -39 54.5t-39 55.5l201 184z" />
    <glyph glyph-name="acircumflex" unicode="&#xe2;" horiz-adv-x="557" 
d="M339 197v60t3 39q-28 -5 -57 -14.5t-53 -25t-39 -37t-15 -50.5q0 -28 15.5 -43t37.5 -15q18 0 34.5 8t30.5 20t25 27.5t18 30.5zM60 518q66 55 124.5 80t109.5 25q50 0 86 -20.5t59.5 -54.5t35 -76.5t11.5 -87.5q0 -42 -2.5 -78t-2.5 -68q0 -47 12.5 -79t57.5 -55
q-21 -27 -45 -56t-45 -57q-36 12 -59.5 29.5t-38.5 43.5q-71 -76 -152 -81h-12q-35 0 -66.5 12.5t-55 35.5t-37.5 56t-14 74q0 103 80.5 167.5t235.5 91.5q-7 35 -24.5 50.5t-46.5 15.5q-21 0 -43 -6.5t-43 -16.5t-39.5 -23t-33.5 -27zM398 583l-121 88l-121 -88l-78 108
l199 180q48 -43 99 -89t100 -91z" />
    <glyph glyph-name="atilde" unicode="&#xe3;" horiz-adv-x="557" 
d="M339 197v60t3 39q-28 -5 -57 -14.5t-53 -25t-39 -37t-15 -50.5q0 -28 15.5 -43t37.5 -15q18 0 34.5 8t30.5 20t25 27.5t18 30.5zM60 518q66 55 124.5 80t109.5 25q50 0 86 -20.5t59.5 -54.5t35 -76.5t11.5 -87.5q0 -42 -2.5 -78t-2.5 -68q0 -47 12.5 -79t57.5 -55
q-21 -27 -45 -56t-45 -57q-36 12 -59.5 29.5t-38.5 43.5q-71 -76 -152 -81h-12q-35 0 -66.5 12.5t-55 35.5t-37.5 56t-14 74q0 103 80.5 167.5t235.5 91.5q-7 35 -24.5 50.5t-46.5 15.5q-21 0 -43 -6.5t-43 -16.5t-39.5 -23t-33.5 -27zM510 745q-25 -69 -64.5 -99t-85.5 -30
q-35 0 -70 17t-64 49q-13 14 -27 14q-10 0 -19.5 -6.5t-17 -16.5t-13.5 -21t-9 -20q-23 20 -47.5 44t-47.5 46q15 24 33 46.5t39.5 40.5t47 29t55.5 11q31 -2 59.5 -19t53.5 -41q14 -14 29 -14q17 0 31.5 16.5t22.5 37.5z" />
    <glyph glyph-name="adieresis" unicode="&#xe4;" horiz-adv-x="557" 
d="M339 197v60t3 39q-28 -5 -57 -14.5t-53 -25t-39 -37t-15 -50.5q0 -28 15.5 -43t37.5 -15q18 0 34.5 8t30.5 20t25 27.5t18 30.5zM60 518q66 55 124.5 80t109.5 25q50 0 86 -20.5t59.5 -54.5t35 -76.5t11.5 -87.5q0 -42 -2.5 -78t-2.5 -68q0 -47 12.5 -79t57.5 -55
q-21 -27 -45 -56t-45 -57q-36 12 -59.5 29.5t-38.5 43.5q-71 -76 -152 -81h-12q-35 0 -66.5 12.5t-55 35.5t-37.5 56t-14 74q0 103 80.5 167.5t235.5 91.5q-7 35 -24.5 50.5t-46.5 15.5q-21 0 -43 -6.5t-43 -16.5t-39.5 -23t-33.5 -27zM326 649q-20 20 -27 41t-5 40
q5 41 36.5 62.5t69.5 21.5q22 -1 41 -13.5t32 -31t18 -40t-1 -40.5q-9 -29 -32.5 -49t-53.5 -23q-2 0 -4.5 -0.5t-4.5 -0.5q-36 0 -69 33zM111 649q-22 23 -29.5 46t-2.5 44q8 32 36.5 53.5t62.5 21.5q17 0 34.5 -7.5t32.5 -20.5t24.5 -31.5t9.5 -39.5q1 -35 -22.5 -62.5
t-56.5 -34.5q-5 -1 -9 -1.5t-9 -0.5q-39 0 -71 33z" />
    <glyph glyph-name="aring" unicode="&#xe5;" horiz-adv-x="557" 
d="M339 197v60t3 39q-28 -5 -57 -14.5t-53 -25t-39 -37t-15 -50.5q0 -28 15.5 -43t37.5 -15q18 0 34.5 8t30.5 20t25 27.5t18 30.5zM60 518q66 55 124.5 80t109.5 25q50 0 86 -20.5t59.5 -54.5t35 -76.5t11.5 -87.5q0 -42 -2.5 -78t-2.5 -68q0 -47 12.5 -79t57.5 -55
q-21 -27 -45 -56t-45 -57q-36 12 -59.5 29.5t-38.5 43.5q-71 -76 -152 -81h-12q-35 0 -66.5 12.5t-55 35.5t-37.5 56t-14 74q0 103 80.5 167.5t235.5 91.5q-7 35 -24.5 50.5t-46.5 15.5q-21 0 -43 -6.5t-43 -16.5t-39.5 -23t-33.5 -27zM255 701q15 -11 31 -11q12 0 22 7
t14.5 18t2 24.5t-13.5 27.5q-16 18 -36 18q-14 0 -25.5 -8t-16.5 -20.5t-0.5 -27t22.5 -28.5zM182 644q-38 38 -42.5 78.5t13.5 74.5t52.5 55.5t74.5 21.5q28 0 55.5 -12.5t51.5 -41.5q32 -38 34.5 -77.5t-14.5 -71.5t-50 -52.5t-71 -20.5q-26 0 -52.5 10.5t-51.5 35.5z" />
    <glyph glyph-name="ae" unicode="&#xe6;" horiz-adv-x="874" 
d="M26 161q0 103 80.5 167.5t235.5 91.5q-7 34 -27.5 52t-49.5 18q-19 0 -40.5 -7.5t-42 -19t-38.5 -25t-32 -25.5l-52 105q66 55 124.5 80t109.5 25q43 0 80.5 -18.5t63.5 -52.5q32 32 75.5 51t98.5 19q90 0 144 -51.5t71 -139.5q14 -49 12.5 -98t-15.5 -103
q-85 1 -167 0.5t-167 1.5q8 -47 32 -79.5t65 -32.5q30 0 61 16.5t73 57.5q22 -24 45.5 -51.5t46.5 -53.5q-37 -50 -92 -81.5t-133 -31.5q-66 0 -114 28.5t-79 76.5q-74 -98 -196 -98q-35 0 -66.5 12.5t-55 35.5t-37.5 56t-14 74zM340 296q-28 -5 -56.5 -15t-52 -25.5
t-38.5 -36.5t-15 -50q0 -28 15.5 -43t37.5 -15q18 0 34.5 8t30.5 20t25 27.5t18 30.5q0 29 -0.5 48t1.5 33v18zM605 475q-36 0 -62 -28t-40 -70l188 -9q0 20 -5 39t-15.5 34t-26.5 24.5t-39 9.5z" />
    <glyph glyph-name="ccedilla" unicode="&#xe7;" horiz-adv-x="518" 
d="M385 398q-14 40 -39 67t-70 27q-27 0 -48.5 -14.5t-35.5 -41t-20.5 -63.5t-4.5 -82q2 -77 33.5 -124.5t81.5 -47.5q21 0 38.5 9t30.5 22t22 28t14 28l122 -78q-12 -24 -32 -50t-48 -48t-65.5 -36.5t-84.5 -14.5q-73 -1 -125 33.5t-84 90t-43.5 123.5t-2.5 135
q7 52 26.5 99t51.5 82.5t76 56.5t100 21q50 0 87.5 -12.5t65 -33.5t46 -49t29.5 -60zM322 9l-14 -56q57 -21 80.5 -61t16.5 -81q-4 -24 -18 -46t-37.5 -38.5t-56 -26.5t-73.5 -10q-23 0 -44.5 3.5t-44.5 9.5l21 104q10 -2 25.5 -3.5t32.5 -1.5q22 0 40 5t20 21q1 7 -3.5 15
t-16.5 15.5t-31.5 12.5t-49.5 7q9 36 16 74t16 76z" />
    <glyph glyph-name="egrave" unicode="&#xe8;" horiz-adv-x="554" 
d="M378 368q0 20 -5 39t-15.5 34t-26.5 24.5t-39 9.5q-36 0 -65 -25t-37 -73zM274 118q15 0 28.5 2t28 8.5t31 19t36.5 32.5l102 -91q-37 -50 -92 -81.5t-133 -31.5q-65 0 -112.5 28t-78.5 74.5t-45 105.5t-12 121q2 60 20.5 117t52.5 101.5t83.5 71.5t115.5 27
q77 0 127.5 -35.5t76 -91.5t26.5 -124.5t-20 -134.5q-85 1 -167 0.5t-167 1.5q4 -52 30.5 -86t68.5 -34zM432 703q-20 -25 -39.5 -54t-39.5 -56q-57 41 -116 84.5t-116 84.5q26 29 54 62t55 64z" />
    <glyph glyph-name="eacute" unicode="&#xe9;" horiz-adv-x="554" 
d="M378 368q0 20 -5 39t-15.5 34t-26.5 24.5t-39 9.5q-36 0 -65 -25t-37 -73zM274 118q15 0 28.5 2t28 8.5t31 19t36.5 32.5l102 -91q-37 -50 -92 -81.5t-133 -31.5q-65 0 -112.5 28t-78.5 74.5t-45 105.5t-12 121q2 60 20.5 117t52.5 101.5t83.5 71.5t115.5 27
q77 0 127.5 -35.5t76 -91.5t26.5 -124.5t-20 -134.5q-85 1 -167 0.5t-167 1.5q4 -52 30.5 -86t68.5 -34zM458 761q-56 -40 -115.5 -84t-116.5 -85q-20 26 -39 54.5t-39 55.5l201 184z" />
    <glyph glyph-name="ecircumflex" unicode="&#xea;" horiz-adv-x="554" 
d="M378 368q0 20 -5 39t-15.5 34t-26.5 24.5t-39 9.5q-36 0 -65 -25t-37 -73zM274 118q15 0 28.5 2t28 8.5t31 19t36.5 32.5l102 -91q-37 -50 -92 -81.5t-133 -31.5q-65 0 -112.5 28t-78.5 74.5t-45 105.5t-12 121q2 60 20.5 117t52.5 101.5t83.5 71.5t115.5 27
q77 0 127.5 -35.5t76 -91.5t26.5 -124.5t-20 -134.5q-85 1 -167 0.5t-167 1.5q4 -52 30.5 -86t68.5 -34zM412 582l-121 88l-121 -88l-78 108l199 180q48 -43 99 -89t100 -91z" />
    <glyph glyph-name="edieresis" unicode="&#xeb;" horiz-adv-x="554" 
d="M378 368q0 20 -5 39t-15.5 34t-26.5 24.5t-39 9.5q-36 0 -65 -25t-37 -73zM274 118q15 0 28.5 2t28 8.5t31 19t36.5 32.5l102 -91q-37 -50 -92 -81.5t-133 -31.5q-65 0 -112.5 28t-78.5 74.5t-45 105.5t-12 121q2 60 20.5 117t52.5 101.5t83.5 71.5t115.5 27
q77 0 127.5 -35.5t76 -91.5t26.5 -124.5t-20 -134.5q-85 1 -167 0.5t-167 1.5q4 -52 30.5 -86t68.5 -34zM325 649q-20 20 -27 41t-5 40q5 41 36.5 62.5t69.5 21.5q22 -1 41 -13.5t32 -31t18 -40t-1 -40.5q-9 -29 -32.5 -49t-53.5 -23q-2 0 -4.5 -0.5t-4.5 -0.5q-36 0 -69 33
zM110 649q-22 23 -29.5 46t-2.5 44q8 32 36.5 53.5t62.5 21.5q17 0 34.5 -7.5t32.5 -20.5t24.5 -31.5t9.5 -39.5q1 -35 -22.5 -62.5t-56.5 -34.5q-5 -1 -9 -1.5t-9 -0.5q-39 0 -71 33z" />
    <glyph glyph-name="igrave" unicode="&#xec;" horiz-adv-x="233" 
d="M271 703q-20 -25 -39.5 -54t-39.5 -56q-57 41 -116 84.5t-116 84.5q26 29 54 62t55 64zM195 610l6 -613q-42 -1 -84.5 -2t-84.5 -2v619z" />
    <glyph glyph-name="iacute" unicode="&#xed;" horiz-adv-x="233" 
d="M272 762q-56 -40 -115.5 -84t-116.5 -85q-20 26 -39 54.5t-39 55.5l201 184zM195 610l6 -613q-42 -1 -84.5 -2t-84.5 -2v619z" />
    <glyph glyph-name="icircumflex" unicode="&#xee;" horiz-adv-x="233" 
d="M195 610l6 -613q-42 -1 -84.5 -2t-84.5 -2v619zM238 583l-121 88l-121 -88l-78 108l199 180q48 -43 99 -89t100 -91z" />
    <glyph glyph-name="idieresis" unicode="&#xef;" horiz-adv-x="233" 
d="M165 649q-20 20 -27 41t-5 40q5 41 36.5 62.5t69.5 21.5q22 -1 41 -13.5t32 -31t18 -40t-1 -40.5q-9 -29 -32.5 -49t-53.5 -23q-2 0 -4.5 -0.5t-4.5 -0.5q-36 0 -69 33zM-50 649q-22 23 -29.5 46t-2.5 44q8 32 36.5 53.5t62.5 21.5q17 0 34.5 -7.5t32.5 -20.5t24.5 -31.5
t9.5 -39.5q1 -35 -22.5 -62.5t-56.5 -34.5q-5 -1 -9 -1.5t-9 -0.5q-39 0 -71 33zM195 610l6 -613q-42 -1 -84.5 -2t-84.5 -2v619z" />
    <glyph glyph-name="eth" unicode="&#xf0;" horiz-adv-x="545" 
d="M265 124q2 0 5 -0.5t5 -0.5q23 0 40 13t28 35t17 50.5t6 59.5q0 25 -3.5 53.5t-12.5 53t-24 42.5t-38 21q-4 1 -11 1q-20 0 -38 -11.5t-32 -32.5t-22.5 -50.5t-8.5 -66.5q0 -30 4.5 -59t15 -51.5t27.5 -38t42 -18.5zM451 753l-111 -60q28 -45 51.5 -83.5t43.5 -71.5
q54 -88 72.5 -171t7.5 -156q-8 -51 -28.5 -94t-52 -73.5t-74.5 -47.5t-97 -17q-58 2 -105 29.5t-78.5 75t-45.5 112.5t-6 143q5 52 24 95t48 74t67.5 48t81.5 17l-49 68l-85 -45l-64 95l80 44l-46 65q32 18 69.5 37.5t71.5 38.5q5 -8 11 -18q5 -9 13 -21.5t17 -27.5
q23 14 46.5 26.5t45.5 24.5z" />
    <glyph glyph-name="ntilde" unicode="&#xf1;" horiz-adv-x="545" 
d="M36 604q38 -2 71 -3.5t72 -3.5l6 -67q24 38 61 62t84 24h9.5t9.5 -1q85 -11 127 -71.5t42 -177.5q1 -71 -8 -165t-27 -219q-36 5 -75 8t-77 8q14 109 24.5 198t9.5 154q-2 57 -15 89.5t-45 34.5q-37 0 -59.5 -23t-35.5 -56t-18 -69.5t-6 -63.5q-6 -74 -6 -137.5
t-2 -129.5h-152zM504 733q-25 -69 -64.5 -99t-85.5 -30q-35 0 -70 17t-64 49q-13 14 -27 14q-10 0 -19.5 -6.5t-17 -16.5t-13.5 -21t-9 -20q-23 20 -47.5 44t-47.5 46q15 24 33 46.5t39.5 40.5t47 29t55.5 11q31 -2 59.5 -19t53.5 -41q14 -14 29 -14q17 0 31.5 16.5
t22.5 37.5z" />
    <glyph glyph-name="ograve" unicode="&#xf2;" horiz-adv-x="576" 
d="M279 124q3 -1 6.5 -1h6.5q23 0 41.5 12t32 32t21.5 46.5t11 54.5q3 34 -1 67.5t-16.5 62t-33 48t-49.5 24.5q-4 1 -12 1q-21 0 -39 -11t-32.5 -30t-24 -44t-13.5 -53q-7 -34 -5 -69.5t14.5 -65t35.5 -50t57 -24.5zM286 620q70 0 120.5 -29t83.5 -75.5t47.5 -105.5
t12.5 -120q-2 -59 -19.5 -115t-50 -99.5t-81.5 -70t-114 -26.5q-68 2 -117.5 31t-81.5 75.5t-46.5 104.5t-12.5 118q2 59 19 115.5t50 100t80.5 70t109.5 26.5zM442 703q-20 -25 -39.5 -54t-39.5 -56q-57 41 -116 84.5t-116 84.5q26 29 54 62t55 64z" />
    <glyph glyph-name="oacute" unicode="&#xf3;" horiz-adv-x="576" 
d="M279 124q3 -1 6.5 -1h6.5q23 0 41.5 12t32 32t21.5 46.5t11 54.5q3 34 -1 67.5t-16.5 62t-33 48t-49.5 24.5q-4 1 -12 1q-21 0 -39 -11t-32.5 -30t-24 -44t-13.5 -53q-7 -34 -5 -69.5t14.5 -65t35.5 -50t57 -24.5zM286 620q70 0 120.5 -29t83.5 -75.5t47.5 -105.5
t12.5 -120q-2 -59 -19.5 -115t-50 -99.5t-81.5 -70t-114 -26.5q-68 2 -117.5 31t-81.5 75.5t-46.5 104.5t-12.5 118q2 59 19 115.5t50 100t80.5 70t109.5 26.5zM451 763q-56 -40 -115.5 -84t-116.5 -85q-20 26 -39 54.5t-39 55.5l201 184z" />
    <glyph glyph-name="ocircumflex" unicode="&#xf4;" horiz-adv-x="576" 
d="M279 124q3 -1 6.5 -1h6.5q23 0 41.5 12t32 32t21.5 46.5t11 54.5q3 34 -1 67.5t-16.5 62t-33 48t-49.5 24.5q-4 1 -12 1q-21 0 -39 -11t-32.5 -30t-24 -44t-13.5 -53q-7 -34 -5 -69.5t14.5 -65t35.5 -50t57 -24.5zM286 620q70 0 120.5 -29t83.5 -75.5t47.5 -105.5
t12.5 -120q-2 -59 -19.5 -115t-50 -99.5t-81.5 -70t-114 -26.5q-68 2 -117.5 31t-81.5 75.5t-46.5 104.5t-12.5 118q2 59 19 115.5t50 100t80.5 70t109.5 26.5zM406 593l-121 88l-121 -88l-78 108l199 180q48 -43 99 -89t100 -91z" />
    <glyph glyph-name="otilde" unicode="&#xf5;" horiz-adv-x="576" 
d="M279 124q3 -1 6.5 -1h6.5q23 0 41.5 12t32 32t21.5 46.5t11 54.5q3 34 -1 67.5t-16.5 62t-33 48t-49.5 24.5q-4 1 -12 1q-21 0 -39 -11t-32.5 -30t-24 -44t-13.5 -53q-7 -34 -5 -69.5t14.5 -65t35.5 -50t57 -24.5zM286 620q70 0 120.5 -29t83.5 -75.5t47.5 -105.5
t12.5 -120q-2 -59 -19.5 -115t-50 -99.5t-81.5 -70t-114 -26.5q-68 2 -117.5 31t-81.5 75.5t-46.5 104.5t-12.5 118q2 59 19 115.5t50 100t80.5 70t109.5 26.5zM522 737q-25 -69 -64.5 -99t-85.5 -30q-35 0 -70 17t-64 49q-13 14 -27 14q-10 0 -19.5 -6.5t-17 -16.5
t-13.5 -21t-9 -20q-23 20 -47.5 44t-47.5 46q15 24 33 46.5t39.5 40.5t47 29t55.5 11q31 -2 59.5 -19t53.5 -41q14 -14 29 -14q17 0 31.5 16.5t22.5 37.5z" />
    <glyph glyph-name="odieresis" unicode="&#xf6;" horiz-adv-x="576" 
d="M279 124q3 -1 6.5 -1h6.5q23 0 41.5 12t32 32t21.5 46.5t11 54.5q3 34 -1 67.5t-16.5 62t-33 48t-49.5 24.5q-4 1 -12 1q-21 0 -39 -11t-32.5 -30t-24 -44t-13.5 -53q-7 -34 -5 -69.5t14.5 -65t35.5 -50t57 -24.5zM286 620q70 0 120.5 -29t83.5 -75.5t47.5 -105.5
t12.5 -120q-2 -59 -19.5 -115t-50 -99.5t-81.5 -70t-114 -26.5q-68 2 -117.5 31t-81.5 75.5t-46.5 104.5t-12.5 118q2 59 19 115.5t50 100t80.5 70t109.5 26.5zM328 636q-20 20 -27 41t-5 40q5 41 36.5 62.5t69.5 21.5q22 -1 41 -13.5t32 -31t18 -40t-1 -40.5
q-9 -29 -32.5 -49t-53.5 -23q-2 0 -4.5 -0.5t-4.5 -0.5q-36 0 -69 33zM113 636q-22 23 -29.5 46t-2.5 44q8 32 36.5 53.5t62.5 21.5q17 0 34.5 -7.5t32.5 -20.5t24.5 -31.5t9.5 -39.5q1 -35 -22.5 -62.5t-56.5 -34.5q-5 -1 -9 -1.5t-9 -0.5q-39 0 -71 33z" />
    <glyph glyph-name="divide" unicode="&#xf7;" horiz-adv-x="515" 
d="M269 413q-5 -1 -9 -1.5t-9 -0.5q-21 0 -40.5 8.5t-34.5 23t-25.5 33.5t-14.5 40q-4 26 4.5 50.5t25.5 43.5t40 31.5t47 15.5q3 0 6 0.5t6 0.5q21 0 39.5 -8t32.5 -22t23.5 -33t12.5 -41q3 -25 -4.5 -48.5t-22 -43t-34.5 -32.5t-43 -17zM269 34q-5 -1 -9 -1.5t-9 -0.5
q-21 0 -40.5 8.5t-34.5 23t-25.5 33.5t-14.5 40q-4 26 4.5 50t25.5 43t40 31t47 15q5 1 14 1q42 0 71.5 -29t34.5 -73q3 -25 -4.5 -48.5t-22 -43t-34.5 -32.5t-43 -17zM450 424q1 -34 0.5 -70.5t1.5 -71.5q-97 -3 -197.5 -4.5t-197.5 -3.5q-2 32 -2.5 65.5t-2.5 66.5z" />
    <glyph glyph-name="oslash" unicode="&#xf8;" horiz-adv-x="576" 
d="M279 124q3 -1 6.5 -1h6.5q23 0 41.5 12t32 32t21.5 46.5t11 54.5q3 34 -1 67.5t-16.5 62t-33 48t-49.5 24.5q-4 1 -12 1q-21 0 -39 -11t-32.5 -30t-24 -44t-13.5 -53q-7 -34 -5 -69.5t14.5 -65t35.5 -50t57 -24.5zM286 620q70 0 120.5 -29t83.5 -75.5t47.5 -105.5
t12.5 -120q-2 -59 -19.5 -115t-50 -99.5t-81.5 -70t-114 -26.5q-68 2 -117.5 31t-81.5 75.5t-46.5 104.5t-12.5 118q2 59 19 115.5t50 100t80.5 70t109.5 26.5zM544.496 616.684l-387.772 -684.496l-112.579 42.9082l387.772 689.945z" />
    <glyph glyph-name="ugrave" unicode="&#xf9;" horiz-adv-x="524" 
d="M489 -5q-32 2 -68 2.5t-69 2.5l-8 62q-29 -41 -63 -59.5t-84 -18.5q-42 3 -74 24t-53.5 62.5t-32 104t-10.5 149.5q0 60 4 124t15 148q38 2 81.5 4t82.5 4q-5 -36 -11.5 -84t-11 -98.5t-6 -100t4 -89t19.5 -64.5t39 -28q22 0 38.5 9.5t28 25t18 35t6.5 39.5l11 355h152z
M392 684q-20 -25 -39.5 -54t-39.5 -56q-57 41 -116 84.5t-116 84.5q26 29 54 62t55 64z" />
    <glyph glyph-name="uacute" unicode="&#xfa;" horiz-adv-x="524" 
d="M489 -5q-32 2 -68 2.5t-69 2.5l-8 62q-29 -41 -63 -59.5t-84 -18.5q-42 3 -74 24t-53.5 62.5t-32 104t-10.5 149.5q0 60 4 124t15 148q38 2 81.5 4t82.5 4q-5 -36 -11.5 -84t-11 -98.5t-6 -100t4 -89t19.5 -64.5t39 -28q22 0 38.5 9.5t28 25t18 35t6.5 39.5l11 355h152z
M489 734q-56 -40 -115.5 -84t-116.5 -85q-20 26 -39 54.5t-39 55.5l201 184z" />
    <glyph glyph-name="ucircumflex" unicode="&#xfb;" horiz-adv-x="524" 
d="M489 -5q-32 2 -68 2.5t-69 2.5l-8 62q-29 -41 -63 -59.5t-84 -18.5q-42 3 -74 24t-53.5 62.5t-32 104t-10.5 149.5q0 60 4 124t15 148q38 2 81.5 4t82.5 4q-5 -36 -11.5 -84t-11 -98.5t-6 -100t4 -89t19.5 -64.5t39 -28q22 0 38.5 9.5t28 25t18 35t6.5 39.5l11 355h152z
M383 583l-121 88l-121 -88l-78 108l199 180q48 -43 99 -89t100 -91z" />
    <glyph glyph-name="udieresis" unicode="&#xfc;" horiz-adv-x="524" 
d="M489 -5q-32 2 -68 2.5t-69 2.5l-8 62q-29 -41 -63 -59.5t-84 -18.5q-42 3 -74 24t-53.5 62.5t-32 104t-10.5 149.5q0 60 4 124t15 148q38 2 81.5 4t82.5 4q-5 -36 -11.5 -84t-11 -98.5t-6 -100t4 -89t19.5 -64.5t39 -28q22 0 38.5 9.5t28 25t18 35t6.5 39.5l11 355h152z
M316 637q-20 20 -27 41t-5 40q5 41 36.5 62.5t69.5 21.5q22 -1 41 -13.5t32 -31t18 -40t-1 -40.5q-9 -29 -32.5 -49t-53.5 -23q-2 0 -4.5 -0.5t-4.5 -0.5q-36 0 -69 33zM101 637q-22 23 -29.5 46t-2.5 44q8 32 36.5 53.5t62.5 21.5q17 0 34.5 -7.5t32.5 -20.5t24.5 -31.5
t9.5 -39.5q1 -35 -22.5 -62.5t-56.5 -34.5q-5 -1 -9 -1.5t-9 -0.5q-39 0 -71 33z" />
    <glyph glyph-name="yacute" unicode="&#xfd;" horiz-adv-x="536" 
d="M547 583q-74 -198 -148.5 -402.5t-148.5 -403.5q-35 13 -72.5 26t-72.5 27l71 196l-194 513l156 72q31 -91 59.5 -183.5t57.5 -183.5l139 379zM445 736q-56 -40 -115.5 -84t-116.5 -85q-20 26 -39 54.5t-39 55.5l201 184z" />
    <glyph glyph-name="thorn" unicode="&#xfe;" horiz-adv-x="559" 
d="M194 243q4 -18 10.5 -38.5t17.5 -38t27 -29.5t38 -12t38 14.5t27.5 38t17 54t6.5 62.5q0 33 -5.5 65t-16.5 57.5t-28 40.5t-40 15q-24 0 -40.5 -13t-26.5 -32.5t-15.5 -42.5t-8.5 -42q0 -24 -0.5 -49t-0.5 -50zM201 807l-3 -243q47 57 121 57q54 -1 95 -30.5t67.5 -76.5
t39.5 -106t11 -120q-2 -59 -16.5 -114.5t-42 -98.5t-67.5 -69t-93 -26q-79 0 -123 67l-2 -258q-38 -2 -80.5 -5.5t-81.5 -5.5q4 252 6.5 506t7.5 507z" />
    <glyph glyph-name="ydieresis" unicode="&#xff;" horiz-adv-x="536" 
d="M547 583q-74 -198 -148.5 -402.5t-148.5 -403.5q-35 13 -72.5 26t-72.5 27l71 196l-194 513l156 72q31 -91 59.5 -183.5t57.5 -183.5l139 379zM304 637q-20 20 -27 41t-5 40q5 41 36.5 62.5t69.5 21.5q22 -1 41 -13.5t32 -31t18 -40t-1 -40.5q-9 -29 -32.5 -49t-53.5 -23
q-2 0 -4.5 -0.5t-4.5 -0.5q-36 0 -69 33zM89 637q-22 23 -29.5 46t-2.5 44q8 32 36.5 53.5t62.5 21.5q17 0 34.5 -7.5t32.5 -20.5t24.5 -31.5t9.5 -39.5q1 -35 -22.5 -62.5t-56.5 -34.5q-5 -1 -9 -1.5t-9 -0.5q-39 0 -71 33z" />
    <glyph glyph-name="Amacron" unicode="&#x100;" horiz-adv-x="636" 
d="M232 236l186 14l-75 325zM252 776q45 -3 85.5 -6t82.5 -5l227 -765q-41 -8 -80.5 -16.5t-80.5 -18.5l-33 137l-270 -14l-39 -123l-142 20zM511 934q-1 -35 -2 -74t-2 -76q-86 -3 -174 -4.5t-175 -3.5q-2 35 -1.5 71t-0.5 74z" />
    <glyph glyph-name="amacron" unicode="&#x101;" horiz-adv-x="557" 
d="M339 197v60t3 39q-28 -5 -57 -14.5t-53 -25t-39 -37t-15 -50.5q0 -28 15.5 -43t37.5 -15q18 0 34.5 8t30.5 20t25 27.5t18 30.5zM60 518q66 55 124.5 80t109.5 25q50 0 86 -20.5t59.5 -54.5t35 -76.5t11.5 -87.5q0 -42 -2.5 -78t-2.5 -68q0 -47 12.5 -79t57.5 -55
q-21 -27 -45 -56t-45 -57q-36 12 -59.5 29.5t-38.5 43.5q-71 -76 -152 -81h-12q-35 0 -66.5 12.5t-55 35.5t-37.5 56t-14 74q0 103 80.5 167.5t235.5 91.5q-7 35 -24.5 50.5t-46.5 15.5q-21 0 -43 -6.5t-43 -16.5t-39.5 -23t-33.5 -27zM455 788q-1 -35 -2 -74t-2 -76
q-86 -3 -174 -4.5t-175 -3.5q-2 35 -1.5 71t-0.5 74z" />
    <glyph glyph-name="Abreve" unicode="&#x102;" horiz-adv-x="636" 
d="M232 236l186 14l-75 325zM252 776q45 -3 85.5 -6t82.5 -5l227 -765q-41 -8 -80.5 -16.5t-80.5 -18.5l-33 137l-270 -14l-39 -123l-142 20zM531 909q4 -52 -10.5 -91.5t-41 -65.5t-61 -40t-71.5 -15h-7q-37 0 -72.5 12t-63 36t-44.5 59.5t-16 82.5l143 14q8 -44 24 -63
t31 -19q3 0 9 2q12 5 20 16t13.5 25.5t7.5 29t2 24.5z" />
    <glyph glyph-name="abreve" unicode="&#x103;" horiz-adv-x="557" 
d="M339 197v60t3 39q-28 -5 -57 -14.5t-53 -25t-39 -37t-15 -50.5q0 -28 15.5 -43t37.5 -15q18 0 34.5 8t30.5 20t25 27.5t18 30.5zM60 518q66 55 124.5 80t109.5 25q50 0 86 -20.5t59.5 -54.5t35 -76.5t11.5 -87.5q0 -42 -2.5 -78t-2.5 -68q0 -47 12.5 -79t57.5 -55
q-21 -27 -45 -56t-45 -57q-36 12 -59.5 29.5t-38.5 43.5q-71 -76 -152 -81h-12q-35 0 -66.5 12.5t-55 35.5t-37.5 56t-14 74q0 103 80.5 167.5t235.5 91.5q-7 35 -24.5 50.5t-46.5 15.5q-21 0 -43 -6.5t-43 -16.5t-39.5 -23t-33.5 -27zM465 737q4 -52 -10.5 -91.5t-41 -65.5
t-61 -40t-71.5 -15h-7q-37 0 -72.5 12t-63 36t-44.5 59.5t-16 82.5l143 14q8 -44 24 -63t31 -19q3 0 9 2q12 5 20 16t13.5 25.5t7.5 29t2 24.5z" />
    <glyph glyph-name="Aogonek" unicode="&#x104;" horiz-adv-x="636" 
d="M232 236l186 14l-75 325zM252 776q45 -3 85.5 -6t82.5 -5l227 -765q-41 -8 -80.5 -16.5t-80.5 -18.5l-33 137l-270 -14l-39 -123l-142 20zM589 -267q-6 0 -11.5 -0.5t-11.5 -0.5q-58 0 -100.5 18.5t-68 48t-35 66.5t-3.5 74q6 31 22 59t42.5 50t63.5 34.5t85 12.5
l11 -105q-54 -9 -74.5 -32.5t-12.5 -49.5q5 -19 24 -29.5t49 -10.5q7 0 13.5 0.5t13.5 1.5z" />
    <glyph glyph-name="aogonek" unicode="&#x105;" horiz-adv-x="557" 
d="M339 197v60t3 39q-28 -5 -57 -14.5t-53 -25t-39 -37t-15 -50.5q0 -28 15.5 -43t37.5 -15q18 0 34.5 8t30.5 20t25 27.5t18 30.5zM60 518q66 55 124.5 80t109.5 25q50 0 86 -20.5t59.5 -54.5t35 -76.5t11.5 -87.5q0 -42 -2.5 -78t-2.5 -68q0 -47 12.5 -79t57.5 -55
q-21 -27 -45 -56t-45 -57q-36 12 -59.5 29.5t-38.5 43.5q-71 -76 -152 -81h-12q-35 0 -66.5 12.5t-55 35.5t-37.5 56t-14 74q0 103 80.5 167.5t235.5 91.5q-7 35 -24.5 50.5t-46.5 15.5q-21 0 -43 -6.5t-43 -16.5t-39.5 -23t-33.5 -27zM572 -258q-6 0 -11.5 -0.5t-11.5 -0.5
q-58 0 -100.5 18.5t-68 48t-35 66.5t-3.5 74q6 31 22 59t42.5 50t63.5 34.5t85 12.5l11 -105q-54 -9 -74.5 -32.5t-12.5 -49.5q5 -19 24 -29.5t49 -10.5q7 0 13.5 0.5t13.5 1.5z" />
    <glyph glyph-name="Cacute" unicode="&#x106;" horiz-adv-x="556" 
d="M479 578q-26 29 -54.5 42t-59.5 13h-9t-9 -1q-34 -2 -65.5 -22t-55 -56t-37 -88.5t-12.5 -119.5q2 -56 13.5 -97.5t31 -69.5t45.5 -42t55 -16q89 0 145 68l75 -117q-41 -51 -100 -78.5t-124 -27.5q-54 0 -106 22.5t-92.5 68t-65.5 115.5t-25 164q0 114 26 198t69 139.5
t99 83.5t116 31q5 1 10.5 1h10.5q54 0 106.5 -20t97.5 -56zM530 865q-56 -40 -115.5 -84t-116.5 -85q-20 26 -39 54.5t-39 55.5l201 184z" />
    <glyph glyph-name="cacute" unicode="&#x107;" horiz-adv-x="518" 
d="M385 398q-14 40 -39 67t-70 27q-27 0 -48.5 -14.5t-35.5 -41t-20.5 -63.5t-4.5 -82q2 -77 33.5 -124.5t81.5 -47.5q21 0 38.5 9t30.5 22t22 28t14 28l122 -78q-12 -24 -32 -50t-48 -48t-65.5 -36.5t-84.5 -14.5q-73 -1 -125 33.5t-84 90t-43.5 123.5t-2.5 135
q7 52 26.5 99t51.5 82.5t76 56.5t100 21q50 0 87.5 -12.5t65 -33.5t46 -49t29.5 -60zM482 756q-56 -40 -115.5 -84t-116.5 -85q-20 26 -39 54.5t-39 55.5l201 184z" />
    <glyph glyph-name="Ccircumflex" unicode="&#x108;" horiz-adv-x="556" 
d="M479 578q-26 29 -54.5 42t-59.5 13h-9t-9 -1q-34 -2 -65.5 -22t-55 -56t-37 -88.5t-12.5 -119.5q2 -56 13.5 -97.5t31 -69.5t45.5 -42t55 -16q89 0 145 68l75 -117q-41 -51 -100 -78.5t-124 -27.5q-54 0 -106 22.5t-92.5 68t-65.5 115.5t-25 164q0 114 26 198t69 139.5
t99 83.5t116 31q5 1 10.5 1h10.5q54 0 106.5 -20t97.5 -56zM472 739l-121 88l-121 -88l-78 108l199 180q48 -43 99 -89t100 -91z" />
    <glyph glyph-name="ccircumflex" unicode="&#x109;" horiz-adv-x="518" 
d="M385 398q-14 40 -39 67t-70 27q-27 0 -48.5 -14.5t-35.5 -41t-20.5 -63.5t-4.5 -82q2 -77 33.5 -124.5t81.5 -47.5q21 0 38.5 9t30.5 22t22 28t14 28l122 -78q-12 -24 -32 -50t-48 -48t-65.5 -36.5t-84.5 -14.5q-73 -1 -125 33.5t-84 90t-43.5 123.5t-2.5 135
q7 52 26.5 99t51.5 82.5t76 56.5t100 21q50 0 87.5 -12.5t65 -33.5t46 -49t29.5 -60zM409 577l-121 88l-121 -88l-78 108l199 180q48 -43 99 -89t100 -91z" />
    <glyph glyph-name="Cdotaccent" unicode="&#x10a;" horiz-adv-x="556" 
d="M479 578q-26 29 -54.5 42t-59.5 13h-9t-9 -1q-34 -2 -65.5 -22t-55 -56t-37 -88.5t-12.5 -119.5q2 -56 13.5 -97.5t31 -69.5t45.5 -42t55 -16q89 0 145 68l75 -117q-41 -51 -100 -78.5t-124 -27.5q-54 0 -106 22.5t-92.5 68t-65.5 115.5t-25 164q0 114 26 198t69 139.5
t99 83.5t116 31q5 1 10.5 1h10.5q54 0 106.5 -20t97.5 -56zM248 862q-2 13 2 30.5t15 33t30.5 26.5t48.5 11h10q20 -1 38 -12t31 -28t19 -37.5t2 -40.5q-7 -34 -34.5 -56.5t-62.5 -22.5q-47 0 -70.5 24.5t-28.5 71.5z" />
    <glyph glyph-name="cdotaccent" unicode="&#x10b;" horiz-adv-x="518" 
d="M385 398q-14 40 -39 67t-70 27q-27 0 -48.5 -14.5t-35.5 -41t-20.5 -63.5t-4.5 -82q2 -77 33.5 -124.5t81.5 -47.5q21 0 38.5 9t30.5 22t22 28t14 28l122 -78q-12 -24 -32 -50t-48 -48t-65.5 -36.5t-84.5 -14.5q-73 -1 -125 33.5t-84 90t-43.5 123.5t-2.5 135
q7 52 26.5 99t51.5 82.5t76 56.5t100 21q50 0 87.5 -12.5t65 -33.5t46 -49t29.5 -60zM185 696q-2 13 2 30.5t15 33t30.5 26.5t48.5 11h10q20 -1 38 -12t31 -28t19 -37.5t2 -40.5q-7 -34 -34.5 -56.5t-62.5 -22.5q-47 0 -70.5 24.5t-28.5 71.5z" />
    <glyph glyph-name="Ccaron" unicode="&#x10c;" horiz-adv-x="556" 
d="M479 578q-26 29 -54.5 42t-59.5 13h-9t-9 -1q-34 -2 -65.5 -22t-55 -56t-37 -88.5t-12.5 -119.5q2 -56 13.5 -97.5t31 -69.5t45.5 -42t55 -16q89 0 145 68l75 -117q-41 -51 -100 -78.5t-124 -27.5q-54 0 -106 22.5t-92.5 68t-65.5 115.5t-25 164q0 114 26 198t69 139.5
t99 83.5t116 31q5 1 10.5 1h10.5q54 0 106.5 -20t97.5 -56zM210 960l122 -87l120 87l78 -109l-198 -180l-199 180z" />
    <glyph glyph-name="ccaron" unicode="&#x10d;" horiz-adv-x="518" 
d="M385 398q-14 40 -39 67t-70 27q-27 0 -48.5 -14.5t-35.5 -41t-20.5 -63.5t-4.5 -82q2 -77 33.5 -124.5t81.5 -47.5q21 0 38.5 9t30.5 22t22 28t14 28l122 -78q-12 -24 -32 -50t-48 -48t-65.5 -36.5t-84.5 -14.5q-73 -1 -125 33.5t-84 90t-43.5 123.5t-2.5 135
q7 52 26.5 99t51.5 82.5t76 56.5t100 21q50 0 87.5 -12.5t65 -33.5t46 -49t29.5 -60zM162 830l122 -87l120 87l78 -109l-198 -180l-199 180z" />
    <glyph glyph-name="Dcaron" unicode="&#x10e;" horiz-adv-x="631" 
d="M199 124q5 0 9.5 -0.5t9.5 -0.5q59 0 102 20t71.5 57t42 88.5t13.5 114.5q0 45 -9 87.5t-30 75.5t-55 53.5t-84 20.5q-22 0 -44 -3t-45 -7zM272 778q86 -6 148.5 -39.5t103.5 -87.5t60.5 -125.5t20.5 -154.5q1 -92 -29.5 -166t-83.5 -125.5t-125 -79.5t-153 -28l-165 10
l-20 772q4 0 28.5 3.5t58 8.5t71 9t67.5 4q5 0 9 -0.5t9 -0.5zM136 974l122 -87l120 87l78 -109l-198 -180l-199 180z" />
    <glyph glyph-name="dcaron" unicode="&#x10f;" horiz-adv-x="730" 
d="M546 815q-4 -95 -8 -188q-1 -40 -2.5 -83t-2 -85.5t-1 -82.5t-0.5 -74q0 -22 -0.5 -49.5t5 -53t20 -45.5t44.5 -27l-56 -134q-15 1 -33 5t-36.5 13t-36 24t-32.5 37q-29 -46 -66 -69.5t-89 -23.5q-51 0 -91 21.5t-68 58t-44.5 84.5t-21.5 100q-6 67 5.5 134.5t40 121.5
t74 88t108.5 33q19 0 38.5 -4.5t37.5 -13t32 -21t21 -29.5q2 47 2.5 92t1.5 81q1 41 2 79v-8zM279 124q29 0 48 19t31 46t17 57t6 52q3 78 -22.5 125.5t-70.5 47.5q-24 0 -42.5 -13.5t-32 -37t-20.5 -53.5t-9 -62q-2 -34 3 -66.5t17 -58t31 -41t44 -15.5zM777 813l-44 -333
q-35 -1 -73 -2t-73 -2l-4 344z" />
    <glyph glyph-name="Dcroat" unicode="&#x110;" horiz-adv-x="631" 
d="M199 124q5 0 9.5 -0.5t9.5 -0.5q59 0 102 20t71.5 57t42 88.5t13.5 114.5q0 45 -9 87.5t-30 75.5t-55 53.5t-84 20.5q-22 0 -44 -3t-45 -7zM272 778q86 -6 148.5 -39.5t103.5 -87.5t60.5 -125.5t20.5 -154.5q1 -92 -29.5 -166t-83.5 -125.5t-125 -79.5t-153 -28l-165 10
l-20 772q4 0 28.5 3.5t58 8.5t71 9t67.5 4q5 0 9 -0.5t9 -0.5zM318 426q-1 -35 -2 -74t-2 -76q-86 -3 -174 -4.5t-175 -3.5q-2 35 -1.5 71t-0.5 74z" />
    <glyph glyph-name="dcroat" unicode="&#x111;" horiz-adv-x="613" 
d="M546 815q-4 -95 -8 -188q-1 -40 -2.5 -83t-2 -85.5t-1 -82.5t-0.5 -74q0 -22 -0.5 -49.5t5 -53t20 -45.5t44.5 -27l-56 -134q-15 1 -33 5t-36.5 13t-36 24t-32.5 37q-29 -46 -66 -69.5t-89 -23.5q-51 0 -91 21.5t-68 58t-44.5 84.5t-21.5 100q-6 67 5.5 134.5t40 121.5
t74 88t108.5 33q19 0 38.5 -4.5t37.5 -13t32 -21t21 -29.5q2 47 2.5 92t1.5 81q1 41 2 79v-8zM279 124q29 0 48 19t31 46t17 57t6 52q3 78 -22.5 125.5t-70.5 47.5q-24 0 -42.5 -13.5t-32 -37t-20.5 -53.5t-9 -62q-2 -34 3 -66.5t17 -58t31 -41t44 -15.5zM614.017 763.806
q-1.08691 -28.5762 -2.17383 -60.5371q-1.08789 -31.9609 -2.1748 -61.2891q-79.3711 -2.25586 -156.568 -3.38379q-77.1973 -1.12891 -157.656 -2.63281q-2.17383 28.5771 -1.63086 58.2812q0.543945 29.7051 -0.542969 59.0332z" />
    <glyph glyph-name="Emacron" unicode="&#x112;" horiz-adv-x="541" 
d="M428 475q2 -35 4 -71t4 -71q-64 -5 -126.5 -10t-125.5 -9l-5 -189l318 19q4 -40 7.5 -77.5t5.5 -75.5q-120 -7 -240 -12t-241 -10l17 812l451 -13q-2 -35 -3 -67.5t-2 -67.5l-298 11l-7 -182zM448 959q-1 -35 -2 -74t-2 -76q-86 -3 -174 -4.5t-175 -3.5q-2 35 -1.5 71
t-0.5 74z" />
    <glyph glyph-name="emacron" unicode="&#x113;" horiz-adv-x="554" 
d="M378 368q0 20 -5 39t-15.5 34t-26.5 24.5t-39 9.5q-36 0 -65 -25t-37 -73zM274 118q15 0 28.5 2t28 8.5t31 19t36.5 32.5l102 -91q-37 -50 -92 -81.5t-133 -31.5q-65 0 -112.5 28t-78.5 74.5t-45 105.5t-12 121q2 60 20.5 117t52.5 101.5t83.5 71.5t115.5 27
q77 0 127.5 -35.5t76 -91.5t26.5 -124.5t-20 -134.5q-85 1 -167 0.5t-167 1.5q4 -52 30.5 -86t68.5 -34zM472 774q-1 -35 -2 -74t-2 -76q-86 -3 -174 -4.5t-175 -3.5q-2 35 -1.5 71t-0.5 74z" />
    <glyph glyph-name="Edotaccent" unicode="&#x116;" horiz-adv-x="541" 
d="M428 475q2 -35 4 -71t4 -71q-64 -5 -126.5 -10t-125.5 -9l-5 -189l318 19q4 -40 7.5 -77.5t5.5 -75.5q-120 -7 -240 -12t-241 -10l17 812l451 -13q-2 -35 -3 -67.5t-2 -67.5l-298 11l-7 -182zM180 869q-2 13 2 30.5t15 33t30.5 26.5t48.5 11h10q20 -1 38 -12t31 -28
t19 -37.5t2 -40.5q-7 -34 -34.5 -56.5t-62.5 -22.5q-47 0 -70.5 24.5t-28.5 71.5z" />
    <glyph glyph-name="edotaccent" unicode="&#x117;" horiz-adv-x="554" 
d="M378 368q0 20 -5 39t-15.5 34t-26.5 24.5t-39 9.5q-36 0 -65 -25t-37 -73zM274 118q15 0 28.5 2t28 8.5t31 19t36.5 32.5l102 -91q-37 -50 -92 -81.5t-133 -31.5q-65 0 -112.5 28t-78.5 74.5t-45 105.5t-12 121q2 60 20.5 117t52.5 101.5t83.5 71.5t115.5 27
q77 0 127.5 -35.5t76 -91.5t26.5 -124.5t-20 -134.5q-85 1 -167 0.5t-167 1.5q4 -52 30.5 -86t68.5 -34zM201 709q-2 13 2 30.5t15 33t30.5 26.5t48.5 11h10q20 -1 38 -12t31 -28t19 -37.5t2 -40.5q-7 -34 -34.5 -56.5t-62.5 -22.5q-47 0 -70.5 24.5t-28.5 71.5z" />
    <glyph glyph-name="Eogonek" unicode="&#x118;" horiz-adv-x="541" 
d="M428 475q2 -35 4 -71t4 -71q-64 -5 -126.5 -10t-125.5 -9l-5 -189l318 19q4 -40 7.5 -77.5t5.5 -75.5q-120 -7 -240 -12t-241 -10l17 812l451 -13q-2 -35 -3 -67.5t-2 -67.5l-298 11l-7 -182zM393 -250q-6 0 -11.5 -0.5t-11.5 -0.5q-58 0 -100.5 18.5t-68 48t-35 66.5
t-3.5 74q6 31 22 59t42.5 50t63.5 34.5t85 12.5l11 -105q-54 -9 -74.5 -32.5t-12.5 -49.5q5 -19 24 -29.5t49 -10.5q7 0 13.5 0.5t13.5 1.5z" />
    <glyph glyph-name="eogonek" unicode="&#x119;" horiz-adv-x="554" 
d="M378 368q0 20 -5 39t-15.5 34t-26.5 24.5t-39 9.5q-36 0 -65 -25t-37 -73zM274 118q15 0 28.5 2t28 8.5t31 19t36.5 32.5l102 -91q-37 -50 -92 -81.5t-133 -31.5q-65 0 -112.5 28t-78.5 74.5t-45 105.5t-12 121q2 60 20.5 117t52.5 101.5t83.5 71.5t115.5 27
q77 0 127.5 -35.5t76 -91.5t26.5 -124.5t-20 -134.5q-85 1 -167 0.5t-167 1.5q4 -52 30.5 -86t68.5 -34zM369 -255q-6 0 -11.5 -0.5t-11.5 -0.5q-58 0 -100.5 18.5t-68 48t-35 66.5t-3.5 74q6 31 22 59t42.5 50t63.5 34.5t85 12.5l11 -105q-54 -9 -74.5 -32.5t-12.5 -49.5
q5 -19 24 -29.5t49 -10.5q7 0 13.5 0.5t13.5 1.5z" />
    <glyph glyph-name="Ecaron" unicode="&#x11a;" horiz-adv-x="541" 
d="M428 475q2 -35 4 -71t4 -71q-64 -5 -126.5 -10t-125.5 -9l-5 -189l318 19q4 -40 7.5 -77.5t5.5 -75.5q-120 -7 -240 -12t-241 -10l17 812l451 -13q-2 -35 -3 -67.5t-2 -67.5l-298 11l-7 -182zM155 978l122 -87l120 87l78 -109l-198 -180l-199 180z" />
    <glyph glyph-name="ecaron" unicode="&#x11b;" horiz-adv-x="554" 
d="M378 368q0 20 -5 39t-15.5 34t-26.5 24.5t-39 9.5q-36 0 -65 -25t-37 -73zM274 118q15 0 28.5 2t28 8.5t31 19t36.5 32.5l102 -91q-37 -50 -92 -81.5t-133 -31.5q-65 0 -112.5 28t-78.5 74.5t-45 105.5t-12 121q2 60 20.5 117t52.5 101.5t83.5 71.5t115.5 27
q77 0 127.5 -35.5t76 -91.5t26.5 -124.5t-20 -134.5q-85 1 -167 0.5t-167 1.5q4 -52 30.5 -86t68.5 -34zM180 818l122 -87l120 87l78 -109l-198 -180l-199 180z" />
    <glyph glyph-name="Gcircumflex" unicode="&#x11c;" horiz-adv-x="608" 
d="M506 590q-58 46 -122 46q-41 0 -79.5 -18.5t-68.5 -55.5t-48.5 -92t-18.5 -127q0 -58 15 -102t39 -73t55.5 -43.5t64.5 -14.5q40 0 76 25l15 158l-120 10l18 129l246 -12q-6 -88 -12 -174t-12 -174q-42 -52 -99 -79t-120 -27q-78 0 -135.5 31t-96 82.5t-57 118.5
t-18.5 138q0 121 30 206.5t78.5 139.5t111 78.5t128.5 24.5q54 0 105.5 -15.5t96.5 -46.5zM494 735l-121 88l-121 -88l-78 108l199 180q48 -43 99 -89t100 -91z" />
    <glyph glyph-name="gcircumflex" unicode="&#x11d;" horiz-adv-x="571" 
d="M386 362q-4 23 -12 43.5t-21 36t-31.5 24.5t-44.5 9q-25 -2 -42.5 -16.5t-28 -36.5t-16 -49.5t-6.5 -57.5q-4 -100 24.5 -148t82.5 -48q24 0 42.5 14t31.5 34.5t20.5 44.5t8.5 44q-2 26 -4 52.5t-4 53.5zM518 602q3 -27 7.5 -73.5t8.5 -103.5t7 -119.5t3 -121.5t-3 -108
t-12 -83q-25 -95 -95 -146.5t-166 -51.5q-50 0 -98.5 14t-91.5 37l56 132q62 -38 124 -38q28 0 53 9t43.5 27t29.5 45t11 64q-29 -41 -71 -62.5t-88 -21.5q-40 0 -78 18t-67.5 56t-47 97.5t-16.5 143.5q0 56 13 109.5t39.5 95.5t66.5 69.5t94 31.5q5 1 8.5 1h8.5
q45 0 83 -20.5t56 -55.5l11 53zM398 582l-121 88l-121 -88l-78 108l199 180q48 -43 99 -89t100 -91z" />
    <glyph glyph-name="Gbreve" unicode="&#x11e;" horiz-adv-x="608" 
d="M506 590q-58 46 -122 46q-41 0 -79.5 -18.5t-68.5 -55.5t-48.5 -92t-18.5 -127q0 -58 15 -102t39 -73t55.5 -43.5t64.5 -14.5q40 0 76 25l15 158l-120 10l18 129l246 -12q-6 -88 -12 -174t-12 -174q-42 -52 -99 -79t-120 -27q-78 0 -135.5 31t-96 82.5t-57 118.5
t-18.5 138q0 121 30 206.5t78.5 139.5t111 78.5t128.5 24.5q54 0 105.5 -15.5t96.5 -46.5zM572 924q4 -52 -10.5 -91.5t-41 -65.5t-61 -40t-71.5 -15h-7q-37 0 -72.5 12t-63 36t-44.5 59.5t-16 82.5l143 14q8 -44 24 -63t31 -19q3 0 9 2q12 5 20 16t13.5 25.5t7.5 29t2 24.5
z" />
    <glyph glyph-name="gbreve" unicode="&#x11f;" horiz-adv-x="571" 
d="M386 362q-4 23 -12 43.5t-21 36t-31.5 24.5t-44.5 9q-25 -2 -42.5 -16.5t-28 -36.5t-16 -49.5t-6.5 -57.5q-4 -100 24.5 -148t82.5 -48q24 0 42.5 14t31.5 34.5t20.5 44.5t8.5 44q-2 26 -4 52.5t-4 53.5zM518 602q3 -27 7.5 -73.5t8.5 -103.5t7 -119.5t3 -121.5t-3 -108
t-12 -83q-25 -95 -95 -146.5t-166 -51.5q-50 0 -98.5 14t-91.5 37l56 132q62 -38 124 -38q28 0 53 9t43.5 27t29.5 45t11 64q-29 -41 -71 -62.5t-88 -21.5q-40 0 -78 18t-67.5 56t-47 97.5t-16.5 143.5q0 56 13 109.5t39.5 95.5t66.5 69.5t94 31.5q5 1 8.5 1h8.5
q45 0 83 -20.5t56 -55.5l11 53zM468 762q4 -52 -10.5 -91.5t-41 -65.5t-61 -40t-71.5 -15h-7q-37 0 -72.5 12t-63 36t-44.5 59.5t-16 82.5l143 14q8 -44 24 -63t31 -19q3 0 9 2q12 5 20 16t13.5 25.5t7.5 29t2 24.5z" />
    <glyph glyph-name="Gdotaccent" unicode="&#x120;" horiz-adv-x="608" 
d="M506 590q-58 46 -122 46q-41 0 -79.5 -18.5t-68.5 -55.5t-48.5 -92t-18.5 -127q0 -58 15 -102t39 -73t55.5 -43.5t64.5 -14.5q40 0 76 25l15 158l-120 10l18 129l246 -12q-6 -88 -12 -174t-12 -174q-42 -52 -99 -79t-120 -27q-78 0 -135.5 31t-96 82.5t-57 118.5
t-18.5 138q0 121 30 206.5t78.5 139.5t111 78.5t128.5 24.5q54 0 105.5 -15.5t96.5 -46.5zM266 864q-2 13 2 30.5t15 33t30.5 26.5t48.5 11h10q20 -1 38 -12t31 -28t19 -37.5t2 -40.5q-7 -34 -34.5 -56.5t-62.5 -22.5q-47 0 -70.5 24.5t-28.5 71.5z" />
    <glyph glyph-name="gdotaccent" unicode="&#x121;" horiz-adv-x="571" 
d="M386 362q-4 23 -12 43.5t-21 36t-31.5 24.5t-44.5 9q-25 -2 -42.5 -16.5t-28 -36.5t-16 -49.5t-6.5 -57.5q-4 -100 24.5 -148t82.5 -48q24 0 42.5 14t31.5 34.5t20.5 44.5t8.5 44q-2 26 -4 52.5t-4 53.5zM518 602q3 -27 7.5 -73.5t8.5 -103.5t7 -119.5t3 -121.5t-3 -108
t-12 -83q-25 -95 -95 -146.5t-166 -51.5q-50 0 -98.5 14t-91.5 37l56 132q62 -38 124 -38q28 0 53 9t43.5 27t29.5 45t11 64q-29 -41 -71 -62.5t-88 -21.5q-40 0 -78 18t-67.5 56t-47 97.5t-16.5 143.5q0 56 13 109.5t39.5 95.5t66.5 69.5t94 31.5q5 1 8.5 1h8.5
q45 0 83 -20.5t56 -55.5l11 53zM174 707q-2 13 2 30.5t15 33t30.5 26.5t48.5 11h10q20 -1 38 -12t31 -28t19 -37.5t2 -40.5q-7 -34 -34.5 -56.5t-62.5 -22.5q-47 0 -70.5 24.5t-28.5 71.5z" />
    <glyph glyph-name="uni0122" unicode="&#x122;" horiz-adv-x="608" 
d="M506 590q-58 46 -122 46q-41 0 -79.5 -18.5t-68.5 -55.5t-48.5 -92t-18.5 -127q0 -58 15 -102t39 -73t55.5 -43.5t64.5 -14.5q40 0 76 25l15 158l-120 10l18 129l246 -12q-6 -88 -12 -174t-12 -174q-42 -52 -99 -79t-120 -27q-78 0 -135.5 31t-96 82.5t-57 118.5
t-18.5 138q0 121 30 206.5t78.5 139.5t111 78.5t128.5 24.5q54 0 105.5 -15.5t96.5 -46.5zM417.188 -53.1455l-41.5615 -221.45l-138.537 -1.98926l-3.69434 228.081z" />
    <glyph glyph-name="uni0123" unicode="&#x123;" horiz-adv-x="571" 
d="M386 362q-4 23 -12 43.5t-21 36t-31.5 24.5t-44.5 9q-25 -2 -42.5 -16.5t-28 -36.5t-16 -49.5t-6.5 -57.5q-4 -100 24.5 -148t82.5 -48q24 0 42.5 14t31.5 34.5t20.5 44.5t8.5 44q-2 26 -4 52.5t-4 53.5zM518 602q3 -27 7.5 -73.5t8.5 -103.5t7 -119.5t3 -121.5t-3 -108
t-12 -83q-25 -95 -95 -146.5t-166 -51.5q-50 0 -98.5 14t-91.5 37l56 132q62 -38 124 -38q28 0 53 9t43.5 27t29.5 45t11 64q-29 -41 -71 -62.5t-88 -21.5q-40 0 -78 18t-67.5 56t-47 97.5t-16.5 143.5q0 56 13 109.5t39.5 95.5t66.5 69.5t94 31.5q5 1 8.5 1h8.5
q45 0 83 -20.5t56 -55.5l11 53zM186.825 657.159l41.5586 221.43l138.528 1.98926l3.69434 -228.06z" />
    <glyph glyph-name="Hcircumflex" unicode="&#x124;" horiz-adv-x="610" 
d="M581 -12l-151 -4l-12 310l-224 -11l10 -292l-160 -19q-4 200 -8 393.5t-8 393.5l156 11l8 -335l223 16l-14 317h159zM414.916 744.091l-117.078 75.4854l-117.079 -75.4854l-75.4717 92.6406l192.551 154.402q46.4443 -36.8857 95.791 -76.3438t96.7588 -78.0586z" />
    <glyph glyph-name="hcircumflex" unicode="&#x125;" horiz-adv-x="547" 
d="M201 807l-17 -280q23 40 60.5 64t88.5 25q95 -1 142.5 -81t45.5 -258q-2 -57 -6.5 -127.5t-13.5 -152.5l-160 -7q10 116 17 212.5t1 163.5q-5 50 -20.5 76t-44.5 27q-21 0 -37.5 -14t-29 -35t-21 -45.5t-13.5 -47.5q-2 -85 -2.5 -167.5t-2.5 -165.5q-38 -2 -80.5 -2.5
t-81.5 -2.5q4 198 6.5 402.5t7.5 403.5zM386.108 627.718l-110.425 74.6738l-110.424 -74.6738l-71.1826 91.6455l181.606 152.743q43.8047 -36.4893 90.3477 -75.5234t91.2598 -77.2197z" />
    <glyph glyph-name="Hbar" unicode="&#x126;" horiz-adv-x="610" 
d="M581 -12l-151 -4l-12 310l-224 -11l10 -292l-160 -19q-4 200 -8 393.5t-8 393.5l156 11l8 -335l223 16l-14 317h159zM621.329 649.293q-1.80957 -34.3916 -3.62012 -72.7129q-1.80957 -38.3213 -3.62012 -74.6777q-155.659 -2.94824 -314.939 -4.42188
q-159.279 -1.47461 -316.749 -3.43945q-3.62012 34.3916 -2.71582 69.7646q0.905273 35.374 -0.904297 72.7129z" />
    <glyph glyph-name="hbar" unicode="&#x127;" horiz-adv-x="547" 
d="M201 807l-17 -280q23 40 60.5 64t88.5 25q95 -1 142.5 -81t45.5 -258q-2 -57 -6.5 -127.5t-13.5 -152.5l-160 -7q10 116 17 212.5t1 163.5q-5 50 -20.5 76t-44.5 27q-21 0 -37.5 -14t-29 -35t-21 -45.5t-13.5 -47.5q-2 -85 -2.5 -167.5t-2.5 -165.5q-38 -2 -80.5 -2.5
t-81.5 -2.5q4 198 6.5 402.5t7.5 403.5zM342.17 742.098q-0.993164 -28.6084 -1.98633 -60.4863q-0.992188 -31.8779 -1.98535 -62.1211q-85.3809 -2.45215 -172.747 -3.67773q-87.3662 -1.22656 -173.739 -2.86133q-1.98535 28.6084 -1.48926 58.0342t-0.496094 60.4863z
" />
    <glyph glyph-name="Itilde" unicode="&#x128;" horiz-adv-x="260" 
d="M222 -14q-41 -1 -79.5 -1t-79.5 -1l-30 784h168zM352 889q-25 -69 -64.5 -99t-85.5 -30q-35 0 -70 17t-64 49q-13 14 -27 14q-10 0 -19.5 -6.5t-17 -16.5t-13.5 -21t-9 -20q-23 20 -47.5 44t-47.5 46q15 24 33 46.5t39.5 40.5t47 29t55.5 11q31 -2 59.5 -19t53.5 -41
q14 -14 29 -14q17 0 31.5 16.5t22.5 37.5z" />
    <glyph glyph-name="itilde" unicode="&#x129;" horiz-adv-x="233" 
d="M349 745q-25 -69 -64.5 -99t-85.5 -30q-35 0 -70 17t-64 49q-13 14 -27 14q-10 0 -19.5 -6.5t-17 -16.5t-13.5 -21t-9 -20q-23 20 -47.5 44t-47.5 46q15 24 33 46.5t39.5 40.5t47 29t55.5 11q31 -2 59.5 -19t53.5 -41q14 -14 29 -14q17 0 31.5 16.5t22.5 37.5zM195 610
l6 -613q-42 -1 -84.5 -2t-84.5 -2v619z" />
    <glyph glyph-name="Imacron" unicode="&#x12a;" horiz-adv-x="260" 
d="M222 -14q-41 -1 -79.5 -1t-79.5 -1l-30 784h168zM300 962q-1 -35 -2 -74t-2 -76q-86 -3 -174 -4.5t-175 -3.5q-2 35 -1.5 71t-0.5 74z" />
    <glyph glyph-name="imacron" unicode="&#x12b;" horiz-adv-x="233" 
d="M294 807q-1 -35 -2 -74t-2 -76q-86 -3 -174 -4.5t-175 -3.5q-2 35 -1.5 71t-0.5 74zM195 610l6 -613q-42 -1 -84.5 -2t-84.5 -2v619z" />
    <glyph glyph-name="Iogonek" unicode="&#x12e;" horiz-adv-x="260" 
d="M222 -14q-41 -1 -79.5 -1t-79.5 -1l-30 784h168zM211 -265q-6 0 -11.5 -0.5t-11.5 -0.5q-58 0 -100.5 18.5t-68 48t-35 66.5t-3.5 74q6 31 22 59t42.5 50t63.5 34.5t85 12.5l11 -105q-54 -9 -74.5 -32.5t-12.5 -49.5q5 -19 24 -29.5t49 -10.5q7 0 13.5 0.5t13.5 1.5z" />
    <glyph glyph-name="iogonek" unicode="&#x12f;" horiz-adv-x="233" 
d="M207 689q0 -19 -7 -35.5t-19.5 -29t-29 -19.5t-35.5 -7t-35.5 7t-28.5 19.5t-19 29t-7 35.5q0 18 7 34t19 28.5t28.5 19.5t35.5 7t35.5 -7t29 -19.5t19.5 -28.5t7 -34zM195 545l6 -548q-42 -1 -84.5 -2t-84.5 -2v571zM197 -260q-6 0 -11.5 -0.5t-11.5 -0.5
q-58 0 -100.5 18.5t-68 48t-35 66.5t-3.5 74q6 31 22 59t42.5 50t63.5 34.5t85 12.5l11 -105q-54 -9 -74.5 -32.5t-12.5 -49.5q5 -19 24 -29.5t49 -10.5q7 0 13.5 0.5t13.5 1.5z" />
    <glyph glyph-name="Idotaccent" unicode="&#x130;" horiz-adv-x="260" 
d="M222 -14q-41 -1 -79.5 -1t-79.5 -1l-30 784h168zM20 852q-2 13 2 30.5t15 33t30.5 26.5t48.5 11h10q20 -1 38 -12t31 -28t19 -37.5t2 -40.5q-7 -34 -34.5 -56.5t-62.5 -22.5q-47 0 -70.5 24.5t-28.5 71.5z" />
    <glyph glyph-name="dotlessi" unicode="&#x131;" horiz-adv-x="233" 
d="M195 610l6 -613q-42 -1 -84.5 -2t-84.5 -2v619z" />
    <glyph glyph-name="Jcircumflex" unicode="&#x134;" horiz-adv-x="547" 
d="M467 778q8 -40 17 -89t16.5 -103t12.5 -110t5 -111q0 -42 -4.5 -87.5t-15.5 -90t-29.5 -84t-47 -70t-68 -48t-92.5 -17.5q-44 0 -86.5 14t-78.5 37.5t-63 54.5t-39 65q28 26 53 51l51 51q27 -51 64 -79.5t74 -32.5h9q29 0 53 15.5t41.5 44.5t27 69.5t9.5 91.5
q0 54 -12 121.5t-31 153.5l-244 -17q-2 39 -3.5 76.5t-3.5 76.5zM410 747l-121 88l-121 -88l-78 108l199 180q48 -43 99 -89t100 -91z" />
    <glyph glyph-name="jcircumflex" unicode="&#x135;" horiz-adv-x="238" 
d="M220 597l-103 77l-103 -77l-67 95l170 156q42 -38 85 -78t84 -78zM198 590v-579q0 -41 -12.5 -78t-37.5 -67t-62 -51t-86 -30q-11 34 -21.5 72t-21.5 73q45 9 62 29.5t17 62.5l4 564z" />
    <glyph glyph-name="uni0136" unicode="&#x136;" horiz-adv-x="623" 
d="M187 766q0 -86 1 -176.5t3 -175.5l295 374l125 -84l-247 -311l285 -336l-123 -107l-335 399l8 -361q-41 -2 -79.5 -4.5t-80.5 -4.5q-2 195 -5.5 388t-5.5 390zM402.188 -14.1455l-41.5615 -221.45l-138.537 -1.98926l-3.69434 228.081z" />
    <glyph glyph-name="uni0137" unicode="&#x137;" horiz-adv-x="546" 
d="M186 807l5 -423l209 242l119 -101q-50 -55 -97 -111t-98 -112l252 -218l-120 -116l-262 247l4 -221l-161 -10q-4 201 -6 405.5t-5 405.5zM366.188 -14.1455l-41.5615 -221.45l-138.537 -1.98926l-3.69434 228.081z" />
    <glyph glyph-name="kgreenlandic" unicode="&#x138;" horiz-adv-x="546" 
d="M519 525q-50 -55 -98 -110.5t-98 -111.5l253 -219l-120 -116l-263 248q2 -57 2.5 -112t2.5 -110q-38 -2 -80 -4.5t-81 -5.5q-4 154 -6 310t-5 310l159 12q1 -57 2 -115.5t2 -117.5l26 13l185 230z" />
    <glyph glyph-name="Lacute" unicode="&#x139;" horiz-adv-x="522" 
d="M34 767q42 0 80.5 0.5t78.5 1.5l-6 -634l322 9q-2 -39 -3.5 -77.5t-3.5 -76.5l-473 -3zM553 792q-56 -40 -115.5 -84t-116.5 -85q-20 26 -39 54.5t-39 55.5l201 184z" />
    <glyph glyph-name="lacute" unicode="&#x13a;" horiz-adv-x="227" 
d="M197.884 731.935l-12.7979 -736.47q-37.4111 -1.81348 -79.2529 -4.98828q-41.8408 -3.17383 -80.2363 -4.98828q3.93848 182.304 6.39941 367.781q2.46094 185.479 7.38379 367.781zM307.492 838.405q-53.3916 -31.6748 -110.121 -66.5176
q-56.7295 -34.8418 -111.074 -67.3086q-19.0693 20.5889 -37.1846 43.1572t-37.1836 43.9482l191.64 145.704z" />
    <glyph glyph-name="uni013B" unicode="&#x13b;" horiz-adv-x="522" 
d="M34 767q42 0 80.5 0.5t78.5 1.5l-6 -634l322 9q-2 -39 -3.5 -77.5t-3.5 -76.5l-473 -3zM342.188 -47.1455l-41.5615 -221.45l-138.537 -1.98926l-3.69434 228.081z" />
    <glyph glyph-name="uni013C" unicode="&#x13c;" horiz-adv-x="227" 
d="M201 807l-13 -812q-38 -2 -80.5 -5.5t-81.5 -5.5q4 201 6.5 405.5t7.5 405.5zM198.188 -53.1455l-41.5615 -221.45l-138.537 -1.98926l-3.69434 228.081z" />
    <glyph glyph-name="Lcaron" unicode="&#x13d;" horiz-adv-x="522" 
d="M34 767q42 0 80.5 0.5t78.5 1.5l-6 -634l322 9q-2 -39 -3.5 -77.5t-3.5 -76.5l-473 -3zM492 823l-44 -333q-35 -1 -73 -2t-73 -2l-4 344z" />
    <glyph glyph-name="lcaron" unicode="&#x13e;" horiz-adv-x="448" 
d="M201 807l-13 -812q-38 -2 -80.5 -5.5t-81.5 -5.5q4 201 6.5 405.5t7.5 405.5zM454 798l-44 -333q-35 -1 -73 -2t-73 -2l-4 344z" />
    <glyph glyph-name="Lslash" unicode="&#x141;" horiz-adv-x="522" 
d="M384 547q-1 -38 -2 -80t-2 -83q-48 -13 -95.5 -25.5t-95.5 -25.5l-2 -198l322 9q-2 -39 -3.5 -77.5t-3.5 -76.5l-473 -3l2 304q-15 -4 -29.5 -8t-29.5 -8q-2 37 -1.5 78t-0.5 79l62 17l2 318q42 0 80.5 0.5t78.5 1.5l-3 -276z" />
    <glyph glyph-name="lslash" unicode="&#x142;" horiz-adv-x="227" 
d="M309 763q-1 -38 -2 -81t-2 -82q-26 -8 -53 -14.5t-55 -14.5l-9 -576q-38 -2 -80.5 -5.5t-81.5 -5.5q2 134 4.5 270.5t4.5 273.5q-23 -6 -45.5 -12.5t-45.5 -12.5q-2 37 -1.5 78t-0.5 79l96 27q0 27 0.5 54t1.5 54l161 12l-1 -75z" />
    <glyph glyph-name="Nacute" unicode="&#x143;" horiz-adv-x="612" 
d="M585 -12l-70 -2l-70 -2l-260 468q3 -116 6 -230.5t6 -232.5l-161 -17l-6 758l148 58l254 -493l-15 466q38 2 77.5 3.5t79.5 3.5zM475 894q-56 -40 -115.5 -84t-116.5 -85q-20 26 -39 54.5t-39 55.5l201 184z" />
    <glyph glyph-name="nacute" unicode="&#x144;" horiz-adv-x="545" 
d="M36 604q38 -2 71 -3.5t72 -3.5l6 -67q24 38 61 62t84 24h9.5t9.5 -1q85 -11 127 -71.5t42 -177.5q1 -71 -8 -165t-27 -219q-36 5 -75 8t-77 8q14 109 24.5 198t9.5 154q-2 57 -15 89.5t-45 34.5q-37 0 -59.5 -23t-35.5 -56t-18 -69.5t-6 -63.5q-6 -74 -6 -137.5
t-2 -129.5h-152zM472 751q-56 -40 -115.5 -84t-116.5 -85q-20 26 -39 54.5t-39 55.5l201 184z" />
    <glyph glyph-name="uni0145" unicode="&#x145;" horiz-adv-x="612" 
d="M585 -12l-70 -2l-70 -2l-260 468q3 -116 6 -230.5t6 -232.5l-161 -17l-6 758l148 58l254 -493l-15 466q38 2 77.5 3.5t79.5 3.5zM402.188 -14.1455l-41.5615 -221.45l-138.537 -1.98926l-3.69434 228.081z" />
    <glyph glyph-name="uni0146" unicode="&#x146;" horiz-adv-x="545" 
d="M36 604q38 -2 71 -3.5t72 -3.5l6 -67q24 38 61 62t84 24h9.5t9.5 -1q85 -11 127 -71.5t42 -177.5q1 -71 -8 -165t-27 -219q-36 5 -75 8t-77 8q14 109 24.5 198t9.5 154q-2 57 -15 89.5t-45 34.5q-37 0 -59.5 -23t-35.5 -56t-18 -69.5t-6 -63.5q-6 -74 -6 -137.5
t-2 -129.5h-152zM343.188 -51.1455l-41.5615 -221.45l-138.537 -1.98926l-3.69434 228.081z" />
    <glyph glyph-name="Ncaron" unicode="&#x147;" horiz-adv-x="612" 
d="M585 -12l-70 -2l-70 -2l-260 468q3 -116 6 -230.5t6 -232.5l-161 -17l-6 758l148 58l254 -493l-15 466q38 2 77.5 3.5t79.5 3.5zM184 1004l122 -87l120 87l78 -109l-198 -180l-199 180z" />
    <glyph glyph-name="ncaron" unicode="&#x148;" horiz-adv-x="545" 
d="M36 604q38 -2 71 -3.5t72 -3.5l6 -67q24 38 61 62t84 24h9.5t9.5 -1q85 -11 127 -71.5t42 -177.5q1 -71 -8 -165t-27 -219q-36 5 -75 8t-77 8q14 109 24.5 198t9.5 154q-2 57 -15 89.5t-45 34.5q-37 0 -59.5 -23t-35.5 -56t-18 -69.5t-6 -63.5q-6 -74 -6 -137.5
t-2 -129.5h-152zM165 831l122 -87l120 87l78 -109l-198 -180l-199 180z" />
    <glyph glyph-name="Eng" unicode="&#x14a;" horiz-adv-x="613" 
d="M30 730l148 58l254 -493l-15 466q38 2 77.5 3.5t79.5 3.5l11 -780q0 -41 -12.5 -78t-37.5 -67t-62 -51t-86 -30q-11 34 -21 69.5t-21 70.5q41 8 64 35t27 63l-251 452q3 -116 6 -230.5t6 -232.5l-161 -17z" />
    <glyph glyph-name="eng" unicode="&#x14b;" horiz-adv-x="545" 
d="M222 -70q38 7 62 28.5t38 55t22 76t14 91.5q8 60 11 110t-1 89q-5 44 -20.5 68t-42.5 26q-21 1 -37.5 -11t-29 -30.5t-22 -41t-16 -44t-10 -38.5t-4.5 -24q-3 -72 -4.5 -145t-3.5 -145h-152l10 609q38 -2 80 -3.5t81 -3.5l-2 -52q32 37 69 53.5t85 16.5q38 -4 67 -16
t50.5 -34.5t35 -56.5t19.5 -82q16 -135 2 -250t-49 -199.5t-86 -135t-108 -56.5z" />
    <glyph glyph-name="Omacron" unicode="&#x14c;" horiz-adv-x="695" 
d="M337 141q5 -1 9 -1h9q35 0 62 19t46 50t30 71.5t14 83.5q2 44 -5 88t-24.5 80t-44.5 61.5t-65 32.5q-5 1 -9.5 1.5t-9.5 0.5q-34 0 -62 -19.5t-48.5 -51t-33 -72.5t-17.5 -85q-4 -44 2.5 -88t24.5 -80t48 -60.5t74 -30.5zM353 780q81 0 141 -35t99.5 -92.5t58 -130.5
t17.5 -150q-1 -75 -21.5 -146.5t-59.5 -127.5t-96 -90.5t-131 -34.5q-84 0 -146.5 35.5t-104 93t-62 130.5t-19.5 148q2 76 23 148t61.5 128t100.5 90t139 34zM555.382 944.585q-1.08203 -35.9141 -2.16406 -75.9326q-1.08301 -40.0195 -2.16504 -77.9863
q-93.0859 -3.07812 -188.337 -4.61719t-189.42 -3.5918q-2.16504 35.915 -1.62402 72.8555q0.541992 36.9404 -0.541016 75.9326z" />
    <glyph glyph-name="omacron" unicode="&#x14d;" horiz-adv-x="576" 
d="M279 124q3 -1 6.5 -1h6.5q23 0 41.5 12t32 32t21.5 46.5t11 54.5q3 34 -1 67.5t-16.5 62t-33 48t-49.5 24.5q-4 1 -12 1q-21 0 -39 -11t-32.5 -30t-24 -44t-13.5 -53q-7 -34 -5 -69.5t14.5 -65t35.5 -50t57 -24.5zM286 620q70 0 120.5 -29t83.5 -75.5t47.5 -105.5
t12.5 -120q-2 -59 -19.5 -115t-50 -99.5t-81.5 -70t-114 -26.5q-68 2 -117.5 31t-81.5 75.5t-46.5 104.5t-12.5 118q2 59 19 115.5t50 100t80.5 70t109.5 26.5zM475 802q-1 -35 -2 -74t-2 -76q-86 -3 -174 -4.5t-175 -3.5q-2 35 -1.5 71t-0.5 74z" />
    <glyph glyph-name="Ohungarumlaut" unicode="&#x150;" horiz-adv-x="695" 
d="M337 141q5 -1 9 -1h9q35 0 62 19t46 50t30 71.5t14 83.5q2 44 -5 88t-24.5 80t-44.5 61.5t-65 32.5q-5 1 -9.5 1.5t-9.5 0.5q-34 0 -62 -19.5t-48.5 -51t-33 -72.5t-17.5 -85q-4 -44 2.5 -88t24.5 -80t48 -60.5t74 -30.5zM353 780q81 0 141 -35t99.5 -92.5t58 -130.5
t17.5 -150q-1 -75 -21.5 -146.5t-59.5 -127.5t-96 -90.5t-131 -34.5q-84 0 -146.5 35.5t-104 93t-62 130.5t-19.5 148q2 76 23 148t61.5 128t100.5 90t139 34zM644 905q-46 -41 -96.5 -84.5t-97.5 -85.5q-18 25 -39.5 54t-40.5 55q40 45 82.5 92.5t83.5 93.5zM401 905
q-48 -41 -97.5 -85t-97.5 -85q-20 25 -39.5 54t-39.5 55q42 45 82.5 92.5t82.5 93.5z" />
    <glyph glyph-name="ohungarumlaut" unicode="&#x151;" horiz-adv-x="576" 
d="M279 124q3 -1 6.5 -1h6.5q23 0 41.5 12t32 32t21.5 46.5t11 54.5q3 34 -1 67.5t-16.5 62t-33 48t-49.5 24.5q-4 1 -12 1q-21 0 -39 -11t-32.5 -30t-24 -44t-13.5 -53q-7 -34 -5 -69.5t14.5 -65t35.5 -50t57 -24.5zM286 620q70 0 120.5 -29t83.5 -75.5t47.5 -105.5
t12.5 -120q-2 -59 -19.5 -115t-50 -99.5t-81.5 -70t-114 -26.5q-68 2 -117.5 31t-81.5 75.5t-46.5 104.5t-12.5 118q2 59 19 115.5t50 100t80.5 70t109.5 26.5zM598 750q-46 -41 -96.5 -84.5t-97.5 -85.5q-18 25 -39.5 54t-40.5 55q40 45 82.5 92.5t83.5 93.5zM355 750
q-48 -41 -97.5 -85t-97.5 -85q-20 25 -39.5 54t-39.5 55q42 45 82.5 92.5t82.5 93.5z" />
    <glyph glyph-name="OE" unicode="&#x152;" horiz-adv-x="1006" 
d="M916 475q2 -35 4 -71t4 -71q-64 -5 -126.5 -10t-125.5 -9l-5 -189l318 19q4 -40 7.5 -77.5t5.5 -75.5q-120 -7 -240 -12t-241 -10l17 812l451 -13q-2 -35 -3 -67.5t-2 -67.5l-298 11l-7 -182zM337 141q5 -1 9 -1h9q35 0 62 19t46 50t30 71.5t14 83.5q2 44 -5 88t-24.5 80
t-44.5 61.5t-65 32.5q-5 1 -9.5 1.5t-9.5 0.5q-34 0 -62 -19.5t-48.5 -51t-33 -72.5t-17.5 -85q-4 -44 2.5 -88t24.5 -80t48 -60.5t74 -30.5zM353 780q81 0 141 -35t99.5 -92.5t58 -130.5t17.5 -150q-1 -75 -21.5 -146.5t-59.5 -127.5t-96 -90.5t-131 -34.5
q-84 0 -146.5 35.5t-104 93t-62 130.5t-19.5 148q2 76 23 148t61.5 128t100.5 90t139 34z" />
    <glyph glyph-name="oe" unicode="&#x153;" horiz-adv-x="925" 
d="M750 368q0 20 -5 39t-15.5 34t-26.5 24.5t-39 9.5q-36 0 -65 -25t-37 -73zM646 118q15 0 28.5 2t28 8.5t31 19t36.5 32.5l102 -91q-37 -50 -92 -81.5t-133 -31.5q-65 0 -112.5 28t-78.5 74.5t-45 105.5t-12 121q2 60 20.5 117t52.5 101.5t83.5 71.5t115.5 27
q77 0 127.5 -35.5t76 -91.5t26.5 -124.5t-20 -134.5q-85 1 -167 0.5t-167 1.5q4 -52 30.5 -86t68.5 -34zM275 124q3 -1 6.5 -1h6.5q23 0 41.5 12t32 32t21.5 46.5t11 54.5q3 34 -1 67.5t-16.5 62t-33 48t-49.5 24.5q-4 1 -12 1q-21 0 -39 -11t-32.5 -30t-24 -44t-13.5 -53
q-7 -34 -5 -69.5t14.5 -65t35.5 -50t57 -24.5zM282 620q70 0 120.5 -29t83.5 -75.5t47.5 -105.5t12.5 -120q-2 -59 -19.5 -115t-50 -99.5t-81.5 -70t-114 -26.5q-68 2 -117.5 31t-81.5 75.5t-46.5 104.5t-12.5 118q2 59 19 115.5t50 100t80.5 70t109.5 26.5z" />
    <glyph glyph-name="Racute" unicode="&#x154;" horiz-adv-x="636" 
d="M193 420q33 -3 62 -3q88 0 130.5 27t49.5 84q4 30 -4.5 53t-26.5 39t-44 24.5t-59 9.5q-29 0 -56.5 -2.5t-55.5 -8.5q1 -57 1.5 -112.5t2.5 -110.5zM29 756q69 20 133.5 30.5t123.5 10.5q64 0 119 -14.5t96 -46t64.5 -81t23.5 -120.5q0 -85 -35 -139.5t-96 -82.5
l192 -257q-30 -25 -61 -51.5t-63 -53.5q-60 83 -119.5 164t-119.5 166q-23 0 -45.5 1t-47.5 3q2 -75 3 -149.5t2 -148.5q-41 -2 -79 -4t-79 -4zM473 892q-56 -40 -115.5 -84t-116.5 -85q-20 26 -39 54.5t-39 55.5l201 184z" />
    <glyph glyph-name="racute" unicode="&#x155;" horiz-adv-x="360" 
d="M26 592l119 10l16 -64q31 39 69.5 58t80.5 19q23 0 47 -6q2 -38 4 -79.5t4 -80.5q-24 8 -44 8q-29 0 -53 -13t-42 -34t-29.5 -48t-14.5 -56l11 -311h-160zM382 750q-56 -40 -115.5 -84t-116.5 -85q-20 26 -39 54.5t-39 55.5l201 184z" />
    <glyph glyph-name="uni0156" unicode="&#x156;" horiz-adv-x="636" 
d="M193 420q33 -3 62 -3q88 0 130.5 27t49.5 84q4 30 -4.5 53t-26.5 39t-44 24.5t-59 9.5q-29 0 -56.5 -2.5t-55.5 -8.5q1 -57 1.5 -112.5t2.5 -110.5zM29 756q69 20 133.5 30.5t123.5 10.5q64 0 119 -14.5t96 -46t64.5 -81t23.5 -120.5q0 -85 -35 -139.5t-96 -82.5
l192 -257q-30 -25 -61 -51.5t-63 -53.5q-60 83 -119.5 164t-119.5 166q-23 0 -45.5 1t-47.5 3q2 -75 3 -149.5t2 -148.5q-41 -2 -79 -4t-79 -4zM414.188 -14.1455l-41.5615 -221.45l-138.537 -1.98926l-3.69434 228.081z" />
    <glyph glyph-name="uni0157" unicode="&#x157;" horiz-adv-x="360" 
d="M26 592l119 10l16 -64q31 39 69.5 58t80.5 19q23 0 47 -6q2 -38 4 -79.5t4 -80.5q-24 8 -44 8q-29 0 -53 -13t-42 -34t-29.5 -48t-14.5 -56l11 -311h-160zM222.188 -41.1455l-41.5615 -221.45l-138.537 -1.98926l-3.69434 228.081z" />
    <glyph glyph-name="Rcaron" unicode="&#x158;" horiz-adv-x="636" 
d="M193 420q33 -3 62 -3q88 0 130.5 27t49.5 84q4 30 -4.5 53t-26.5 39t-44 24.5t-59 9.5q-29 0 -56.5 -2.5t-55.5 -8.5q1 -57 1.5 -112.5t2.5 -110.5zM29 756q69 20 133.5 30.5t123.5 10.5q64 0 119 -14.5t96 -46t64.5 -81t23.5 -120.5q0 -85 -35 -139.5t-96 -82.5
l192 -257q-30 -25 -61 -51.5t-63 -53.5q-60 83 -119.5 164t-119.5 166q-23 0 -45.5 1t-47.5 3q2 -75 3 -149.5t2 -148.5q-41 -2 -79 -4t-79 -4zM167 986l122 -87l120 87l78 -109l-198 -180l-199 180z" />
    <glyph glyph-name="rcaron" unicode="&#x159;" horiz-adv-x="360" 
d="M26 592l119 10l16 -64q31 39 69.5 58t80.5 19q23 0 47 -6q2 -38 4 -79.5t4 -80.5q-24 8 -44 8q-29 0 -53 -13t-42 -34t-29.5 -48t-14.5 -56l11 -311h-160zM80 844l122 -87l120 87l78 -109l-198 -180l-199 180z" />
    <glyph glyph-name="Sacute" unicode="&#x15a;" horiz-adv-x="631" 
d="M228 562q-1 -17 8 -30.5t26 -24t40 -20t49 -19.5h-1q42 -14 87.5 -31.5t83.5 -46t61.5 -70.5t21.5 -104q-4 -63 -29 -109t-64 -76.5t-88.5 -46t-102.5 -17.5q-39 0 -80 5.5t-79.5 19.5t-72 37t-57.5 57q20 27 41.5 56t42.5 58q32 -38 80 -59.5t105 -21.5q5 0 9 0.5t9 0.5
q32 2 57 11t41 24t23 34t2 40q-6 30 -36.5 49t-71.5 35t-87 33.5t-84 44t-62 67t-21 101.5q2 57 24.5 99.5t58.5 70.5t81.5 42t93.5 14q63 0 124.5 -20t109.5 -63l-88 -131q-26 30 -61 45.5t-69 19.5q-15 3 -29 3q-38 0 -66 -19.5t-30 -57.5zM518 877q-56 -40 -115.5 -84
t-116.5 -85q-20 26 -39 54.5t-39 55.5l201 184z" />
    <glyph glyph-name="sacute" unicode="&#x15b;" horiz-adv-x="474" 
d="M371 435q-32 20 -63 30t-57 10q-44 0 -55 -29q-7 -22 10 -36.5t47 -28t66.5 -29t68 -39.5t51.5 -59t18 -88q-1 -49 -20 -84.5t-50.5 -58.5t-72.5 -34t-86 -11q-34 0 -69.5 6.5t-68.5 20t-62.5 33.5t-51.5 47l79 122q23 -29 52 -47.5t59 -27.5q27 -6 52 -6q34 0 57 10.5
t25 30.5q3 20 -13 35t-43 29t-59.5 29t-62.5 35q-39 26 -60 59.5t-24.5 69t8.5 69.5t39.5 61t68.5 43.5t95 16.5q48 0 98 -12.5t91 -37.5zM441 757q-56 -40 -115.5 -84t-116.5 -85q-20 26 -39 54.5t-39 55.5l201 184z" />
    <glyph glyph-name="Scircumflex" unicode="&#x15c;" horiz-adv-x="631" 
d="M228 562q-1 -17 8 -30.5t26 -24t40 -20t49 -19.5h-1q42 -14 87.5 -31.5t83.5 -46t61.5 -70.5t21.5 -104q-4 -63 -29 -109t-64 -76.5t-88.5 -46t-102.5 -17.5q-39 0 -80 5.5t-79.5 19.5t-72 37t-57.5 57q20 27 41.5 56t42.5 58q32 -38 80 -59.5t105 -21.5q5 0 9 0.5t9 0.5
q32 2 57 11t41 24t23 34t2 40q-6 30 -36.5 49t-71.5 35t-87 33.5t-84 44t-62 67t-21 101.5q2 57 24.5 99.5t58.5 70.5t81.5 42t93.5 14q63 0 124.5 -20t109.5 -63l-88 -131q-26 30 -61 45.5t-69 19.5q-15 3 -29 3q-38 0 -66 -19.5t-30 -57.5zM455 738l-121 88l-121 -88
l-78 108l199 180q48 -43 99 -89t100 -91z" />
    <glyph glyph-name="scircumflex" unicode="&#x15d;" horiz-adv-x="474" 
d="M371 435q-32 20 -63 30t-57 10q-44 0 -55 -29q-7 -22 10 -36.5t47 -28t66.5 -29t68 -39.5t51.5 -59t18 -88q-1 -49 -20 -84.5t-50.5 -58.5t-72.5 -34t-86 -11q-34 0 -69.5 6.5t-68.5 20t-62.5 33.5t-51.5 47l79 122q23 -29 52 -47.5t59 -27.5q27 -6 52 -6q34 0 57 10.5
t25 30.5q3 20 -13 35t-43 29t-59.5 29t-62.5 35q-39 26 -60 59.5t-24.5 69t8.5 69.5t39.5 61t68.5 43.5t95 16.5q48 0 98 -12.5t91 -37.5zM358 583l-121 88l-121 -88l-78 108l199 180q48 -43 99 -89t100 -91z" />
    <glyph glyph-name="Scedilla" unicode="&#x15e;" horiz-adv-x="631" 
d="M228 562q-1 -17 8 -30.5t26 -24t40 -20t49 -19.5h-1q42 -14 87.5 -31.5t83.5 -46t61.5 -70.5t21.5 -104q-4 -63 -29 -109t-64 -76.5t-88.5 -46t-102.5 -17.5q-39 0 -80 5.5t-79.5 19.5t-72 37t-57.5 57q20 27 41.5 56t42.5 58q32 -38 80 -59.5t105 -21.5q5 0 9 0.5t9 0.5
q32 2 57 11t41 24t23 34t2 40q-6 30 -36.5 49t-71.5 35t-87 33.5t-84 44t-62 67t-21 101.5q2 57 24.5 99.5t58.5 70.5t81.5 42t93.5 14q63 0 124.5 -20t109.5 -63l-88 -131q-26 30 -61 45.5t-69 19.5q-15 3 -29 3q-38 0 -66 -19.5t-30 -57.5zM380 12l-14 -56
q57 -21 80.5 -61t16.5 -81q-4 -24 -18 -46t-37.5 -38.5t-56 -26.5t-73.5 -10q-23 0 -44.5 3.5t-44.5 9.5l21 104q10 -2 25.5 -3.5t32.5 -1.5q22 0 40 5t20 21q1 7 -3.5 15t-16.5 15.5t-31.5 12.5t-49.5 7q9 36 16 74t16 76z" />
    <glyph glyph-name="scedilla" unicode="&#x15f;" horiz-adv-x="474" 
d="M371 435q-32 20 -63 30t-57 10q-44 0 -55 -29q-7 -22 10 -36.5t47 -28t66.5 -29t68 -39.5t51.5 -59t18 -88q-1 -49 -20 -84.5t-50.5 -58.5t-72.5 -34t-86 -11q-34 0 -69.5 6.5t-68.5 20t-62.5 33.5t-51.5 47l79 122q23 -29 52 -47.5t59 -27.5q27 -6 52 -6q34 0 57 10.5
t25 30.5q3 20 -13 35t-43 29t-59.5 29t-62.5 35q-39 26 -60 59.5t-24.5 69t8.5 69.5t39.5 61t68.5 43.5t95 16.5q48 0 98 -12.5t91 -37.5zM289 16l-14 -56q57 -21 80.5 -61t16.5 -81q-4 -24 -18 -46t-37.5 -38.5t-56 -26.5t-73.5 -10q-23 0 -44.5 3.5t-44.5 9.5l21 104
q10 -2 25.5 -3.5t32.5 -1.5q22 0 40 5t20 21q1 7 -3.5 15t-16.5 15.5t-31.5 12.5t-49.5 7q9 36 16 74t16 76z" />
    <glyph glyph-name="Scaron" unicode="&#x160;" horiz-adv-x="631" 
d="M228 562q-1 -17 8 -30.5t26 -24t40 -20t49 -19.5h-1q42 -14 87.5 -31.5t83.5 -46t61.5 -70.5t21.5 -104q-4 -63 -29 -109t-64 -76.5t-88.5 -46t-102.5 -17.5q-39 0 -80 5.5t-79.5 19.5t-72 37t-57.5 57q20 27 41.5 56t42.5 58q32 -38 80 -59.5t105 -21.5q5 0 9 0.5t9 0.5
q32 2 57 11t41 24t23 34t2 40q-6 30 -36.5 49t-71.5 35t-87 33.5t-84 44t-62 67t-21 101.5q2 57 24.5 99.5t58.5 70.5t81.5 42t93.5 14q63 0 124.5 -20t109.5 -63l-88 -131q-26 30 -61 45.5t-69 19.5q-15 3 -29 3q-38 0 -66 -19.5t-30 -57.5zM218 1004l122 -87l120 87
l78 -109l-198 -180l-199 180z" />
    <glyph glyph-name="scaron" unicode="&#x161;" horiz-adv-x="474" 
d="M371 435q-32 20 -63 30t-57 10q-44 0 -55 -29q-7 -22 10 -36.5t47 -28t66.5 -29t68 -39.5t51.5 -59t18 -88q-1 -49 -20 -84.5t-50.5 -58.5t-72.5 -34t-86 -11q-34 0 -69.5 6.5t-68.5 20t-62.5 33.5t-51.5 47l79 122q23 -29 52 -47.5t59 -27.5q27 -6 52 -6q34 0 57 10.5
t25 30.5q3 20 -13 35t-43 29t-59.5 29t-62.5 35q-39 26 -60 59.5t-24.5 69t8.5 69.5t39.5 61t68.5 43.5t95 16.5q48 0 98 -12.5t91 -37.5zM125 836l122 -87l120 87l78 -109l-198 -180l-199 180z" />
    <glyph glyph-name="uni0162" unicode="&#x162;" horiz-adv-x="488" 
d="M510 609l-188 5q-3 -157 -6.5 -315t-6.5 -316q-39 1 -77 2t-78 3l13 632l-190 -5l8 160q137 -5 269.5 -9.5t266.5 -8.5zM318.188 -59.1455l-41.5615 -221.45l-138.537 -1.98926l-3.69434 228.081z" />
    <glyph glyph-name="uni0163" unicode="&#x163;" horiz-adv-x="365" 
d="M257 211q0 -21 2.5 -36t10.5 -26t22.5 -17.5t38.5 -10.5q-11 -34 -21.5 -74.5t-21.5 -75.5q-54 6 -92 27t-62 51.5t-34.5 68.5t-10.5 79v242l-74 -7l-14 151l101 12l19 116q29 3 65 5t66 4q0 -26 0.5 -53.5t0.5 -54.5l94 13l15 -153l-108 -13zM282.188 -38.1455
l-41.5615 -221.45l-138.537 -1.98926l-3.69434 228.081z" />
    <glyph glyph-name="Tcaron" unicode="&#x164;" horiz-adv-x="488" 
d="M510 609l-188 5q-3 -157 -6.5 -315t-6.5 -316q-39 1 -77 2t-78 3l13 632l-190 -5l8 160q137 -5 269.5 -9.5t266.5 -8.5zM128 980l122 -87l120 87l78 -109l-198 -180l-199 180z" />
    <glyph glyph-name="tcaron" unicode="&#x165;" horiz-adv-x="540" 
d="M257 211q0 -21 2.5 -36t10.5 -26t22.5 -17.5t38.5 -10.5q-11 -34 -21.5 -74.5t-21.5 -75.5q-54 6 -92 27t-62 51.5t-34.5 68.5t-10.5 79v242l-74 -7l-14 151l101 12l19 116q29 3 65 5t66 4q0 -26 0.5 -53.5t0.5 -54.5l94 13l15 -153l-108 -13zM561 801l-44 -333
q-35 -1 -73 -2t-73 -2l-4 344z" />
    <glyph glyph-name="Tbar" unicode="&#x166;" horiz-adv-x="488" 
d="M510 609l-188 5q-3 -157 -6.5 -315t-6.5 -316q-39 1 -77 2t-78 3l13 632l-190 -5l8 160q137 -5 269.5 -9.5t266.5 -8.5zM433.6 453q-1.0752 -32.8672 -2.15039 -69.4922q-1.0752 -36.624 -2.15039 -71.3701q-92.4775 -2.81738 -187.105 -4.22656
q-94.6279 -1.4082 -188.181 -3.28613q-2.15039 32.8682 -1.61328 66.6748q0.538086 33.8076 -0.537109 69.4922z" />
    <glyph glyph-name="tbar" unicode="&#x167;" horiz-adv-x="365" 
d="M257 211q0 -21 2.5 -36t10.5 -26t22.5 -17.5t38.5 -10.5q-11 -34 -21.5 -74.5t-21.5 -75.5q-54 6 -92 27t-62 51.5t-34.5 68.5t-10.5 79v242l-74 -7l-14 151l101 12l19 116q29 3 65 5t66 4q0 -26 0.5 -53.5t0.5 -54.5l94 13l15 -153l-108 -13zM363 373q-1 -35 -2 -74
t-2 -76q-86 -3 -174 -4.5t-175 -3.5q-2 35 -1.5 71t-0.5 74z" />
    <glyph glyph-name="Utilde" unicode="&#x168;" 
d="M608 750q-2 -114 -6 -233t-6 -234q-1 -64 -23 -119.5t-61 -96t-92.5 -64t-119.5 -23.5q-74 1 -127.5 27t-87 70.5t-47 105t-8.5 131.5q5 76 8 152t5 137.5t3 101.5t1 43q38 2 75.5 3.5t75.5 3.5q-2 -112 -4 -222.5t-4 -222.5q-4 -85 20.5 -126.5t89.5 -45.5h11
q56 0 88.5 39.5t35.5 127.5q2 114 5 225.5t6 225.5zM560 877q-25 -69 -64.5 -99t-85.5 -30q-35 0 -70 17t-64 49q-13 14 -27 14q-10 0 -19.5 -6.5t-17 -16.5t-13.5 -21t-9 -20q-23 20 -47.5 44t-47.5 46q15 24 33 46.5t39.5 40.5t47 29t55.5 11q31 -2 59.5 -19t53.5 -41
q14 -14 29 -14q17 0 31.5 16.5t22.5 37.5z" />
    <glyph glyph-name="utilde" unicode="&#x169;" horiz-adv-x="524" 
d="M489 -5q-32 2 -68 2.5t-69 2.5l-8 62q-29 -41 -63 -59.5t-84 -18.5q-42 3 -74 24t-53.5 62.5t-32 104t-10.5 149.5q0 60 4 124t15 148q38 2 81.5 4t82.5 4q-5 -36 -11.5 -84t-11 -98.5t-6 -100t4 -89t19.5 -64.5t39 -28q22 0 38.5 9.5t28 25t18 35t6.5 39.5l11 355h152z
M515 754q-25 -69 -64.5 -99t-85.5 -30q-35 0 -70 17t-64 49q-13 14 -27 14q-10 0 -19.5 -6.5t-17 -16.5t-13.5 -21t-9 -20q-23 20 -47.5 44t-47.5 46q15 24 33 46.5t39.5 40.5t47 29t55.5 11q31 -2 59.5 -19t53.5 -41q14 -14 29 -14q17 0 31.5 16.5t22.5 37.5z" />
    <glyph glyph-name="Umacron" unicode="&#x16a;" 
d="M608 750q-2 -114 -6 -233t-6 -234q-1 -64 -23 -119.5t-61 -96t-92.5 -64t-119.5 -23.5q-74 1 -127.5 27t-87 70.5t-47 105t-8.5 131.5q5 76 8 152t5 137.5t3 101.5t1 43q38 2 75.5 3.5t75.5 3.5q-2 -112 -4 -222.5t-4 -222.5q-4 -85 20.5 -126.5t89.5 -45.5h11
q56 0 88.5 39.5t35.5 127.5q2 114 5 225.5t6 225.5zM508 914q-1 -35 -2 -74t-2 -76q-86 -3 -174 -4.5t-175 -3.5q-2 35 -1.5 71t-0.5 74z" />
    <glyph glyph-name="umacron" unicode="&#x16b;" horiz-adv-x="524" 
d="M489 -5q-32 2 -68 2.5t-69 2.5l-8 62q-29 -41 -63 -59.5t-84 -18.5q-42 3 -74 24t-53.5 62.5t-32 104t-10.5 149.5q0 60 4 124t15 148q38 2 81.5 4t82.5 4q-5 -36 -11.5 -84t-11 -98.5t-6 -100t4 -89t19.5 -64.5t39 -28q22 0 38.5 9.5t28 25t18 35t6.5 39.5l11 355h152z
M456 801q-1 -35 -2 -74t-2 -76q-86 -3 -174 -4.5t-175 -3.5q-2 35 -1.5 71t-0.5 74z" />
    <glyph glyph-name="Ubreve" unicode="&#x16c;" 
d="M608 750q-2 -114 -6 -233t-6 -234q-1 -64 -23 -119.5t-61 -96t-92.5 -64t-119.5 -23.5q-74 1 -127.5 27t-87 70.5t-47 105t-8.5 131.5q5 76 8 152t5 137.5t3 101.5t1 43q38 2 75.5 3.5t75.5 3.5q-2 -112 -4 -222.5t-4 -222.5q-4 -85 20.5 -126.5t89.5 -45.5h11
q56 0 88.5 39.5t35.5 127.5q2 114 5 225.5t6 225.5zM502 953q4 -52 -10.5 -91.5t-41 -65.5t-61 -40t-71.5 -15h-7q-37 0 -72.5 12t-63 36t-44.5 59.5t-16 82.5l143 14q8 -44 24 -63t31 -19q3 0 9 2q12 5 20 16t13.5 25.5t7.5 29t2 24.5z" />
    <glyph glyph-name="ubreve" unicode="&#x16d;" horiz-adv-x="524" 
d="M489 -5q-32 2 -68 2.5t-69 2.5l-8 62q-29 -41 -63 -59.5t-84 -18.5q-42 3 -74 24t-53.5 62.5t-32 104t-10.5 149.5q0 60 4 124t15 148q38 2 81.5 4t82.5 4q-5 -36 -11.5 -84t-11 -98.5t-6 -100t4 -89t19.5 -64.5t39 -28q22 0 38.5 9.5t28 25t18 35t6.5 39.5l11 355h152z
M451 807q4 -52 -10.5 -91.5t-41 -65.5t-61 -40t-71.5 -15h-7q-37 0 -72.5 12t-63 36t-44.5 59.5t-16 82.5l143 14q8 -44 24 -63t31 -19q3 0 9 2q12 5 20 16t13.5 25.5t7.5 29t2 24.5z" />
    <glyph glyph-name="Uring" unicode="&#x16e;" 
d="M608 750q-2 -114 -6 -233t-6 -234q-1 -64 -23 -119.5t-61 -96t-92.5 -64t-119.5 -23.5q-74 1 -127.5 27t-87 70.5t-47 105t-8.5 131.5q5 76 8 152t5 137.5t3 101.5t1 43q38 2 75.5 3.5t75.5 3.5q-2 -112 -4 -222.5t-4 -222.5q-4 -85 20.5 -126.5t89.5 -45.5h11
q56 0 88.5 39.5t35.5 127.5q2 114 5 225.5t6 225.5zM294 804q15 -11 31 -11q12 0 22 7t14.5 18t2 24.5t-13.5 27.5q-16 18 -36 18q-14 0 -25.5 -8t-16.5 -20.5t-0.5 -27t22.5 -28.5zM221 747q-38 38 -42.5 78.5t13.5 74.5t52.5 55.5t74.5 21.5q28 0 55.5 -12.5t51.5 -41.5
q32 -38 34.5 -77.5t-14.5 -71.5t-50 -52.5t-71 -20.5q-26 0 -52.5 10.5t-51.5 35.5z" />
    <glyph glyph-name="uring" unicode="&#x16f;" horiz-adv-x="524" 
d="M489 -5q-32 2 -68 2.5t-69 2.5l-8 62q-29 -41 -63 -59.5t-84 -18.5q-42 3 -74 24t-53.5 62.5t-32 104t-10.5 149.5q0 60 4 124t15 148q38 2 81.5 4t82.5 4q-5 -36 -11.5 -84t-11 -98.5t-6 -100t4 -89t19.5 -64.5t39 -28q22 0 38.5 9.5t28 25t18 35t6.5 39.5l11 355h152z
M259 674q15 -11 31 -11q12 0 22 7t14.5 18t2 24.5t-13.5 27.5q-16 18 -36 18q-14 0 -25.5 -8t-16.5 -20.5t-0.5 -27t22.5 -28.5zM186 617q-38 38 -42.5 78.5t13.5 74.5t52.5 55.5t74.5 21.5q28 0 55.5 -12.5t51.5 -41.5q32 -38 34.5 -77.5t-14.5 -71.5t-50 -52.5t-71 -20.5
q-26 0 -52.5 10.5t-51.5 35.5z" />
    <glyph glyph-name="Uhungarumlaut" unicode="&#x170;" 
d="M608 750q-2 -114 -6 -233t-6 -234q-1 -64 -23 -119.5t-61 -96t-92.5 -64t-119.5 -23.5q-74 1 -127.5 27t-87 70.5t-47 105t-8.5 131.5q5 76 8 152t5 137.5t3 101.5t1 43q38 2 75.5 3.5t75.5 3.5q-2 -112 -4 -222.5t-4 -222.5q-4 -85 20.5 -126.5t89.5 -45.5h11
q56 0 88.5 39.5t35.5 127.5q2 114 5 225.5t6 225.5zM612 860q-46 -41 -96.5 -84.5t-97.5 -85.5q-18 25 -39.5 54t-40.5 55q40 45 82.5 92.5t83.5 93.5zM369 860q-48 -41 -97.5 -85t-97.5 -85q-20 25 -39.5 54t-39.5 55q42 45 82.5 92.5t82.5 93.5z" />
    <glyph glyph-name="uhungarumlaut" unicode="&#x171;" horiz-adv-x="524" 
d="M489 -5q-32 2 -68 2.5t-69 2.5l-8 62q-29 -41 -63 -59.5t-84 -18.5q-42 3 -74 24t-53.5 62.5t-32 104t-10.5 149.5q0 60 4 124t15 148q38 2 81.5 4t82.5 4q-5 -36 -11.5 -84t-11 -98.5t-6 -100t4 -89t19.5 -64.5t39 -28q22 0 38.5 9.5t28 25t18 35t6.5 39.5l11 355h152z
M561 749q-46 -41 -96.5 -84.5t-97.5 -85.5q-18 25 -39.5 54t-40.5 55q40 45 82.5 92.5t83.5 93.5zM318 749q-48 -41 -97.5 -85t-97.5 -85q-20 25 -39.5 54t-39.5 55q42 45 82.5 92.5t82.5 93.5z" />
    <glyph glyph-name="Uogonek" unicode="&#x172;" 
d="M608 750q-2 -114 -6 -233t-6 -234q-1 -64 -23 -119.5t-61 -96t-92.5 -64t-119.5 -23.5q-74 1 -127.5 27t-87 70.5t-47 105t-8.5 131.5q5 76 8 152t5 137.5t3 101.5t1 43q38 2 75.5 3.5t75.5 3.5q-2 -112 -4 -222.5t-4 -222.5q-4 -85 20.5 -126.5t89.5 -45.5h11
q56 0 88.5 39.5t35.5 127.5q2 114 5 225.5t6 225.5zM349 -260q-6 0 -11.5 -0.5t-11.5 -0.5q-58 0 -100.5 18.5t-68 48t-35 66.5t-3.5 74q6 31 22 59t42.5 50t63.5 34.5t85 12.5l11 -105q-54 -9 -74.5 -32.5t-12.5 -49.5q5 -19 24 -29.5t49 -10.5q7 0 13.5 0.5t13.5 1.5z" />
    <glyph glyph-name="uogonek" unicode="&#x173;" horiz-adv-x="524" 
d="M489 -5q-32 2 -68 2.5t-69 2.5l-8 62q-29 -41 -63 -59.5t-84 -18.5q-42 3 -74 24t-53.5 62.5t-32 104t-10.5 149.5q0 60 4 124t15 148q38 2 81.5 4t82.5 4q-5 -36 -11.5 -84t-11 -98.5t-6 -100t4 -89t19.5 -64.5t39 -28q22 0 38.5 9.5t28 25t18 35t6.5 39.5l11 355h152z
M483.957 -187.616q-4.98828 0 -9.56055 -0.354492q-4.57227 -0.353516 -9.55957 -0.353516q-48.2158 0 -83.5459 13.1006t-56.5283 33.9902t-29.0947 47.0908q-7.89746 26.2002 -2.91016 52.4014q4.98828 21.9521 18.2891 41.7793q13.3008 19.8281 35.3301 35.4062
q22.0293 15.5791 52.7871 24.4307t70.6602 8.85156l9.14453 -74.3535q-44.8896 -6.37305 -61.9316 -23.0137q-17.041 -16.6416 -10.3906 -35.0527q4.15625 -13.4551 19.9512 -20.8896q15.7939 -7.43555 40.7334 -7.43555q5.81934 0 11.2227 0.353516
q5.40332 0.354492 11.2217 1.0625z" />
    <glyph glyph-name="Wcircumflex" unicode="&#x174;" horiz-adv-x="816" 
d="M847 752l-157 -748q-51 -3 -106 -4t-104 -3l-73 368q-21 -97 -35 -184.5t-32 -176.5l-214 -7q-18 94 -35 186t-33 183.5t-33 183.5t-35 186q38 8 70 14.5t69 14.5l107 -586l104 503l149 10l93 -509l130 585zM533 681l-121 88l-121 -88l-78 108l199 180q48 -43 99 -89
t100 -91z" />
    <glyph glyph-name="wcircumflex" unicode="&#x175;" horiz-adv-x="688" 
d="M698 590l-122 -596l-178 -11l-67 286l-72 -274l-179 -11l-84 573l152 48l39 -364l84 321l140 11l71 -367q11 81 27 184t33 212zM464 558l-121 88l-121 -88l-78 108l199 180q48 -43 99 -89t100 -91z" />
    <glyph glyph-name="Ycircumflex" unicode="&#x176;" horiz-adv-x="564" 
d="M590 689q-57 -95 -112 -196.5t-112 -195.5l-5 -314q-41 1 -79 2t-77 3l7 307l-233 398l133 80l173 -320q44 75 87 156t88 155zM402 739l-121 88l-121 -88l-78 108l199 180q48 -43 99 -89t100 -91z" />
    <glyph glyph-name="ycircumflex" unicode="&#x177;" horiz-adv-x="536" 
d="M547 583q-74 -198 -148.5 -402.5t-148.5 -403.5q-35 13 -72.5 26t-72.5 27l71 196l-194 513l156 72q31 -91 59.5 -183.5t57.5 -183.5l139 379zM389 583l-121 88l-121 -88l-78 108l199 180q48 -43 99 -89t100 -91z" />
    <glyph glyph-name="Ydieresis" unicode="&#x178;" horiz-adv-x="564" 
d="M590 689q-57 -95 -112 -196.5t-112 -195.5l-5 -314q-41 1 -79 2t-77 3l7 307l-233 398l133 80l173 -320q44 75 87 156t88 155zM329 805q-20 20 -27 41t-5 40q5 41 36.5 62.5t69.5 21.5q22 -1 41 -13.5t32 -31t18 -40t-1 -40.5q-9 -29 -32.5 -49t-53.5 -23q-2 0 -4.5 -0.5
t-4.5 -0.5q-36 0 -69 33zM114 805q-22 23 -29.5 46t-2.5 44q8 32 36.5 53.5t62.5 21.5q17 0 34.5 -7.5t32.5 -20.5t24.5 -31.5t9.5 -39.5q1 -35 -22.5 -62.5t-56.5 -34.5q-5 -1 -9 -1.5t-9 -0.5q-39 0 -71 33z" />
    <glyph glyph-name="Zacute" unicode="&#x179;" horiz-adv-x="592" 
d="M579 124v-136l-529 6q-9 34 -18 65.5t-17 63.5l367 482h-347v144l495 -5l41 -115l-194 -252t-192 -253h394zM488 853q-56 -40 -115.5 -84t-116.5 -85q-20 26 -39 54.5t-39 55.5l201 184z" />
    <glyph glyph-name="zacute" unicode="&#x17a;" horiz-adv-x="478" 
d="M435 604q8 -33 17 -69.5t17 -70.5l-265 -326q36 3 68 5t63.5 3.5t63 3.5t66.5 4q5 -37 9 -76.5t9 -77.5q-115 -2 -235 -5t-236 -5q-2 31 -1.5 66t-0.5 67l283 341h-274q-1 34 -2 72.5t-2 74.5zM429 719q-56 -40 -115.5 -84t-116.5 -85q-20 26 -39 54.5t-39 55.5l201 184z
" />
    <glyph glyph-name="Zdotaccent" unicode="&#x17b;" horiz-adv-x="592" 
d="M579 124v-136l-529 6q-9 34 -18 65.5t-17 63.5l367 482h-347v144l495 -5l41 -115l-194 -252t-192 -253h394zM216 847q-2 13 2 30.5t15 33t30.5 26.5t48.5 11h10q20 -1 38 -12t31 -28t19 -37.5t2 -40.5q-7 -34 -34.5 -56.5t-62.5 -22.5q-47 0 -70.5 24.5t-28.5 71.5z" />
    <glyph glyph-name="zdotaccent" unicode="&#x17c;" horiz-adv-x="478" 
d="M435 604q8 -33 17 -69.5t17 -70.5l-265 -326q36 3 68 5t63.5 3.5t63 3.5t66.5 4q5 -37 9 -76.5t9 -77.5q-115 -2 -235 -5t-236 -5q-2 31 -1.5 66t-0.5 67l283 341h-274q-1 34 -2 72.5t-2 74.5zM149 713q-2 13 2 30.5t15 33t30.5 26.5t48.5 11h10q20 -1 38 -12t31 -28
t19 -37.5t2 -40.5q-7 -34 -34.5 -56.5t-62.5 -22.5q-47 0 -70.5 24.5t-28.5 71.5z" />
    <glyph glyph-name="Zcaron" unicode="&#x17d;" horiz-adv-x="592" 
d="M579 124v-136l-529 6q-9 34 -18 65.5t-17 63.5l367 482h-347v144l495 -5l41 -115l-194 -252t-192 -253h394zM174 1004l122 -87l120 87l78 -109l-198 -180l-199 180z" />
    <glyph glyph-name="zcaron" unicode="&#x17e;" horiz-adv-x="478" 
d="M435 604q8 -33 17 -69.5t17 -70.5l-265 -326q36 3 68 5t63.5 3.5t63 3.5t66.5 4q5 -37 9 -76.5t9 -77.5q-115 -2 -235 -5t-236 -5q-2 31 -1.5 66t-0.5 67l283 341h-274q-1 34 -2 72.5t-2 74.5zM117 848l122 -87l120 87l78 -109l-198 -180l-199 180z" />
    <glyph glyph-name="florin" unicode="&#x192;" horiz-adv-x="390" 
d="M389 411l-137 -16q-1 -35 -1 -75v-84q2 -112 4.5 -232t7.5 -227q-38 -5 -78 -8t-79 -8q-3 105 -6 213q-1 46 -2.5 97t-2.5 103.5t-2 104.5t-1 100q-18 -2 -36.5 -4t-35.5 -4q-5 36 -9.5 75t-8.5 77l90 10q0 18 0.5 32.5t1.5 27.5q3 59 20.5 101.5t44.5 69.5t62 40t72 13
q19 0 37 -4t36 -10l-11 -144q-10 3 -18 5t-16 2q-28 0 -44 -26t-20 -89l117 13z" />
    <glyph glyph-name="circumflex" unicode="&#x2c6;" horiz-adv-x="443" 
d="M342 583l-121 88l-121 -88l-78 108l199 180q48 -43 99 -89t100 -91z" />
    <glyph glyph-name="caron" unicode="&#x2c7;" horiz-adv-x="443" 
d="M100 848l122 -87l120 87l78 -109l-198 -180l-199 180z" />
    <glyph glyph-name="breve" unicode="&#x2d8;" horiz-adv-x="481" 
d="M428 827q4 -52 -10.5 -91.5t-41 -65.5t-61 -40t-71.5 -15h-7q-37 0 -72.5 12t-63 36t-44.5 59.5t-16 82.5l143 14q8 -44 24 -63t31 -19q3 0 9 2q12 5 20 16t13.5 25.5t7.5 29t2 24.5z" />
    <glyph glyph-name="dotaccent" unicode="&#x2d9;" horiz-adv-x="280" 
d="M40 713q-2 13 2 30.5t15 33t30.5 26.5t48.5 11h10q20 -1 38 -12t31 -28t19 -37.5t2 -40.5q-7 -34 -34.5 -56.5t-62.5 -22.5q-47 0 -70.5 24.5t-28.5 71.5z" />
    <glyph glyph-name="ring" unicode="&#x2da;" horiz-adv-x="328" 
d="M144 691q15 -11 31 -11q12 0 22 7t14.5 18t2 24.5t-13.5 27.5q-16 18 -36 18q-14 0 -25.5 -8t-16.5 -20.5t-0.5 -27t22.5 -28.5zM71 634q-38 38 -42.5 78.5t13.5 74.5t52.5 55.5t74.5 21.5q28 0 55.5 -12.5t51.5 -41.5q32 -38 34.5 -77.5t-14.5 -71.5t-50 -52.5
t-71 -20.5q-26 0 -52.5 10.5t-51.5 35.5z" />
    <glyph glyph-name="ogonek" unicode="&#x2db;" horiz-adv-x="389" 
d="M267 -248q-6 0 -11.5 -0.5t-11.5 -0.5q-58 0 -100.5 18.5t-68 48t-35 66.5t-3.5 74q6 31 22 59t42.5 50t63.5 34.5t85 12.5l11 -105q-54 -9 -74.5 -32.5t-12.5 -49.5q5 -19 24 -29.5t49 -10.5q7 0 13.5 0.5t13.5 1.5z" />
    <glyph glyph-name="tilde" unicode="&#x2dc;" horiz-adv-x="512" 
d="M488 745q-25 -69 -64.5 -99t-85.5 -30q-35 0 -70 17t-64 49q-13 14 -27 14q-10 0 -19.5 -6.5t-17 -16.5t-13.5 -21t-9 -20q-23 20 -47.5 44t-47.5 46q15 24 33 46.5t39.5 40.5t47 29t55.5 11q31 -2 59.5 -19t53.5 -41q14 -14 29 -14q17 0 31.5 16.5t22.5 37.5z" />
    <glyph glyph-name="hungarumlaut" unicode="&#x2dd;" horiz-adv-x="552" 
d="M530 763q-46 -41 -96.5 -84.5t-97.5 -85.5q-18 25 -39.5 54t-40.5 55q40 45 82.5 92.5t83.5 93.5zM287 763q-48 -41 -97.5 -85t-97.5 -85q-20 25 -39.5 54t-39.5 55q42 45 82.5 92.5t82.5 93.5z" />
    <glyph glyph-name="uni1E02" unicode="&#x1e02;" horiz-adv-x="610" 
d="M196 124q18 -2 29.5 -1.5t22.5 -0.5h5q39 0 69 10t50 25.5t31 34.5t12 38q3 35 -23.5 68.5t-76.5 50.5l-123 -27zM392 588q-1 27 -19 44.5t-66 17.5q-23 0 -53.5 -4t-68.5 -15l4 -165q59 7 98 18.5t62 27.5t33 35t10 41zM450 417q66 -30 98.5 -82t32.5 -106
q-1 -45 -25 -90t-70.5 -80.5t-115.5 -57.5t-162 -22l-157 4l-22 771q11 0 43.5 3.5t73 8t82.5 8t72 3.5q54 0 99 -9t77.5 -30t50.5 -56t18 -86q0 -58 -25 -102t-70 -77zM178 867q-2 13 2 30.5t15 33t30.5 26.5t48.5 11h10q20 -1 38 -12t31 -28t19 -37.5t2 -40.5
q-7 -34 -34.5 -56.5t-62.5 -22.5q-47 0 -70.5 24.5t-28.5 71.5z" />
    <glyph glyph-name="uni1E03" unicode="&#x1e03;" horiz-adv-x="548" 
d="M282 120q19 0 34 21t25.5 52t16.5 68t6 68q0 75 -12.5 114t-51.5 39q-29 0 -58 -35.5t-55 -96.5l3 -215q51 -15 92 -15zM176 816l6 -275q23 35 57 55.5t66 23.5q4 0 8 0.5t8 0.5q36 0 72 -15t64.5 -49t46.5 -88t18 -131q0 -177 -60 -268t-162 -91q-37 0 -66 2.5t-56.5 8
t-58 14t-70.5 19.5q-6 189 -11.5 380t-11.5 380zM225 763q-2 13 2 30.5t15 33t30.5 26.5t48.5 11h10q20 -1 38 -12t31 -28t19 -37.5t2 -40.5q-7 -34 -34.5 -56.5t-62.5 -22.5q-47 0 -70.5 24.5t-28.5 71.5z" />
    <glyph glyph-name="uni1E0A" unicode="&#x1e0a;" horiz-adv-x="631" 
d="M199 124q5 0 9.5 -0.5t9.5 -0.5q59 0 102 20t71.5 57t42 88.5t13.5 114.5q0 45 -9 87.5t-30 75.5t-55 53.5t-84 20.5q-22 0 -44 -3t-45 -7zM272 778q86 -6 148.5 -39.5t103.5 -87.5t60.5 -125.5t20.5 -154.5q1 -92 -29.5 -166t-83.5 -125.5t-125 -79.5t-153 -28l-165 10
l-20 772q4 0 28.5 3.5t58 8.5t71 9t67.5 4q5 0 9 -0.5t9 -0.5zM156 862q-2 13 2 30.5t15 33t30.5 26.5t48.5 11h10q20 -1 38 -12t31 -28t19 -37.5t2 -40.5q-7 -34 -34.5 -56.5t-62.5 -22.5q-47 0 -70.5 24.5t-28.5 71.5z" />
    <glyph glyph-name="uni1E0B" unicode="&#x1e0b;" horiz-adv-x="613" 
d="M546 815q-4 -95 -8 -188q-1 -40 -2.5 -83t-2 -85.5t-1 -82.5t-0.5 -74q0 -22 -0.5 -49.5t5 -53t20 -45.5t44.5 -27l-56 -134q-15 1 -33 5t-36.5 13t-36 24t-32.5 37q-29 -46 -66 -69.5t-89 -23.5q-51 0 -91 21.5t-68 58t-44.5 84.5t-21.5 100q-6 67 5.5 134.5t40 121.5
t74 88t108.5 33q19 0 38.5 -4.5t37.5 -13t32 -21t21 -29.5q2 47 2.5 92t1.5 81q1 41 2 79v-8zM279 124q29 0 48 19t31 46t17 57t6 52q3 78 -22.5 125.5t-70.5 47.5q-24 0 -42.5 -13.5t-32 -37t-20.5 -53.5t-9 -62q-2 -34 3 -66.5t17 -58t31 -41t44 -15.5zM165 755
q-2 13 2 30.5t15 33t30.5 26.5t48.5 11h10q20 -1 38 -12t31 -28t19 -37.5t2 -40.5q-7 -34 -34.5 -56.5t-62.5 -22.5q-47 0 -70.5 24.5t-28.5 71.5z" />
    <glyph glyph-name="uni1E1E" unicode="&#x1e1e;" horiz-adv-x="491" 
d="M428 390l-8 -145l-231 10q-2 -69 -3 -136.5t-3 -135.5q-38 1 -76.5 2t-77.5 3q5 195 9 389.5t9 390.5l454 -12q-2 -35 -5 -69t-6 -69l-292 9l-6 -226zM183 845q-2 13 2 30.5t15 33t30.5 26.5t48.5 11h10q20 -1 38 -12t31 -28t19 -37.5t2 -40.5q-7 -34 -34.5 -56.5
t-62.5 -22.5q-47 0 -70.5 24.5t-28.5 71.5z" />
    <glyph glyph-name="uni1E1F" unicode="&#x1e1f;" horiz-adv-x="390" 
d="M389 411l-136 -15q0 -20 -1 -41.5t-1 -45.5q0 -91 3.5 -197t8.5 -215q-38 -5 -78 -8t-79 -8q-3 81 -6 166q-2 73 -4 161t-4 171q-18 -2 -36.5 -4t-35.5 -4q-5 36 -9.5 75t-8.5 77l90 10q0 17 0.5 31.5t1.5 28.5q3 59 20.5 101.5t44.5 69.5t62 40t72 13q19 0 37 -4t36 -10
l-11 -144q-10 3 -19 5t-18 2q-14 0 -26 -5.5t-20.5 -19t-12.5 -35.5t-3 -55l118 13zM104.721 859.797q-1.68555 10.6807 1.68555 25.0586q3.37305 14.3779 12.6455 27.1123q9.27344 12.7354 25.7119 21.7725q16.4395 9.03711 40.8867 9.03711h8.42969
q16.8613 -0.821289 32.0352 -9.8584q15.1738 -9.03809 26.1338 -23.0049q10.959 -13.9668 16.0166 -30.8096q5.05859 -16.8428 1.68652 -33.2744q-5.90137 -27.9346 -29.084 -46.4209q-23.1826 -18.4854 -52.6885 -18.4854q-39.6221 0 -59.4326 20.1289
q-19.8115 20.1289 -24.0264 58.7441z" />
    <glyph glyph-name="uni1E40" unicode="&#x1e40;" horiz-adv-x="792" 
d="M607 487q-32 -101 -68 -208t-68 -210q-37 1 -73.5 2.5t-74.5 2.5l-130 413l-4 -502q-40 2 -79.5 3.5t-80.5 3.5q4 189 9 375t9 377l208 10l146 -503l145 493q52 2 104.5 4.5t103.5 5.5q4 -188 9 -374t9 -375q-41 -3 -80 -5t-81 -7zM297 773q-2 13 2 30.5t15 33t30.5 26.5
t48.5 11h10q20 -1 38 -12t31 -28t19 -37.5t2 -40.5q-7 -34 -34.5 -56.5t-62.5 -22.5q-47 0 -70.5 24.5t-28.5 71.5z" />
    <glyph glyph-name="uni1E41" unicode="&#x1e41;" horiz-adv-x="774" 
d="M34 -4q-3 149 -4.5 301t-3.5 302q39 1 70.5 2t71.5 2l5 -69q22 39 53 60.5t73 21.5q40 0 75.5 -20.5t51.5 -58.5q24 37 60.5 58t77.5 21q55 0 89 -23t53.5 -59t27.5 -81t11 -90q4 -68 0 -158.5t-17 -208.5q-36 1 -75.5 2t-77.5 2q4 80 7 155t3 132q-2 88 -12.5 136.5
t-38.5 48.5q-25 0 -41.5 -22t-26.5 -54q5 -85 -1 -182.5t-14 -217.5q-37 1 -76 2l-78 2q7 108 14.5 196.5t7.5 154.5q0 57 -12 89t-43 32q-18 0 -31.5 -13t-22.5 -34t-14.5 -46.5t-7.5 -51.5l-2 -333zM287 705q-2 13 2 30.5t15 33t30.5 26.5t48.5 11h10q20 -1 38 -12t31 -28
t19 -37.5t2 -40.5q-7 -34 -34.5 -56.5t-62.5 -22.5q-47 0 -70.5 24.5t-28.5 71.5z" />
    <glyph glyph-name="uni1E56" unicode="&#x1e56;" horiz-adv-x="592" 
d="M194 369q8 0 15.5 -0.5t15.5 -0.5q36 0 71.5 6t64.5 22t49 44.5t25 73.5q4 30 -4.5 54t-27 41t-45 27.5t-59.5 13.5q-7 1 -14 1.5t-15 0.5q-19 0 -39.5 -2.5t-41.5 -6.5zM30 757q63 19 123.5 28t116.5 9q70 0 128.5 -16.5t101 -49.5t66.5 -84.5t24 -122.5
q0 -75 -25.5 -130t-70 -91t-104.5 -53t-129 -17q-16 0 -32 1t-33 3l4 -246q-41 -2 -79 -4t-80 -4zM182 874q-2 13 2 30.5t15 33t30.5 26.5t48.5 11h10q20 -1 38 -12t31 -28t19 -37.5t2 -40.5q-7 -34 -34.5 -56.5t-62.5 -22.5q-47 0 -70.5 24.5t-28.5 71.5z" />
    <glyph glyph-name="uni1E57" unicode="&#x1e57;" horiz-adv-x="558" 
d="M197 247q3 -19 9 -40.5t16.5 -39.5t26.5 -30t40 -12q21 0 37.5 14.5t27 38t16.5 54t6 62.5q1 33 -4.5 65t-16.5 57.5t-27.5 40.5t-39.5 15t-38.5 -11.5t-25.5 -28.5t-16 -38t-9 -39zM163 597l22 -45q23 35 58.5 52t77.5 17q55 -2 95.5 -31.5t67 -76t39.5 -105.5t11 -120
q-2 -59 -16.5 -114.5t-41 -98t-65 -68t-89.5 -25.5q-44 0 -75 21.5t-54 56.5q0 -29 -0.5 -64.5t-1 -72.5t-1 -73t-0.5 -64l-162 -8q4 200 6.5 404.5t7.5 404.5zM189 713q-2 13 2 30.5t15 33t30.5 26.5t48.5 11h10q20 -1 38 -12t31 -28t19 -37.5t2 -40.5q-7 -34 -34.5 -56.5
t-62.5 -22.5q-47 0 -70.5 24.5t-28.5 71.5z" />
    <glyph glyph-name="uni1E60" unicode="&#x1e60;" horiz-adv-x="631" 
d="M228 562q-1 -17 8 -30.5t26 -24t40 -20t49 -19.5h-1q42 -14 87.5 -31.5t83.5 -46t61.5 -70.5t21.5 -104q-4 -63 -29 -109t-64 -76.5t-88.5 -46t-102.5 -17.5q-39 0 -80 5.5t-79.5 19.5t-72 37t-57.5 57q20 27 41.5 56t42.5 58q32 -38 80 -59.5t105 -21.5q5 0 9 0.5t9 0.5
q32 2 57 11t41 24t23 34t2 40q-6 30 -36.5 49t-71.5 35t-87 33.5t-84 44t-62 67t-21 101.5q2 57 24.5 99.5t58.5 70.5t81.5 42t93.5 14q63 0 124.5 -20t109.5 -63l-88 -131q-26 30 -61 45.5t-69 19.5q-15 3 -29 3q-38 0 -66 -19.5t-30 -57.5zM226 869q-2 13 2 30.5t15 33
t30.5 26.5t48.5 11h10q20 -1 38 -12t31 -28t19 -37.5t2 -40.5q-7 -34 -34.5 -56.5t-62.5 -22.5q-47 0 -70.5 24.5t-28.5 71.5z" />
    <glyph glyph-name="uni1E61" unicode="&#x1e61;" horiz-adv-x="474" 
d="M371 435q-32 20 -63 30t-57 10q-44 0 -55 -29q-7 -22 10 -36.5t47 -28t66.5 -29t68 -39.5t51.5 -59t18 -88q-1 -49 -20 -84.5t-50.5 -58.5t-72.5 -34t-86 -11q-34 0 -69.5 6.5t-68.5 20t-62.5 33.5t-51.5 47l79 122q23 -29 52 -47.5t59 -27.5q27 -6 52 -6q34 0 57 10.5
t25 30.5q3 20 -13 35t-43 29t-59.5 29t-62.5 35q-39 26 -60 59.5t-24.5 69t8.5 69.5t39.5 61t68.5 43.5t95 16.5q48 0 98 -12.5t91 -37.5zM135 706q-2 13 2 30.5t15 33t30.5 26.5t48.5 11h10q20 -1 38 -12t31 -28t19 -37.5t2 -40.5q-7 -34 -34.5 -56.5t-62.5 -22.5
q-47 0 -70.5 24.5t-28.5 71.5z" />
    <glyph glyph-name="uni1E6A" unicode="&#x1e6a;" horiz-adv-x="488" 
d="M510 609l-188 5q-3 -157 -6.5 -315t-6.5 -316q-39 1 -77 2t-78 3l13 632l-190 -5l8 160q137 -5 269.5 -9.5t266.5 -8.5zM154 869q-2 13 2 30.5t15 33t30.5 26.5t48.5 11h10q20 -1 38 -12t31 -28t19 -37.5t2 -40.5q-7 -34 -34.5 -56.5t-62.5 -22.5q-47 0 -70.5 24.5
t-28.5 71.5z" />
    <glyph glyph-name="uni1E6B" unicode="&#x1e6b;" horiz-adv-x="365" 
d="M257 211q0 -21 2.5 -36t10.5 -26t22.5 -17.5t38.5 -10.5q-11 -34 -21.5 -74.5t-21.5 -75.5q-54 6 -92 27t-62 51.5t-34.5 68.5t-10.5 79v242l-74 -7l-14 151l101 12l19 116q29 3 65 5t66 4q0 -26 0.5 -53.5t0.5 -54.5l94 13l15 -153l-108 -13zM83 737q-2 13 2 30.5t15 33
t30.5 26.5t48.5 11h10q20 -1 38 -12t31 -28t19 -37.5t2 -40.5q-7 -34 -34.5 -56.5t-62.5 -22.5q-47 0 -70.5 24.5t-28.5 71.5z" />
    <glyph glyph-name="Wgrave" unicode="&#x1e80;" horiz-adv-x="816" 
d="M847 752l-157 -748q-51 -3 -106 -4t-104 -3l-73 368q-21 -97 -35 -184.5t-32 -176.5l-214 -7q-18 94 -35 186t-33 183.5t-33 183.5t-35 186q38 8 70 14.5t69 14.5l107 -586l104 503l149 10l93 -509l130 585zM558 777q-20 -25 -39.5 -54t-39.5 -56q-57 41 -116 84.5
t-116 84.5q26 29 54 62t55 64z" />
    <glyph glyph-name="wgrave" unicode="&#x1e81;" horiz-adv-x="688" 
d="M698 590l-122 -596l-178 -11l-67 286l-72 -274l-179 -11l-84 573l152 48l39 -364l84 321l140 11l71 -367q11 81 27 184t33 212zM481 669q-20 -25 -39.5 -54t-39.5 -56q-57 41 -116 84.5t-116 84.5q26 29 54 62t55 64z" />
    <glyph glyph-name="Wacute" unicode="&#x1e82;" horiz-adv-x="816" 
d="M847 752l-157 -748q-51 -3 -106 -4t-104 -3l-73 368q-21 -97 -35 -184.5t-32 -176.5l-214 -7q-18 94 -35 186t-33 183.5t-33 183.5t-35 186q38 8 70 14.5t69 14.5l107 -586l104 503l149 10l93 -509l130 585zM574 840q-56 -40 -115.5 -84t-116.5 -85q-20 26 -39 54.5
t-39 55.5l201 184z" />
    <glyph glyph-name="wacute" unicode="&#x1e83;" horiz-adv-x="688" 
d="M698 590l-122 -596l-178 -11l-67 286l-72 -274l-179 -11l-84 573l152 48l39 -364l84 321l140 11l71 -367q11 81 27 184t33 212zM525 715q-56 -40 -115.5 -84t-116.5 -85q-20 26 -39 54.5t-39 55.5l201 184z" />
    <glyph glyph-name="Wdieresis" unicode="&#x1e84;" horiz-adv-x="816" 
d="M847 752l-157 -748q-51 -3 -106 -4t-104 -3l-73 368q-21 -97 -35 -184.5t-32 -176.5l-214 -7q-18 94 -35 186t-33 183.5t-33 183.5t-35 186q38 8 70 14.5t69 14.5l107 -586l104 503l149 10l93 -509l130 585zM440 759q-20 20 -27 41t-5 40q5 41 36.5 62.5t69.5 21.5
q22 -1 41 -13.5t32 -31t18 -40t-1 -40.5q-9 -29 -32.5 -49t-53.5 -23q-2 0 -4.5 -0.5t-4.5 -0.5q-36 0 -69 33zM225 759q-22 23 -29.5 46t-2.5 44q8 32 36.5 53.5t62.5 21.5q17 0 34.5 -7.5t32.5 -20.5t24.5 -31.5t9.5 -39.5q1 -35 -22.5 -62.5t-56.5 -34.5q-5 -1 -9 -1.5
t-9 -0.5q-39 0 -71 33z" />
    <glyph glyph-name="wdieresis" unicode="&#x1e85;" horiz-adv-x="688" 
d="M698 590l-122 -596l-178 -11l-67 286l-72 -274l-179 -11l-84 573l152 48l39 -364l84 321l140 11l71 -367q11 81 27 184t33 212zM368 621q-20 20 -27 41t-5 40q5 41 36.5 62.5t69.5 21.5q22 -1 41 -13.5t32 -31t18 -40t-1 -40.5q-9 -29 -32.5 -49t-53.5 -23
q-2 0 -4.5 -0.5t-4.5 -0.5q-36 0 -69 33zM153 621q-22 23 -29.5 46t-2.5 44q8 32 36.5 53.5t62.5 21.5q17 0 34.5 -7.5t32.5 -20.5t24.5 -31.5t9.5 -39.5q1 -35 -22.5 -62.5t-56.5 -34.5q-5 -1 -9 -1.5t-9 -0.5q-39 0 -71 33z" />
    <glyph glyph-name="Ygrave" unicode="&#x1ef2;" horiz-adv-x="564" 
d="M590 689q-57 -95 -112 -196.5t-112 -195.5l-5 -314q-41 1 -79 2t-77 3l7 307l-233 398l133 80l173 -320q44 75 87 156t88 155zM398 804q-20 -25 -39.5 -54t-39.5 -56q-57 41 -116 84.5t-116 84.5q26 29 54 62t55 64z" />
    <glyph glyph-name="ygrave" unicode="&#x1ef3;" horiz-adv-x="536" 
d="M547 583q-74 -198 -148.5 -402.5t-148.5 -403.5q-35 13 -72.5 26t-72.5 27l71 196l-194 513l156 72q31 -91 59.5 -183.5t57.5 -183.5l139 379zM397 672q-20 -25 -39.5 -54t-39.5 -56q-57 41 -116 84.5t-116 84.5q26 29 54 62t55 64z" />
    <glyph glyph-name="endash" unicode="&#x2013;" horiz-adv-x="589" 
d="M561 400q-1 -38 -2 -80.5t-2 -81.5q-133 -3 -264.5 -4.5t-264.5 -3.5q-2 39 -1.5 77t-0.5 80z" />
    <glyph glyph-name="emdash" unicode="&#x2014;" horiz-adv-x="828" 
d="M801 400q-1 -38 -2 -80.5t-2 -81.5q-192 -3 -384.5 -4.5t-384.5 -3.5q-2 39 -1.5 77t-0.5 80z" />
    <glyph glyph-name="quoteleft" unicode="&#x2018;" horiz-adv-x="245" 
d="M26 463l4 345q34 -1 72.5 -2t73.5 -2l44 -334z" />
    <glyph glyph-name="quoteright" unicode="&#x2019;" horiz-adv-x="245" 
d="M220 801l-44 -333q-35 -1 -73 -2t-73 -2l-4 344z" />
    <glyph glyph-name="quotesinglbase" unicode="&#x201a;" horiz-adv-x="245" 
d="M220 201l-44 -333q-35 -1 -73 -2t-73 -2l-4 344z" />
    <glyph glyph-name="quotedblleft" unicode="&#x201c;" horiz-adv-x="449" 
d="M22 483q17 75 35 153.5t35 155.5q32 1 66.5 2t67.5 2q-5 -81 -11.5 -167t-11.5 -167zM236 469l45 323q32 1 66 2t69 2l3 -320z" />
    <glyph glyph-name="quotedblright" unicode="&#x201d;" horiz-adv-x="449" 
d="M433 784q-17 -78 -33.5 -159.5t-33.5 -160.5q-32 1 -67 2t-68 2q5 79 9.5 160.5t9.5 161.5zM217 797l-41 -333q-32 1 -66.5 2t-67.5 2q-2 76 -3.5 154t-3.5 155z" />
    <glyph glyph-name="quotedblbase" unicode="&#x201e;" horiz-adv-x="449" 
d="M433 184q-17 -78 -33.5 -159.5t-33.5 -160.5q-32 1 -67 2t-68 2q5 79 9.5 160.5t9.5 161.5zM217 197l-41 -333q-32 1 -66.5 2t-67.5 2q-2 76 -3.5 154t-3.5 155z" />
    <glyph glyph-name="dagger" unicode="&#x2020;" horiz-adv-x="498" 
d="M447 635q1 -32 0.5 -69t1.5 -72l-118 -3l-9 -701q-39 -2 -80 -5l-82 -6l9 709q-29 -1 -57.5 -1t-57.5 -1q-2 30 -2.5 64.5t-2.5 66.5l123 5l3 171l160 14l-3 -177z" />
    <glyph glyph-name="daggerdbl" unicode="&#x2021;" horiz-adv-x="498" 
d="M447 635q1 -32 0.5 -69t1.5 -72l-118 -3l-5 -349l121 6q1 -34 0.5 -70.5t1.5 -71.5l-124 -3l-3 -213q-39 -2 -80 -5l-82 -6l3 221q-28 -1 -55.5 -1t-53.5 -1q-2 30 -2.5 64.5t-2.5 66.5l116 5l4 354q-29 -1 -57.5 -1t-57.5 -1q-2 30 -2.5 64.5t-2.5 66.5l123 5l3 171
l160 14l-3 -177z" />
    <glyph glyph-name="bullet" unicode="&#x2022;" horiz-adv-x="601" 
d="M303 212q-29 0 -55.5 12.5t-48 33t-36.5 47t-20 53.5q-6 37 6 70.5t35.5 60t55.5 43t65 20.5q5 1 9 1h9q27 0 52.5 -10.5t45.5 -29.5t33 -45t16 -56q4 -35 -6.5 -68.5t-31 -60.5t-48 -45t-58.5 -24q-6 -1 -11.5 -1.5t-11.5 -0.5z" />
    <glyph glyph-name="ellipsis" unicode="&#x2026;" horiz-adv-x="725" 
d="M581 -12q-18 0 -35 8t-30.5 21.5t-22.5 30.5t-12 34q-4 23 3.5 44.5t22.5 38t35 27.5t41 14q41 0 70 -24t33 -66q2 -22 -4.5 -43.5t-19 -39t-30 -29.5t-36.5 -15q-5 -1 -15 -1zM354 -12q-18 0 -35 8t-30.5 21.5t-22 30.5t-11.5 34q-4 23 3.5 44.5t22.5 38t34.5 27.5
t40.5 14q42 0 70 -24t32 -66q2 -22 -4.5 -43.5t-19 -39t-29.5 -29.5t-36 -15q-5 -1 -15 -1zM127 -12q-18 0 -35 8t-30.5 21.5t-22 30.5t-11.5 34q-4 23 3.5 44.5t22.5 38t34.5 27.5t40.5 14q42 0 70 -24t32 -66q2 -22 -4.5 -43.5t-19 -39t-29.5 -29.5t-36 -15q-5 -1 -15 -1z
" />
    <glyph glyph-name="perthousand" unicode="&#x2030;" horiz-adv-x="868" 
d="M149 -29q-30 15 -63 29.5t-65 29.5l283 406q-28 -28 -58.5 -40.5t-59.5 -12.5t-54 10.5t-43.5 29.5t-30.5 44t-14 53q-2 26 3.5 53.5t20.5 56.5q26 52 64 81t97 29q26 -2 50 -13t43 -29t31.5 -42.5t15.5 -53.5q5 -49 -22 -103l160 230l106 -75l-252 -370q23 27 54 44.5
t67 17.5q29 0 56 -10.5t48 -29.5q23 20 48.5 29.5t50.5 9.5q33 0 61 -11t48.5 -31.5t32.5 -48.5t12 -61q0 -35 -15 -71.5t-40 -66t-58.5 -48t-71.5 -18.5q-57 0 -98 41q-26 -23 -54 -33.5t-55 -10.5h-13.5t-13.5 2q-25 4 -45.5 18t-35.5 35t-23 47t-8 54q0 23 5.5 46
t18.5 49q2 4 4 7.5t4 7.5zM628 157q-2 -21 10 -31.5t26 -10.5t24.5 10t17.5 21q19 28 12 48q-7 25 -31 25q-2 0 -3 -0.5t-3 -0.5q-17 -5 -34.5 -20t-18.5 -41zM213 611q-9 0 -18.5 -5.5t-17 -15t-12.5 -21t-5 -23.5q0 -16 10 -27t23 -11t25.5 11t19.5 21q4 7 7 12.5t5 11.5
q4 20 -8 33.5t-29 13.5zM427 155q-2 -20 8.5 -30t24.5 -10q6 0 9 1q16 8 32 24.5t16 37.5q0 16 -10.5 26.5t-24.5 10.5q-6 0 -9 -1q-15 -2 -30 -20t-16 -39z" />
    <glyph glyph-name="guilsinglleft" unicode="&#x2039;" horiz-adv-x="407" 
d="M286 111l-264 254l255 278q25 -23 51.5 -48.5t52.5 -49.5l-168 -174q45 -41 86.5 -78.5t85.5 -78.5z" />
    <glyph glyph-name="guilsinglright" unicode="&#x203a;" horiz-adv-x="407" 
d="M120 643l265 -255q-63 -69 -128 -139t-129 -139l-102 99l168 173q-45 42 -86.5 79.5t-86.5 77.5z" />
    <glyph glyph-name="fraction" unicode="&#x2044;" horiz-adv-x="704" 
d="M661 810l-495 -1005l-144 63l496 1013z" />
    <glyph glyph-name="Euro" unicode="&#x20ac;" horiz-adv-x="533" 
d="M80 466q13 59 38.5 101.5t58.5 70.5t72.5 41.5t80.5 13.5q48 0 93.5 -17t86.5 -52l-80 -107q-14 15 -30.5 27t-37.5 17q-5 1 -10 1.5t-10 0.5q-33 0 -60 -20t-43 -58l131 14q-3 -26 -5.5 -46t-5.5 -49l-146 -15l-5 -50l136 18q-2 -26 -2.5 -47t-2.5 -49l-124 -13
q25 -73 104 -73q27 2 53.5 18t44.5 45q17 -26 35.5 -56t37.5 -58q-29 -40 -69 -63t-84 -30q-8 -1 -15.5 -1.5t-15.5 -0.5q-38 0 -75 12.5t-68 38t-54 64t-34 90.5l-45 -4l-5 85l41 5l1 51l-37 -4l-4 93z" />
    <glyph glyph-name="trademark" unicode="&#x2122;" horiz-adv-x="870" 
d="M685 582l-82 -265l-103 1l-80 264l-1 -316l-113 4l8 394l-86 2l-10 -394l-109 4l9 396l-115 -5l6 119l336 -12l117 13l92 -330l88 313l146 9l10 -500l-111 -7z" />
    <glyph glyph-name="minus" unicode="&#x2212;" horiz-adv-x="452" 
d="M424 436q1 -34 0.5 -70.5t1.5 -71.5q-97 -3 -197.5 -4.5t-197.5 -3.5q-2 32 -2.5 65.5t-2.5 66.5z" />
    <glyph glyph-name="a_alt" horiz-adv-x="557" 
d="M336 369q-9 48 -25 74.5t-42 27.5q-19 0 -34 -13t-25.5 -35.5t-17.5 -51.5t-10 -61q-3 -34 -0.5 -67t11 -59.5t22 -42.5t33.5 -16q28 0 51 32t34 85q1 33 1.5 64t1.5 63zM384 617q32 -1 58 -1.5t58 -2.5q-7 -80 -11 -153q-2 -31 -3.5 -64.5t-3 -64.5t-1.5 -59t1 -49
q2 -51 21 -74t56 -34q-18 -29 -36.5 -61t-37.5 -61q-16 0 -34 5t-35 14.5t-31.5 24t-24.5 33.5q-20 -39 -55.5 -63.5t-80.5 -25.5q-56 0 -94.5 25.5t-62.5 65.5t-35 89t-13 96q-2 65 11 130t40 116.5t68.5 84t96.5 32.5q42 0 76 -18.5t55 -54.5z" />
    <glyph glyph-name="f_alt" horiz-adv-x="390" 
d="M389 390l-138 -7q-1 -37 -1 -78.5v-86.5q0 -101 3 -207t8 -205q-37 -5 -77.5 -8t-79.5 -7q-3 98 -5 199q-2 88 -4 190t-3 195l-72 -4q-5 36 -9.5 75.5t-8.5 76.5l90 6q0 19 0.5 34.5t1.5 29.5q3 59 20.5 101.5t44.5 69.5t62 40t72 13q19 0 37 -4t36 -10l-11 -144
q-9 3 -17 4t-16 1q-24 0 -38.5 -12t-21.5 -31t-8 -41.5t2 -43.5l118 7z" />
    <glyph glyph-name="y_alt" horiz-adv-x="536" 
d="M488 613l4 -80q2 -64 4 -133t3 -135q0 -81 -4.5 -149t-16.5 -117q-11 -44 -34 -80.5t-54.5 -63t-71 -42t-83.5 -17.5q-57 0 -106.5 12t-100.5 38q16 31 30.5 59.5t30.5 60.5q57 -27 107 -27q54 0 92 32.5t50 101.5q-24 -45 -56.5 -61.5t-82.5 -16.5q-40 3 -71.5 18.5
t-53 49.5t-33.5 87.5t-15 131.5q-1 63 4 140.5t16 173.5q38 2 79 4t80 4q-11 -103 -16 -185t-3 -142q0 -17 2 -39.5t8 -43.5t17.5 -36t32.5 -18h6q28 0 45 19t26.5 47t14 58.5t7.5 53.5q-1 69 -5.5 138.5t-9.5 142.5z" />
    </font>
</defs>
</svg>
