<svg width="201" height="63" viewBox="0 0 201 63" fill="none" xmlns="http://www.w3.org/2000/svg">
<path d="M85.8498 27.0953C85.8498 28.25 85.5859 29.3393 85.0581 30.3633C84.5303 31.3873 83.6857 32.2261 82.5245 32.8798C81.3633 33.5116 79.8748 33.8275 78.0591 33.8275H74.0687V43.0435H70.4583V20.3303H78.0591C79.7481 20.3303 81.1733 20.6354 82.3345 21.2454C83.5168 21.8336 84.393 22.6398 84.9631 23.6638C85.5542 24.6878 85.8498 25.8316 85.8498 27.0953ZM78.0591 30.7882C79.4314 30.7882 80.4554 30.4723 81.131 29.8404C81.8067 29.1868 82.1445 28.2718 82.1445 27.0953C82.1445 24.6115 80.7827 23.3696 78.0591 23.3696H74.0687V30.7882H78.0591Z" fill="white"/>
<path d="M91.13 22.6507C90.4755 22.6507 89.9266 22.4219 89.4832 21.9644C89.0398 21.5068 88.8181 20.9404 88.8181 20.265C88.8181 19.5896 89.0398 19.0231 89.4832 18.5656C89.9266 18.108 90.4755 17.8793 91.13 17.8793C91.7634 17.8793 92.3018 18.108 92.7452 18.5656C93.1885 19.0231 93.4102 19.5896 93.4102 20.265C93.4102 20.9404 93.1885 21.5068 92.7452 21.9644C92.3018 22.4219 91.7634 22.6507 91.13 22.6507ZM92.9035 25.0364V43.0435H89.2932V25.0364H92.9035Z" fill="white"/>
<path d="M106.448 24.7422C107.82 24.7422 109.045 25.0364 110.121 25.6246C111.219 26.2129 112.074 27.0844 112.687 28.2391C113.299 29.3938 113.605 30.7882 113.605 32.4222V43.0435H110.026V32.9778C110.026 31.3655 109.636 30.1346 108.855 29.2849C108.073 28.4134 107.007 27.9776 105.656 27.9776C104.305 27.9776 103.228 28.4134 102.426 29.2849C101.645 30.1346 101.254 31.3655 101.254 32.9778V43.0435H97.6436V25.0364H101.254V27.0953C101.845 26.3545 102.595 25.7771 103.502 25.3632C104.431 24.9492 105.413 24.7422 106.448 24.7422Z" fill="white"/>
<path d="M125.114 34.0563L133.158 43.0435H128.281L121.821 35.2981V43.0435H118.21V18.8597H121.821V32.9124L128.155 25.0364H133.158L125.114 34.0563Z" fill="white"/>
<path d="M142.999 43.2722C141.521 43.2722 140.191 43.0108 139.008 42.4879C137.826 41.9432 136.897 41.1807 136.221 40.2002C135.546 39.2198 135.208 38.076 135.208 36.7688H139.072C139.156 37.7492 139.525 38.5553 140.18 39.1871C140.856 39.819 141.795 40.1349 142.999 40.1349C144.244 40.1349 145.215 39.8299 145.912 39.2198C146.609 38.588 146.957 37.7819 146.957 36.8014C146.957 36.0389 146.736 35.418 146.292 34.9386C145.87 34.4593 145.332 34.0889 144.677 33.8275C144.044 33.566 143.157 33.2828 142.017 32.9778C140.581 32.5856 139.409 32.1935 138.501 31.8013C137.615 31.3873 136.855 30.7555 136.221 29.9058C135.588 29.0561 135.271 27.9232 135.271 26.507C135.271 25.1998 135.588 24.0559 136.221 23.0755C136.855 22.0951 137.741 21.3434 138.882 20.8205C140.022 20.2977 141.341 20.0362 142.84 20.0362C144.973 20.0362 146.714 20.5918 148.066 21.7029C149.438 22.7923 150.198 24.2956 150.346 26.2129H146.356C146.292 25.385 145.912 24.6769 145.215 24.0886C144.519 23.5004 143.6 23.2062 142.46 23.2062C141.426 23.2062 140.581 23.4786 139.927 24.0233C139.272 24.5679 138.945 25.3523 138.945 26.3763C138.945 27.0735 139.145 27.6508 139.547 28.1084C139.969 28.5441 140.497 28.8927 141.13 29.1541C141.763 29.4156 142.629 29.6988 143.727 30.0038C145.184 30.4178 146.366 30.8318 147.274 31.2457C148.203 31.6597 148.984 32.3024 149.618 33.1739C150.272 34.0236 150.599 35.1674 150.599 36.6054C150.599 37.7601 150.293 38.8494 149.681 39.8734C149.09 40.8974 148.214 41.7254 147.052 42.3572C145.912 42.9672 144.561 43.2722 142.999 43.2722Z" fill="white"/>
<path d="M153.656 33.9582C153.656 32.1499 154.015 30.5485 154.733 29.1541C155.472 27.7598 156.464 26.6813 157.71 25.9187C158.976 25.1344 160.37 24.7422 161.89 24.7422C163.262 24.7422 164.455 25.0255 165.469 25.5919C166.503 26.1366 167.327 26.8229 167.939 27.6508V25.0364H171.581V43.0435H167.939V40.3637C167.327 41.2134 166.493 41.9214 165.437 42.4879C164.381 43.0544 163.178 43.3376 161.827 43.3376C160.328 43.3376 158.955 42.9454 157.71 42.1611C156.464 41.355 155.472 40.2438 154.733 38.8277C154.015 37.3897 153.656 35.7666 153.656 33.9582ZM167.939 34.0236C167.939 32.7817 167.686 31.7032 167.179 30.7882C166.693 29.8731 166.049 29.1759 165.247 28.6966C164.445 28.2173 163.579 27.9776 162.65 27.9776C161.721 27.9776 160.855 28.2173 160.053 28.6966C159.251 29.1541 158.596 29.8404 158.09 30.7555C157.604 31.6488 157.361 32.7163 157.361 33.9582C157.361 35.2001 157.604 36.2894 158.09 37.2263C158.596 38.1631 159.251 38.8821 160.053 39.3832C160.877 39.8625 161.742 40.1022 162.65 40.1022C163.579 40.1022 164.445 39.8625 165.247 39.3832C166.049 38.9039 166.693 38.2067 167.179 37.2917C167.686 36.3548 167.939 35.2654 167.939 34.0236Z" fill="white"/>
<path d="M179.933 18.8597V43.0435H176.323V18.8597H179.933Z" fill="white"/>
<path d="M200.667 33.5987C200.667 34.2741 200.624 34.8842 200.54 35.4289H187.207C187.313 36.8668 187.83 38.0215 188.759 38.893C189.688 39.7645 190.828 40.2002 192.179 40.2002C194.122 40.2002 195.494 39.3614 196.296 37.6838H200.192C199.664 39.3397 198.703 40.7014 197.31 41.7689C195.937 42.8147 194.227 43.3376 192.179 43.3376C190.511 43.3376 189.012 42.9563 187.682 42.1938C186.373 41.4094 185.338 40.3201 184.578 38.9257C183.839 37.5095 183.47 35.8755 183.47 34.0236C183.47 32.1717 183.829 30.5485 184.547 29.1541C185.286 27.738 186.31 26.6486 187.619 25.8861C188.949 25.1235 190.469 24.7422 192.179 24.7422C193.826 24.7422 195.293 25.1126 196.581 25.8534C197.869 26.5941 198.872 27.6399 199.59 28.9907C200.308 30.3198 200.667 31.8558 200.667 33.5987ZM196.898 32.4222C196.877 31.0496 196.402 29.9494 195.473 29.1215C194.544 28.2935 193.393 27.8796 192.021 27.8796C190.775 27.8796 189.709 28.2935 188.822 29.1215C187.935 29.9276 187.408 31.0278 187.239 32.4222H196.898Z" fill="white"/>
<g clip-path="url(#clip0_1_67)">
<mask id="mask0_1_67" style="mask-type:luminance" maskUnits="userSpaceOnUse" x="0" y="0" width="61" height="63">
<path d="M60.0417 0.545776H0.666687V62.2958H60.0417V0.545776Z" fill="white"/>
</mask>
<g mask="url(#mask0_1_67)">
<path d="M30.0466 2.12042H30.6534C36.11 2.16982 41.5369 3.96057 46.0125 7.20862C50.7222 10.5925 54.3702 15.5436 56.2761 21.1579C58.4908 27.6269 58.3625 34.9319 55.902 41.307C53.8358 46.715 50.1332 51.4266 45.4556 54.6178C40.9977 57.6855 35.6635 59.3318 30.3197 59.3133H30.2188C24.8869 59.2997 19.574 57.6226 15.1399 54.54C10.4362 51.2969 6.73361 46.5137 4.70418 41.0353C2.3743 34.8109 2.25318 27.7281 4.34674 21.4148C6.22893 15.6931 9.9173 10.6419 14.7017 7.20615C19.1739 3.96181 24.5948 2.17106 30.0466 2.12042ZM47.6976 16.192C47.3307 17.6197 46.9257 19.0387 46.5374 20.4589C45.4746 20.8751 44.3797 21.2049 43.33 21.6544C44.3916 22.078 45.4687 22.4473 46.5327 22.8647C46.9815 24.1368 47.2404 25.4842 47.7807 26.7154C48.1524 25.4557 48.5051 24.1862 48.9302 22.945C49.9182 22.3707 51.0879 22.125 52.1412 21.668C51.1592 21.2049 50.107 20.9307 49.1036 20.5219C48.8673 20.4515 48.8673 20.1564 48.7901 19.96C48.5574 19.03 48.2735 18.1149 48.042 17.1837C47.9482 16.8466 47.9102 16.4761 47.6976 16.192ZM19.6002 20.1267C19.0373 20.4639 19.2974 21.421 19.9232 21.4531C22.0904 21.4716 24.2587 21.4716 26.4247 21.4531C27.1942 21.4074 27.2548 20.1243 26.4853 20.0119C24.4796 19.9514 22.4704 20.0156 20.4659 19.9835C20.182 20.0143 19.8389 19.9229 19.6002 20.1267ZM33.906 20.0983C33.2885 20.4244 33.5557 21.4704 34.2325 21.4593C36.2382 21.4828 38.2427 21.4494 40.2484 21.4729C40.5679 21.4667 40.9633 21.4976 41.1628 21.1777C41.5535 20.7504 41.177 19.9785 40.6296 19.9983C38.6714 19.9736 36.712 20.0082 34.7527 19.9847C34.4736 20.0156 34.1518 19.9291 33.906 20.0996M22.1865 23.7712C21.5584 24.0157 21.1166 24.6888 21.1546 25.3915C21.151 27.4219 21.151 29.4534 21.1546 31.4863C21.1012 32.3532 21.8125 33.1893 22.658 33.1943C23.5486 33.2758 24.381 32.415 24.2908 31.4838C24.2801 29.3793 24.2979 27.2761 24.2813 25.1742C24.2718 24.1269 23.1021 23.376 22.1865 23.7712ZM37.3901 24.1392C36.7429 24.3603 36.2572 25.0433 36.3035 25.762C36.3107 27.8516 36.2976 29.9425 36.3107 32.0321C36.3047 32.7447 36.8427 33.382 37.497 33.5499C38.4042 33.8266 39.4397 33.03 39.4397 32.042C39.4611 30.1413 39.4326 28.2382 39.4504 26.3375C39.4469 25.8139 39.4967 25.2322 39.1773 24.7851C38.7997 24.1923 38.042 23.9145 37.3901 24.1392ZM14.6578 27.9653C13.3029 28.2221 12.1415 29.3213 11.771 30.7008C11.3589 32.0865 11.7876 33.692 12.8302 34.654C14.0059 35.8458 15.9688 36.0286 17.3427 35.106C18.6217 34.3021 19.3354 32.6583 19.0599 31.1269C18.763 29.041 16.6421 27.5071 14.6566 27.964M44.5436 27.9603C43.0533 28.2333 41.8029 29.5411 41.5499 31.0911C41.2625 32.5632 41.9145 34.1464 43.0972 34.9937C44.3916 35.9681 46.2904 35.915 47.5349 34.8714C48.7355 33.9291 49.271 32.2038 48.8388 30.7082C48.3472 28.831 46.383 27.5552 44.5436 27.9616M22.715 38.6159C22.0642 38.9913 22.0072 40.0362 22.6402 40.461C24.3822 41.8257 26.5447 42.5234 28.6988 42.7371C31.8659 43.0273 35.0507 42.1628 37.8663 40.6845C38.4102 40.4486 38.6987 39.7052 38.3864 39.163C38.1275 38.6196 37.4364 38.3961 36.9305 38.7036C34.6707 39.8719 32.1722 40.6561 29.6274 40.5796C27.617 40.5302 25.5816 39.9435 23.9334 38.7209C23.5902 38.4344 23.0902 38.3417 22.715 38.6159Z" fill="white"/>
<path d="M47.6964 16.1908C47.909 16.4748 47.947 16.8453 48.0408 17.1825C48.2724 18.1125 48.5562 19.0276 48.7889 19.9588C48.8661 20.1551 48.8661 20.4503 49.1024 20.5207C50.1047 20.9283 51.1568 21.2037 52.14 21.6668C51.0855 22.125 49.917 22.3707 48.929 22.9438C48.5039 24.185 48.1512 25.4545 47.7795 26.7142C47.2392 25.4829 46.9804 24.1343 46.5315 22.8635C45.4687 22.4461 44.3904 22.0756 43.3288 21.6532C44.3797 21.2037 45.4734 20.8739 46.5362 20.4577C46.9245 19.0375 47.3295 17.6185 47.6964 16.1908Z" fill="#0A0A0A"/>
<path d="M19.599 20.1255C19.8377 19.9217 20.1797 20.0131 20.4647 19.9822C22.4704 20.0143 24.4796 19.9501 26.4841 20.0106C27.2536 20.123 27.1931 21.4062 26.4236 21.4519C24.2564 21.4704 22.088 21.4704 19.922 21.4519C19.2974 21.4198 19.0361 20.4627 19.599 20.1255Z" fill="#0A0A0A"/>
<path d="M33.9048 20.0971C34.1506 19.9279 34.4724 20.0131 34.7515 19.9822C36.7109 20.0045 38.6702 19.9711 40.6284 19.9958C41.177 19.9773 41.5523 20.7492 41.1616 21.1765C40.9621 21.4963 40.5655 21.4667 40.2472 21.4716C38.2415 21.4482 36.237 21.4815 34.2314 21.4581C33.5545 21.4692 33.2873 20.4231 33.9048 20.0971Z" fill="#0A0A0A"/>
<path d="M22.1866 23.7687C23.1033 23.3748 24.273 24.1256 24.2813 25.1717C24.2979 27.2749 24.2789 29.3769 24.2908 31.4813C24.3811 32.4112 23.5486 33.2733 22.658 33.1918C21.8125 33.1856 21.1012 32.3507 21.1546 31.4838C21.1511 29.451 21.1511 27.4194 21.1546 25.389C21.1166 24.6851 21.5584 24.0132 22.1866 23.7687Z" fill="#0A0A0A"/>
<path d="M37.3901 24.1368C38.042 23.912 38.7997 24.1899 39.1773 24.7827C39.4955 25.2285 39.4468 25.8102 39.4504 26.3351C39.4326 28.2357 39.4611 30.1389 39.4397 32.0395C39.4397 33.0275 38.4042 33.8241 37.497 33.5475C36.8427 33.3795 36.3047 32.7435 36.3107 32.0297C36.2976 29.94 36.3107 27.8492 36.3035 25.7596C36.2572 25.0408 36.7429 24.3578 37.3901 24.1368Z" fill="#0A0A0A"/>
<path d="M14.6578 27.9628C16.6433 27.5059 18.7642 29.0397 19.0611 31.1257C19.3366 32.6571 18.6229 34.2996 17.3439 35.1048C15.9688 36.0274 14.0059 35.8446 12.8314 34.6528C11.7888 33.6908 11.3589 32.0853 11.7722 30.6996C12.1427 29.3189 13.3041 28.2209 14.659 27.9641" fill="#0A0A0A"/>
<path d="M44.5436 27.9591C46.3819 27.5528 48.3472 28.8286 48.8388 30.7058C49.2711 32.2026 48.7367 33.9279 47.5349 34.8689C46.2904 35.9113 44.3916 35.9656 43.0972 34.9912C41.9145 34.1452 41.2626 32.5607 41.5499 31.0886C41.8029 29.5387 43.0533 28.2308 44.5436 27.9579" fill="#0A0A0A"/>
<path d="M22.7162 38.6147C23.0914 38.3405 23.5926 38.4331 23.9346 38.7197C25.5828 39.9411 27.617 40.5289 29.6286 40.5783C32.1734 40.6549 34.6707 39.8707 36.9317 38.7024C37.4376 38.3949 38.1287 38.6184 38.3876 39.1618C38.6987 39.7027 38.4114 40.4462 37.8675 40.6833C35.0519 42.1628 31.8682 43.0261 28.7 42.7359C26.5459 42.5222 24.3834 41.8245 22.6414 40.4598C22.0096 40.0349 22.0654 38.9901 22.7162 38.6147Z" fill="#0A0A0A"/>
</g>
</g>
<defs>
<clipPath id="clip0_1_67">
<rect width="59.375" height="61.75" fill="white" transform="translate(0.666687 0.545776)"/>
</clipPath>
</defs>
</svg>
