<svg width="254" height="35" viewBox="0 0 254 35" fill="none" xmlns="http://www.w3.org/2000/svg">
<path d="M36.8808 34.524H61.1706V28.212H44.243V20.4678H58.2687V14.1558H44.243V6.99512H61.278V0.683105H36.8808V34.524ZM90.4042 22.006L74.4977 0.683105H63.535L66.9743 4.97952V34.6301H74.2827V12.4054L90.7266 34.524H97.7664V0.683105H90.4042V22.006ZM25.8107 17.1262C29.035 16.5427 31.722 13.5723 31.722 9.38201C31.722 4.87343 28.3902 0.683105 21.7804 0.683105H0.5L3.83178 4.87343V34.577H22.5327C29.1425 34.577 32.5818 30.4928 32.5818 25.4007C32.4206 21.2104 29.5187 17.6035 25.8107 17.1262ZM11.1402 7.04816H20.3294C22.8014 7.04816 24.3598 8.4803 24.3598 10.602C24.3598 12.7237 22.8014 14.1558 20.3294 14.1558H11.1402V7.04816ZM20.6519 28.265H11.1402V20.4678H20.6519C23.4463 20.4678 25.0047 22.2182 25.0047 24.3399C25.0047 26.7798 23.3388 28.212 20.6519 28.265ZM205.136 22.006H208.951V25.9842C206.963 27.5755 204.491 28.4772 201.911 28.5302C195.785 28.5302 191.486 23.9156 191.486 17.7096C191.486 11.5037 195.839 6.88903 201.911 6.88903C205.082 6.88903 208.037 8.53334 209.757 11.1854L215.561 8.00292C213.089 4.13084 208.736 0.683105 201.857 0.683105C192.131 0.683105 184.07 7.31337 184.07 17.6035C184.07 27.8937 192.023 34.524 201.857 34.524C207.231 34.6301 212.336 32.3493 215.883 28.4241V15.9062H200.192L205.136 22.006ZM172.086 22.006L156.126 0.683105H145.217L148.603 4.97952V34.6301H155.965V12.4054L172.409 34.524H179.395V0.683105H172.086V22.006ZM240.173 0.683105H226.04L229.425 4.97952L228.834 6.62382L217.872 34.6301H226.147L228.297 28.9015H243.075L245.224 34.6301H253.5L240.173 0.683105ZM230.178 22.5365L235.551 7.94988L240.925 22.5365H230.178ZM133.61 0.683105H140.972V34.6831H133.61V0.683105ZM127.752 6.51774V0.683105H101.904V6.99512H118.133L101.904 28.7424V34.524H128.021V28.212H111.416L127.752 6.51774Z" fill="white"/>
</svg>
