<svg width="225" height="77" viewBox="0 0 225 77" fill="none" xmlns="http://www.w3.org/2000/svg">
<g clip-path="url(#clip0_1_2530)">
<path d="M224.667 1.43311H0.666687V76.4331H224.667V1.43311Z" fill="#080808"/>
<path fill-rule="evenodd" clip-rule="evenodd" d="M130.549 56.9757C131.176 57.134 131.858 57.6982 132.134 58.282C132.784 59.6568 132.133 61.2415 130.707 61.753C130.273 61.9075 129.483 61.9235 129.034 61.7849C128.269 61.5494 127.609 60.8932 127.379 60.1388C127.285 59.825 127.264 59.6397 127.284 59.241C127.305 58.8032 127.335 58.6843 127.516 58.3163C128.071 57.1989 129.294 56.6567 130.549 56.9757ZM170.278 56.3501C170.603 56.4323 170.796 56.5415 171.087 56.8102C171.368 57.0688 171.53 57.3448 171.61 57.6994L171.663 57.9311H169.56C167.188 57.9311 167.378 57.9778 167.579 57.4418C167.925 56.5183 169.083 56.0496 170.278 56.3501ZM102.592 59.3821V65.6669H104.9H107.21V59.3821V53.0974H104.9H102.592V59.3821ZM168.431 52.8435C164.911 53.4606 162.611 56.5195 162.95 60.1302C163.072 61.4046 163.404 62.4018 164.019 63.3255C164.895 64.6403 166.212 65.4877 167.97 65.8741C168.728 66.0396 170.687 66.0237 171.504 65.8459C172.776 65.5699 173.9 64.9799 174.716 64.1667C175.094 63.7866 175.714 62.966 175.66 62.9145C175.647 62.9023 174.765 62.5576 173.697 62.1479L171.759 61.4034L171.476 61.6928C171.123 62.0511 170.832 62.2228 170.395 62.3369C169.037 62.6888 167.683 61.9798 167.462 60.8024L167.414 60.5485L171.753 60.5338L176.094 60.5203L176.09 59.4667C176.087 58.6792 176.061 58.2942 175.984 57.9348C175.681 56.517 175.117 55.4376 174.215 54.5472C173.355 53.6935 172.387 53.1845 171.077 52.8951C170.5 52.7663 169.03 52.7393 168.431 52.8435ZM157.938 52.8435C155.904 53.1648 154.244 54.2504 153.252 55.9122C152.956 56.4103 152.724 56.9904 152.545 57.6871C152.396 58.2501 152.384 58.3887 152.383 59.3526C152.381 60.4921 152.433 60.8736 152.7 61.694C153.393 63.8356 155.147 65.3662 157.483 65.8728C157.86 65.9551 158.207 65.9784 159.05 65.9784C160.258 65.9772 160.727 65.8949 161.614 65.5344L162.072 65.3478L162.087 63.2358L162.1 61.1239L161.715 61.3482C161.157 61.6757 160.694 61.8069 159.989 61.8413C159.265 61.8757 158.875 61.8045 158.345 61.5395C157.861 61.2968 157.48 60.903 157.237 60.3903C157.067 60.0347 157.055 59.9659 157.057 59.4102C157.058 58.9221 157.082 58.7529 157.189 58.4855C157.565 57.5448 158.452 56.9819 159.649 56.9229C160.498 56.8825 160.842 56.9757 162.056 57.5779C162.08 57.5902 162.099 56.6532 162.099 55.4964V53.393L161.736 53.2483C160.626 52.8055 159.168 52.6498 157.938 52.8435ZM145.769 52.8472C144.961 53.0141 144.028 53.5892 143.544 54.2209L143.347 54.4785V53.7868V53.0962L141.023 53.1109L138.702 53.1256L138.686 59.3968L138.673 65.6669H141.01H143.347L143.348 62.0976C143.348 58.3248 143.353 58.2452 143.618 57.7325C143.866 57.2529 144.346 56.9683 144.908 56.9659C145.399 56.9635 145.674 57.0664 145.974 57.3632C146.47 57.8563 146.45 57.6736 146.468 61.9271L146.486 65.6669H148.796H151.104L151.084 61.1017C151.065 56.5893 151.063 56.5329 150.938 56.0545C150.868 55.7885 150.683 55.3088 150.526 54.9887C150.29 54.5043 150.166 54.3314 149.799 53.9646C149.321 53.4863 148.916 53.2188 148.388 53.0337C147.594 52.7565 146.569 52.6828 145.769 52.8472ZM127.871 52.7969C127.127 52.9 126.014 53.3403 125.43 53.7622C124.093 54.7286 123.166 56.2533 122.842 58.017C122.714 58.7186 122.717 60.1204 122.849 60.7963C123.072 61.9431 123.509 62.95 124.139 63.7791C124.974 64.8769 126.162 65.6312 127.489 65.9047C128.209 66.0532 129.42 66.0249 130.039 65.8422C130.744 65.6361 131.327 65.3086 131.829 64.8353L132.288 64.4035V65.0351V65.6669H134.571H136.849V59.3821V53.0974H134.571H132.288V53.7474V54.3975L131.99 54.0811C131.393 53.4457 130.541 53.0104 129.57 52.8411C129.119 52.7614 128.277 52.7404 127.871 52.7969ZM116.216 52.8386C115.257 53.0435 114.475 53.5132 113.967 54.1866L113.708 54.53V53.8137V53.0974H111.399H109.091V59.3821V65.6669H111.399H113.708V62.2399C113.709 60.2713 113.73 58.6682 113.765 58.4721C113.838 58.0182 114.115 57.47 114.365 57.2799C115.03 56.7733 116.083 56.8935 116.521 57.524C116.869 58.0232 116.863 57.9582 116.887 61.9835L116.906 65.6669H119.21H121.515V61.542C121.515 57.1658 121.493 56.6642 121.254 55.8362C121.021 55.0452 120.708 54.5055 120.15 53.9462C119.606 53.4028 119.147 53.1281 118.437 52.9257C117.885 52.7687 116.748 52.7234 116.216 52.8386ZM97.5477 47.1243C95.4409 47.5462 94.0557 48.8794 93.5259 51.0001C93.4485 51.3141 93.397 51.7519 93.3748 52.2866L93.3428 53.0974H92.4959H91.6478L91.6625 54.9593L91.6773 56.8224L92.5181 56.8383L93.3589 56.853V61.2599V65.6669H95.6389H97.9182V61.2599V56.8518L99.4718 56.8383L101.025 56.8224L101.04 54.9593L101.055 53.0974H99.4837H97.9115L97.95 52.6853C98.039 51.7703 98.4028 51.2613 99.1292 51.0418C99.6178 50.8934 100.318 50.9191 100.85 51.1031C101.035 51.1681 101.194 51.2208 101.205 51.2208C101.215 51.2208 101.225 50.3649 101.225 49.3185V47.4174L100.897 47.2948C100.345 47.0875 99.7918 47.0114 98.8968 47.0163C98.3365 47.02 97.8929 47.0543 97.5477 47.1243ZM104.119 47.0041C102.538 47.5266 101.839 49.3124 102.665 50.7205C102.882 51.0884 103.398 51.5434 103.832 51.7483C104.199 51.9224 104.251 51.931 104.9 51.931C105.555 51.931 105.604 51.9224 105.973 51.747C106.472 51.5115 107.013 50.9805 107.236 50.5119C107.837 49.2338 107.29 47.7632 105.98 47.1414C105.592 46.9587 105.487 46.9342 104.994 46.9169C104.568 46.901 104.373 46.9208 104.119 47.0041ZM168.912 34.9915C166.63 35.2762 164.834 36.9025 164.337 39.1262C164.199 39.7431 164.215 40.8311 164.369 41.4553C164.845 43.3784 166.338 44.8196 168.268 45.2146C168.513 45.2649 168.985 45.3042 169.338 45.3042C170.829 45.3042 171.999 44.8221 173.048 43.7747C174.105 42.7211 174.582 41.562 174.582 40.0496C174.582 38.1927 173.734 36.6535 172.19 35.7055C171.277 35.1437 169.971 34.859 168.912 34.9915ZM152.239 29.5164C153.708 29.7787 154.916 30.749 155.465 32.1005C155.722 32.7421 155.794 33.1222 155.794 33.873C155.794 34.7008 155.7 35.1448 155.377 35.8353C154.834 36.9932 153.834 37.831 152.58 38.1755C152.067 38.3178 150.767 38.3166 150.242 38.1743C148.726 37.7611 147.567 36.5835 147.16 35.0394C146.99 34.4015 146.99 33.3419 147.159 32.7139C147.685 30.7465 149.349 29.4587 151.384 29.444C151.62 29.4415 152.003 29.4746 152.239 29.5164ZM127.217 29.5164C128.931 29.8218 130.25 31.0851 130.672 32.828C130.812 33.3996 130.796 34.4507 130.642 35.0394C130.237 36.5811 129.075 37.7611 127.558 38.1743C127.035 38.3166 125.735 38.3178 125.221 38.1755C123.968 37.831 122.968 36.9932 122.426 35.8353C122.102 35.1448 122.008 34.7008 122.008 33.873C122.008 33.1222 122.078 32.7421 122.337 32.1005C122.649 31.3291 123.242 30.6079 123.935 30.1505C124.84 29.5544 126.083 29.3151 127.217 29.5164ZM78.2524 29.5005C79.8282 29.861 81.0845 31.096 81.511 32.7066C81.6806 33.3456 81.6806 34.4015 81.511 35.0394C81.0845 36.6412 79.8836 37.8383 78.2831 38.259C77.6452 38.4258 76.5857 38.4258 75.9466 38.2602C74.5674 37.8997 73.3875 36.8854 72.881 35.6232C72.3243 34.236 72.4963 32.4968 73.3038 31.3316C74.41 29.7371 76.2722 29.0491 78.2524 29.5005ZM39.6667 22.8122C39.6667 22.8294 41.7869 27.8385 44.378 33.9429C46.9692 40.0472 49.0894 45.0687 49.087 45.1018C49.0857 45.136 48.3249 46.9513 47.3969 49.137C46.4677 51.3251 45.708 53.1219 45.708 53.1342C45.708 53.1452 47.5863 53.1489 49.8822 53.1403L54.0563 53.1256L60.3373 38.0247C63.7913 29.7199 66.6197 22.8919 66.6222 22.8527C66.6259 22.7963 65.7814 22.7841 62.4859 22.7963L58.3474 22.811L55.803 29.2466C54.4042 32.7864 53.2477 35.6698 53.2317 35.6551C53.2157 35.6391 52.0737 32.7434 50.6934 29.2195L48.1822 22.811L43.9246 22.7963C41.5829 22.7876 39.6667 22.7951 39.6667 22.8122ZM149.646 22.3658C147.527 22.6504 145.514 23.4916 143.833 24.8004C143.244 25.2566 142.158 26.3838 141.727 26.986C140.651 28.4874 139.947 30.2462 139.666 32.1386C139.532 33.0487 139.53 34.6763 139.663 35.601C140.375 40.5196 143.944 44.2738 148.827 45.2428C149.755 45.4255 150.306 45.4759 151.419 45.4759C153.551 45.4759 155.372 45.0564 157.112 44.1647C161.721 41.8013 164.092 36.7025 163.035 31.4273C162.059 26.5581 158.18 23.0256 153.073 22.3573C152.231 22.248 150.498 22.2517 149.646 22.3658ZM124.625 22.3658C122.478 22.6539 120.302 23.5751 118.699 24.8789C115.569 27.4228 114.04 31.5059 114.652 35.6906C115.326 40.3158 118.613 43.9353 123.198 45.1054C124.226 45.3679 125.148 45.4759 126.382 45.4759C128.534 45.4759 130.165 45.1079 131.959 44.2199C135.34 42.5456 137.586 39.4131 138.139 35.601C138.272 34.6763 138.27 33.0487 138.135 32.1386C137.853 30.2462 137.151 28.4874 136.075 26.986C135.644 26.3838 134.558 25.2566 133.969 24.8004C132.259 23.4696 130.259 22.6416 128.08 22.3609C127.203 22.248 125.488 22.2505 124.625 22.3658ZM74.4063 22.3056C72.6721 22.5608 71.352 23.0476 70.0392 23.9136C67.3915 25.6601 65.5859 28.6149 65.0832 32.0209C64.8508 33.5921 64.9504 35.5742 65.3364 37.0963C66.3074 40.918 68.8813 43.842 72.264 44.9656C73.4981 45.3753 73.9454 45.4427 75.461 45.4451C76.5598 45.4475 76.8881 45.4279 77.2851 45.3422C78.8744 44.995 80.0421 44.3928 81.0045 43.4238L81.5036 42.9222V43.9157V44.9067H85.2943H89.0837V33.8448V22.7829H85.2943H81.5036V23.8007V24.8201L81.1472 24.4472C80.2351 23.4916 79.0009 22.8257 77.456 22.459C76.9421 22.3363 76.6963 22.3142 75.718 22.2983C75.091 22.2885 74.501 22.2921 74.4063 22.3056ZM175.269 13.2404C175.054 13.7298 167.059 33.0205 167.059 33.0487C167.059 33.0646 169.153 33.0708 171.715 33.0622L176.372 33.0487L180.517 23.066C182.798 17.5762 184.664 13.0651 184.667 13.0417C184.668 13.0184 182.581 13 180.023 13H175.374L175.269 13.2404ZM91.6491 28.9534V44.9067H95.5824H99.5143V38.8257C99.5143 34.8051 99.5355 32.5925 99.5753 32.2982C99.663 31.6726 99.8794 31.0691 100.177 30.6214C100.716 29.8132 101.494 29.4488 102.558 29.5078C103.931 29.5838 104.739 30.3958 104.984 31.9387C105.021 32.1754 105.043 34.5844 105.043 38.6073L105.045 44.9067H108.977H112.91V37.5561C112.91 31.3585 112.896 30.0879 112.823 29.4686C112.566 27.2644 111.814 25.5583 110.545 24.2865C109.451 23.19 108.097 22.5436 106.428 22.3228C105.778 22.2356 104.137 22.2872 103.562 22.4136C102.141 22.7227 101.024 23.3261 100.014 24.3294L99.4585 24.8813V18.9401V13H95.5529H91.6491V28.9534Z" fill="white"/>
</g>
<defs>
<clipPath id="clip0_1_2530">
<rect width="224" height="76" fill="white" transform="translate(0.666687 0.683105)"/>
</clipPath>
</defs>
</svg>
