<svg width="164" height="77" viewBox="0 0 164 77" fill="none" xmlns="http://www.w3.org/2000/svg">
<g clip-path="url(#clip0_1_2536)">
<path d="M163.333 1.43311H1.58325V76.4331H163.333V1.43311Z" fill="#080808"/>
<path fill-rule="evenodd" clip-rule="evenodd" d="M62.8742 11.2355C59.5537 12.4572 57.8506 15.0455 57.2275 19.8168C56.9444 21.9836 56.9437 23.3988 57.2251 25.3642C58.0825 31.3559 60.4216 33.8276 65.5468 34.1582C68.6889 34.3609 70.5997 33.8147 72.4848 32.1748L73.9859 30.8696V28.1142C73.9859 25.5075 74.0261 25.3527 74.7371 25.2531C75.2203 25.1849 75.5272 24.8818 75.5964 24.4043C75.7014 23.6706 75.6545 23.6614 71.8363 23.6614H67.9702V24.487C67.9702 25.184 68.1264 25.3124 68.9736 25.3124H69.9758V28.378C69.9758 31.4119 69.9658 31.4499 69.0048 32.0103C67.8307 32.696 65.5949 32.746 64.3585 32.114C62.1769 30.9992 61.12 27.2255 61.3789 21.478C61.5808 16.9989 61.978 15.543 63.4597 13.8491C64.408 12.765 64.6976 12.6382 66.4902 12.5243C69.4378 12.3363 70.7928 13.3538 71.7873 16.5026C71.9133 16.8999 72.2336 17.0679 72.7315 16.9978C73.4246 16.9005 73.4747 16.7492 73.3698 15.0761C73.2382 12.978 73.016 12.6369 71.1679 11.6909C69.4311 10.8026 64.7496 10.5453 62.8742 11.2355ZM11.8333 22.6708V34.2279H19.3516H26.87V22.6708V11.1137H19.3516H11.8333V22.6708ZM29.5432 11.9392C29.5432 12.5996 29.7103 12.7648 30.3786 12.7648H31.214V22.5057V32.2467H30.3786C29.7034 32.2467 29.5432 32.4101 29.5432 33.0983V33.9502L35.6415 33.8412C42.3206 33.7223 42.9422 33.5688 45.1574 31.4919C46.9155 29.8431 47.4203 27.8388 47.4203 22.5057C47.4203 15.7471 46.4093 13.513 42.5752 11.8001C41.2523 11.2087 40.3788 11.1272 35.3073 11.121L29.5432 11.1137V11.9392ZM48.3159 11.8566C48.3924 12.3886 48.6837 12.6293 49.3418 12.704L50.2607 12.8086V22.5274V32.2467H49.2582C48.4118 32.2467 48.2558 32.3751 48.2558 33.0721V33.8977H52.2656H56.2754V33.0721C56.2754 32.4117 56.1083 32.2467 55.44 32.2467H54.6046V22.5057V12.7648H55.44C56.1083 12.7648 56.2754 12.5996 56.2754 11.9392V11.1137H52.2422C48.2511 11.1137 48.2103 11.1213 48.3159 11.8566ZM75.3822 11.8566C75.4592 12.3886 75.7505 12.6293 76.4078 12.704L77.3276 12.8086V22.5274V32.2467H76.3242C75.4782 32.2467 75.3219 32.3751 75.3219 33.0721V33.8977H79.332H83.3421V33.0721C83.3421 32.4117 83.1747 32.2467 82.5061 32.2467H81.6714V22.5057V12.7648H82.5061C83.1747 12.7648 83.3421 12.5996 83.3421 11.9392V11.1137H79.3085C75.3175 11.1137 75.2762 11.1213 75.3822 11.8566ZM84.5508 12.0217C84.4515 12.521 84.3276 13.4499 84.2741 14.0854C84.187 15.122 84.263 15.2412 85.0073 15.2412C85.5755 15.2412 85.8779 15.0315 85.9617 14.5808C86.2116 13.2316 87.0119 12.7648 89.0744 12.7648H91.0275V22.5057V32.2467H90.1917C89.5231 32.2467 89.3568 32.4117 89.3568 33.0721V33.8977H93.0321H96.7074V33.0721C96.7074 32.4117 96.5411 32.2467 95.8725 32.2467H95.0365V22.5057V12.7648L96.9585 12.7695C99.2219 12.7755 99.655 12.9905 100.004 14.2787C100.201 15.007 100.462 15.2412 101.076 15.2412C101.939 15.2412 101.991 14.8981 101.536 12.1868L101.356 11.1137H93.0432H84.7317L84.5508 12.0217ZM104.921 21.6528C101.745 31.7695 101.57 32.2179 100.744 32.3127C100.144 32.3817 99.8503 32.637 99.7755 33.1548C99.6729 33.8689 99.7665 33.8977 102.197 33.8977C104.673 33.8977 104.728 33.8799 104.728 33.0721C104.728 32.5583 104.538 32.2467 104.226 32.2467C103.579 32.2467 103.577 32.2638 104.571 29.0444L105.417 26.303H108.178H110.939L111.842 29.047C112.9 32.2516 112.898 32.2467 112.246 32.2467C111.934 32.2467 111.745 32.5583 111.745 33.0721V33.8977H115.254C118.748 33.8977 118.761 33.8944 118.761 33.094C118.761 32.4652 118.563 32.2679 117.853 32.1859C116.969 32.0845 116.85 31.7927 113.556 21.6801C110.186 11.3335 110.164 11.2784 109.203 11.1853L108.236 11.0916L104.921 21.6528ZM120.099 11.9392C120.099 12.5996 120.266 12.7648 120.934 12.7648H121.769V22.5057V32.2467H120.934C120.266 32.2467 120.099 32.4117 120.099 33.0721V33.8977H128.099C132.498 33.8977 136.167 33.7861 136.251 33.65C136.336 33.514 136.513 32.5478 136.644 31.5037C136.876 29.6603 136.86 29.605 136.092 29.6084C135.489 29.611 135.17 29.9223 134.743 30.929L134.183 32.2467H129.98H125.779V22.5287V12.8106L126.53 12.7053C127.014 12.6372 127.32 12.334 127.39 11.8566C127.495 11.1245 127.442 11.1137 123.797 11.1137H120.099V11.9392ZM35.2238 22.5057V32.2467H37.4126C40.356 32.2467 41.2987 31.7087 42.4643 29.363C43.3799 27.5204 43.4105 27.2923 43.4105 22.3313C43.4105 17.4929 43.3629 17.1112 42.5625 15.5621C41.4835 13.4733 40.1559 12.766 37.3123 12.7653L35.2238 12.7648V22.5057ZM107.121 21.0237C106.539 22.7476 106.064 24.2693 106.064 24.405C106.064 24.5411 107.051 24.652 108.259 24.652C110.272 24.652 110.436 24.5995 110.249 24.0167C110.136 23.6674 109.626 22.1458 109.112 20.6354L108.178 17.8895L107.121 21.0237ZM43.8663 39.4428C40.4639 41.1938 38.9731 45.1767 39.3125 51.6074C39.5221 55.5726 40.3791 58.0233 42.1555 59.7335C43.8633 61.3782 45.4489 61.965 48.1853 61.965C52.5149 61.965 55.3404 59.7639 56.4342 55.5392C57.2009 52.5779 57.1115 47.0511 56.2519 44.3021C55.4244 41.6536 53.5294 39.5576 51.3914 38.9267C48.9103 38.194 45.8907 38.4013 43.8663 39.4428ZM30.8799 39.6762C30.8799 40.3426 31.0452 40.5018 31.7386 40.5018H32.5974L32.4904 51.8111C32.391 62.3401 32.3374 63.2118 31.7153 64.4415C31.3478 65.1679 30.7085 65.909 30.2951 66.0881C29.4921 66.4362 29.3771 66.8081 29.846 67.5395C30.2384 68.1514 32.1226 67.7937 33.5991 66.8268C34.2247 66.4174 35.0928 65.3602 35.558 64.4412C36.3923 62.7924 36.3934 62.7773 36.497 51.6461L36.6009 40.5018H37.4159C38.0627 40.5018 38.2312 40.3311 38.2312 39.6762V38.8507H34.5556H30.8799V39.6762ZM57.612 39.6762C57.612 40.3294 57.7808 40.5018 58.4213 40.5018H59.2307L59.3402 48.5092C59.4475 56.3558 59.4673 56.5496 60.3079 58.1677C62.0075 61.4367 66.0938 62.8231 70.0082 61.4584C71.8297 60.8231 72.7426 59.9821 73.7135 58.0431C74.4346 56.6028 74.4848 56.0652 74.592 48.5092L74.7058 40.5018H75.515C76.1557 40.5018 76.3242 40.3294 76.3242 39.6762C76.3242 38.864 76.2818 38.8507 73.6277 38.8507C71.0227 38.8507 70.9356 38.8759 71.0384 39.5936C71.1087 40.0799 71.4145 40.3742 71.9234 40.4456L72.7014 40.5546L72.5919 48.3705C72.4881 55.736 72.438 56.2749 71.7147 57.7242C70.1264 60.91 65.921 61.1979 64.1133 58.2448C63.5191 57.2744 63.4497 56.4189 63.3512 48.8655L63.2425 40.5543L64.0193 40.4453C64.5272 40.3742 64.8335 40.0794 64.9032 39.5936C65.0082 38.8617 64.9557 38.8507 61.3112 38.8507H57.612V39.6762ZM77.9949 39.6762C77.9949 40.3366 78.1623 40.5018 78.8309 40.5018H79.6657V50.2427V59.9837H78.8309C78.1623 59.9837 77.9949 60.1487 77.9949 60.8093V61.6348H81.6714H85.3467V60.8093C85.3467 60.1487 85.1793 59.9837 84.5107 59.9837H83.6758V55.526V51.0682H84.9392C86.1827 51.0682 86.2228 51.1095 87.4817 53.6274C88.1849 55.0346 89.5678 57.4122 90.5544 58.9106L92.349 61.6348H95.0299C97.6661 61.6348 97.7108 61.6212 97.7108 60.8093C97.7108 60.1251 97.5501 59.9837 96.7733 59.9837C96.0076 59.9837 95.5243 59.576 94.1304 57.7549C92.5142 55.6429 90.3591 51.8689 90.3591 51.1501C90.3591 50.9675 90.8089 50.6341 91.3579 50.4092C91.907 50.1843 92.8769 49.4318 93.5119 48.7371C96.4172 45.5592 95.5377 41.4709 91.5543 39.638C89.9718 38.9099 89.4572 38.8571 83.927 38.8541L77.9949 38.8507V39.6762ZM98.713 39.6762C98.713 40.3366 98.8793 40.5018 99.5478 40.5018H100.384V50.2427V59.9837H99.5478C98.8793 59.9837 98.713 60.1487 98.713 60.8093C98.713 61.6208 98.7577 61.6348 101.386 61.6348C104.014 61.6348 104.059 61.6208 104.059 60.8093C104.059 60.1487 103.892 59.9837 103.224 59.9837H102.388L102.398 51.9763C102.405 47.1089 102.526 44.1631 102.707 44.4642C102.873 44.7366 105.181 48.6742 107.837 53.2147C112.652 61.4449 112.67 61.4699 113.878 61.572L115.086 61.6747V51.0882C115.086 40.7221 115.101 40.5018 115.755 40.5018C116.245 40.5018 116.424 40.2815 116.424 39.6762C116.424 38.8693 116.367 38.8507 113.916 38.8507C111.467 38.8507 111.411 38.8693 111.411 39.6762C111.411 40.3366 111.577 40.5018 112.246 40.5018H113.081V47.326C113.081 51.0792 113.027 54.0883 112.963 54.0127C112.898 53.9371 110.855 50.4943 108.423 46.3629L104 38.8507H101.357C98.7588 38.8507 98.713 38.8653 98.713 39.6762ZM125.366 39.5759C125.277 39.9942 124.491 42.5656 123.622 45.2897C122.751 48.0138 121.351 52.427 120.511 55.0968C119.089 59.6049 118.919 59.9581 118.12 60.0498C117.52 60.1187 117.226 60.3743 117.15 60.8918C117.049 61.606 117.142 61.6348 119.574 61.6348C122.049 61.6348 122.103 61.6169 122.103 60.8093C122.103 60.2954 121.915 59.9837 121.601 59.9837C120.956 59.9837 120.953 60.0009 121.946 56.7814L122.792 54.0401H125.554H128.314L129.219 56.7841C130.276 59.9887 130.274 59.9837 129.622 59.9837C129.31 59.9837 129.121 60.2954 129.121 60.8093V61.6348H132.628C136.123 61.6348 136.137 61.6314 136.137 60.8311C136.137 60.2017 135.941 60.0049 135.227 59.923C134.338 59.8213 134.225 59.5436 130.938 49.4173L127.56 39.0159L126.546 38.9154C125.715 38.8336 125.5 38.9537 125.366 39.5759ZM137.14 39.6762C137.14 40.3366 137.307 40.5018 137.976 40.5018H138.811V50.2427V59.9837H137.976C137.307 59.9837 137.14 60.1487 137.14 60.8093V61.6348H145.326C153.086 61.6348 153.513 61.6028 153.513 61.0206C153.513 60.6825 153.609 59.7166 153.726 58.8742C153.929 57.4065 153.904 57.3422 153.109 57.3422C152.45 57.3422 152.17 57.6155 151.754 58.6629L151.229 59.9837H147.024H142.821V50.2659V40.5477L143.573 40.4423C144.056 40.3742 144.362 40.0712 144.431 39.5936C144.537 38.8617 144.484 38.8507 140.838 38.8507H137.14V39.6762ZM45.9865 40.6887C44.2797 41.8702 43.2435 45.3997 43.2435 50.0334C43.2435 57.0634 44.8898 60.3139 48.4502 60.3139C49.417 60.3139 49.9104 60.0729 50.7535 59.1896C52.3454 57.5214 52.7667 55.6149 52.7667 50.0777C52.7667 44.5682 52.2399 42.4154 50.5457 41.0069C49.3635 40.0239 47.1685 39.8707 45.9865 40.6887ZM83.6758 44.9595V49.4173H85.9694C87.7898 49.4173 88.4472 49.2749 89.1515 48.7278C91.5968 46.8269 91.6682 42.6675 89.2843 41.0171C88.7753 40.6649 87.7708 40.5018 86.1078 40.5018H83.6758V44.9595ZM124.496 48.7608C123.916 50.4848 123.44 52.0064 123.44 52.142C123.44 52.2781 124.428 52.3891 125.634 52.3891C127.648 52.3891 127.812 52.3366 127.625 51.7537C127.512 51.4044 127 49.8829 126.486 48.3724L125.554 45.6265L124.496 48.7608Z" fill="white"/>
</g>
<defs>
<clipPath id="clip0_1_2536">
<rect width="163" height="76" fill="white" transform="translate(0.833252 0.683105)"/>
</clipPath>
</defs>
</svg>
