<svg width="50" height="50" viewBox="0 0 50 50" fill="none" xmlns="http://www.w3.org/2000/svg">
<rect x="0.5" y="0.5" width="49" height="49" rx="4.5" stroke="url(#paint0_linear_0_32)"/>
<g clip-path="url(#clip0_0_32)">
<path d="M30.3823 21.5846C31.1039 20.8852 31.8203 19.2533 28.8135 21.2349C26.0047 23.1084 23.1769 24.9549 20.3305 26.7743C19.897 26.9642 19.4284 27.0673 18.9528 27.0773C18.4772 27.0873 18.0045 27.0041 17.5629 26.8325C15.7588 26.308 13.6528 25.6086 13.6528 25.6086C13.6528 25.6086 12.2148 24.7331 14.6764 23.8006C14.6764 23.8006 25.0838 19.6613 28.6932 18.203C30.0764 17.6201 34.7682 15.7551 34.7682 15.7551C34.7682 15.7551 36.9344 14.9379 36.754 16.9207C36.6939 17.7367 36.2128 20.5951 35.7317 23.684C35.0088 28.0565 34.227 32.8382 34.227 32.8382C34.227 32.8382 34.1068 34.1787 33.0844 34.4118C31.9901 34.3938 30.9327 34.0249 30.0777 33.3627C29.8371 33.1879 25.5662 30.5639 24.0013 29.2817C23.8422 29.1772 23.7128 29.0353 23.6254 28.8694C23.538 28.7034 23.4953 28.5187 23.5013 28.3325C23.5073 28.1462 23.5618 27.9645 23.6597 27.8041C23.7577 27.6438 23.8959 27.51 24.0615 27.4154C26.2077 25.5122 28.3151 23.5683 30.3823 21.5846Z" fill="url(#paint1_linear_0_32)"/>
</g>
<defs>
<linearGradient id="paint0_linear_0_32" x1="0" y1="0" x2="50" y2="50.75" gradientUnits="userSpaceOnUse">
<stop stop-color="#FFE923"/>
<stop offset="1" stop-color="#FF2727"/>
</linearGradient>
<linearGradient id="paint1_linear_0_32" x1="13.2353" y1="15.5883" x2="31.5399" y2="38.8122" gradientUnits="userSpaceOnUse">
<stop stop-color="#FFE923"/>
<stop offset="1" stop-color="#FF2727"/>
</linearGradient>
<clipPath id="clip0_0_32">
<rect width="23.5294" height="23.5294" fill="white" transform="translate(13.2353 13.2354)"/>
</clipPath>
</defs>
</svg>
