<svg width="52" height="53" viewBox="0 0 52 53" fill="none" xmlns="http://www.w3.org/2000/svg">
<path d="M26 0.683105C11.674 0.683105 0 12.2629 0 26.4733C0 40.6836 11.674 52.2634 26 52.2634C40.326 52.2634 52 40.6836 52 26.4733C52 12.2629 40.326 0.683105 26 0.683105ZM38.428 20.5415L23.686 35.1645C23.322 35.5256 22.828 35.7319 22.308 35.7319C21.788 35.7319 21.294 35.5256 20.93 35.1645L13.572 27.8659C12.818 27.118 12.818 25.8801 13.572 25.1322C14.326 24.3843 15.574 24.3843 16.328 25.1322L22.308 31.0639L35.672 17.8078C36.426 17.0599 37.674 17.0599 38.428 17.8078C39.182 18.5557 39.182 19.7678 38.428 20.5415Z" fill="url(#paint0_linear_0_218)"/>
<defs>
<linearGradient id="paint0_linear_0_218" x1="0" y1="0.683105" x2="51.5724" y2="53.455" gradientUnits="userSpaceOnUse">
<stop stop-color="#FFE923"/>
<stop offset="1" stop-color="#FF2727"/>
</linearGradient>
</defs>
</svg>
